<?xml version="1.0" encoding="utf-8"?>
<!-- Generator: Adobe Illustrator 27.3.1, SVG Export Plug-In . SVG Version: 6.00 Build 0)  -->
<svg version="1.1" id="Layer_1" xmlns="http://www.w3.org/2000/svg" xmlns:xlink="http://www.w3.org/1999/xlink" x="0px" y="0px"
	 viewBox="0 0 2834.65 2834.65" style="enable-background:new 0 0 2834.65 2834.65;" xml:space="preserve">
<style type="text/css">
	.st0{display:none;}
	.st1{display:inline;fill-rule:evenodd;clip-rule:evenodd;fill:#108DE8;}
	.st2{display:inline;fill-rule:evenodd;clip-rule:evenodd;fill:#FFFFFF;}
	.st3{display:inline;fill-rule:evenodd;clip-rule:evenodd;fill:#79BBE7;}
	.st4{fill:#00AA11;}
	.st5{fill:#00AED6;}
	.st6{fill-rule:evenodd;clip-rule:evenodd;fill:#FFFFFF;}
</style>
<g id="Layer_x0020_1" class="st0">
	<path class="st1" d="M413.82,1020.07c-131.43,12.43-237.93,82.02-302.62,189.43c-42.04,69.79-61.79,152.48-55.7,237.34
		c14.91,207.6,193.32,383.36,421.67,365.27c204.88-16.24,373.93-200.55,356.61-427.24c-6.34-83-35.19-151.4-81.43-213.16
		c-20.94-27.96-25.07-28.42-46.93-51.31c-27.11-28.4-84.45-61-121.03-75.42C535.33,1025.62,472.86,1014.49,413.82,1020.07
		L413.82,1020.07z"/>
	<path class="st2" d="M218.68,1300.2c-4.98,14.39-2.02,174.35-2.02,204.02c0,32.1-6.34,42.12,43.88,59.3
		c132.96,45.47,264.63-108.71,396.84-32.42c6.13,3.53,13.59,10.78,15.34-0.93l0.05-205.78c0.01-22.14,1.99-29.07-12.69-39.29
		c-118.31-82.42-246.41,58.56-366.46,42.74C249.2,1321.99,230.8,1299.33,218.68,1300.2L218.68,1300.2z"/>
	<path class="st1" d="M1132.14,1617.43c51.83,3.7,112.2-36.49,133.48-59.51c73.89-79.97,75.67-195.68,1.29-279.42
		c-27.7-31.18-92.55-65.64-133.91-60.82l-149.38,0.11l-0.04,399.13L1132.14,1617.43z M1067.49,1530.95c11,1.91,56.19,1.2,68.61,0.06
		c102.05-9.33,138.09-148.86,52.3-207.31c-14.24-9.71-30.08-17.44-50.87-19.75c-11.38-1.27-60.01-2.06-70.09-0.24L1067.49,1530.95
		L1067.49,1530.95z"/>
	<path class="st1" d="M2440.53,1618.17l84.97-0.04l0.09-86.03l168.6,0.03l0.49,86.01l84.93,0.01c0.06-47.8,0.02-95.23,0.02-142.64
		c0-42.71,3.59-96.18-6.95-134.93c-17.82-65.58-80.18-123.74-162.25-124.06c-82.95-0.32-143.16,57.67-162.39,122.29
		c-11.38,38.25-7.58,93.08-7.58,135.18C2440.47,1521.98,2439.98,1570.22,2440.53,1618.17L2440.53,1618.17z M2525.58,1445.56
		l169.03,0.07c0.41-36.9,4.37-72.76-12.19-101.03c-11.85-20.22-36.84-41.39-71.94-41.53c-35.81-0.15-59.69,20.17-72.46,41.12
		C2521.27,1371.67,2525.06,1409.5,2525.58,1445.56z"/>
	<path class="st1" d="M1468.64,1618.08l84.68,0.07c0.05-17.96-2.27-72.99,0.82-86.04l167.96,0.02l0.6,85.96l84.79,0.08
		c-0.44-47.66-0.04-95.26-0.04-142.66c0-40.67,3.77-98.93-6.89-134.98c-48.53-164.19-274.43-165.35-324.57-1.64
		c-11.36,37.08-7.48,93.81-7.48,135.11C1468.51,1521.65,1467.42,1570.59,1468.64,1618.08L1468.64,1618.08z M1553.37,1445.55
		l169.24,0.09c0.35-36.36,4.33-72.9-12.27-101.11c-30.38-51.64-107.63-59.07-144.39-0.25
		C1549.15,1371.17,1552.82,1410.15,1553.37,1445.55L1553.37,1445.55z"/>
	<path class="st1" d="M1956.54,1373.58l-1.16,59.62c0,49.99-2.49,143.24,0.18,183.8l83.04,0.04c1.93-28.43-3-231.3,2.26-237.76
		c0.02-39.42,41.12-76.08,82.69-76.23c25.54-0.1,44.15,10.3,57.71,22.63c10.58,9.63,26.76,31.58,26.46,53.81
		c3.89,2.19,0.82,213.8,2.04,237.49l83.13,0.06l-0.66-242.25c2.08-18.98-9.35-48.32-16.68-63.21
		c-61.54-125.08-238.17-126.74-301.46-2.16C1966.66,1324.03,1954.79,1354.17,1956.54,1373.58z"/>
	<path class="st3" d="M1132.14,1617.43l-148.57-0.5l0.04-399.13l149.38-0.11c-2.72-3.8-65.04-1.53-73.77-1.53
		c-21.73,0-56.04-2.05-76.24,0.32c-1.91,6.36-2.69,391.47-0.13,401.85c13.75,1.77,109.61,0.4,139.92,0.48l8.33-0.88
		C1131.36,1617.86,1131.8,1617.6,1132.14,1617.43L1132.14,1617.43z"/>
	<path class="st3" d="M2207.72,1379.5c0.89,32.65-1.77,227.21,1.28,238.88l84.64,0.37c2.21-9.35,0.85-161.06,0.85-184.03
		c0-10.98,2.94-54.11-2.27-59.92l0.66,242.25l-83.13-0.06C2208.53,1593.29,2211.6,1381.68,2207.72,1379.5L2207.72,1379.5z"/>
	<path class="st3" d="M2040.86,1379.29c-5.26,6.46-0.33,209.33-2.26,237.76l-83.04-0.04c-2.66-40.56-0.18-133.81-0.18-183.8
		l1.16-59.62c-4.72,2.05-2.61,108.32-2.61,121.58c0,19.31-2.3,112.19,1.01,123.26l84.6,0.31L2040.86,1379.29L2040.86,1379.29z"/>
</g>
<g id="Layer_x0020_1_00000023248654658876459940000012162816784945563277_">
	<path class="st4" d="M1542.13,1742.06c-2.82,52.58-26.25,88.59-71.17,110.39c-13.05,6.33-25.23,1.33-31.17-12.05
		c-4.58-10.31,0.66-22.05,12.96-27.52c31.81-14.19,45.77-43.27,45.18-70.67c-0.73-33.31-20.69-58.71-52.07-69.64
		c-30.23-10.52-61.8-0.31-84.09,27.19c-17.13,21.13-18.61,57.6-3.57,82.07c8.33,13.57,19.36,23.8,33.84,30.62
		c13.63,6.43,18.45,18.29,12.94,30.03c-5.64,11.98-18.98,15.82-32.38,9.06c-35.99-18.16-59.56-46.37-66.77-86.4
		c-11.4-63.28,28.12-120.05,85.08-135.8c67.32-18.61,131.98,23.9,147.02,85.46C1540.3,1724.51,1541.02,1734.63,1542.13,1742.06
		L1542.13,1742.06z"/>
	<path d="M1714.02,1677.81c0.36-5.03,0.64-9.05,0.95-13.63c11.64,0,22.86,0,34.76,0c0.27,2.55,0.73,4.96,0.73,7.38
		c0.03,41.08,0.25,82.16-0.07,123.24c-0.2,25.35-9.98,46.18-32.62,58.98c-28.38,16.04-72.63,10.97-97.99-10.33
		c-2.39-2.01-4.66-4.14-7.45-6.64c7.54-7.42,14.93-14.69,23.05-22.68c12.66,10.16,26.85,15.27,43.43,14.77
		c25.56-0.76,38.15-14.77,34.82-42c-21.39,16.74-45,17.37-68.96,9.37c-14.3-4.78-25.6-14.35-33.6-27.69
		c-16.9-28.18-12.55-63.93,10.85-85.76C1646.98,1659.43,1684.91,1657.02,1714.02,1677.81L1714.02,1677.81z M1712.57,1732.4
		L1712.57,1732.4c0-23.79-12.93-36.77-36.44-36.56c-22.1,0.2-37.01,14.69-37.82,34.87c-1.06,26.28,16.04,38.12,38.66,37.81
		C1700.19,1768.21,1712.57,1755.91,1712.57,1732.4z"/>
	<path d="M2303.44,1663.76c-21.44,20.22-40.97,38.64-60.78,57.32c20.15,26.8,39.86,53,60.91,81.01c-14.4,0-26.31,0.36-38.17-0.27
		c-2.77-0.14-6.04-3.09-7.93-5.61c-10.94-14.64-21.53-29.54-32.27-44.33c-1.81-2.49-3.72-4.9-6.95-9.13
		c-7.73,8.84-17.57,15.8-20.92,25.1c-3.51,9.74-0.79,21.72-0.79,34.25c-6.42,0-11.98,0-17.55,0c-5.31,0-10.62,0-16.8,0
		c-0.24-4.11-0.6-7.46-0.6-10.8c-0.04-51.83,0.25-103.65-0.27-155.48c-0.1-9.95,2.96-12.85,12.39-11.84
		c7.11,0.77,14.37,0.16,22.69,0.16c0,31.48,0,61.85,0,94.81c10.9-9.82,19.95-17.84,28.85-26.04c9.04-8.32,17.85-16.9,26.95-25.16
		c1.97-1.79,4.72-3.75,7.16-3.82C2273.13,1663.57,2286.9,1663.76,2303.44,1663.76L2303.44,1663.76z"/>
	<path d="M2035.26,1744.7c2.15,14.63,16.15,25.79,32.27,27.09c13.62,1.09,26.38-0.9,37.51-9.75c1.77-1.42,5.61-2.54,7.14-1.59
		c7.44,4.56,14.42,9.87,22.25,15.42c-24.15,24.04-51.62,30.67-83.23,22.86c-25.68-6.35-44.32-20.76-50.36-47.13
		c-13.12-57.37,31.06-95.28,82.13-86.63c29.63,5.01,48.09,22.39,55.03,51.35c2.07,8.66,1.48,17.97,2.2,28.38
		c-18.54,0-35.83,0-53.11,0C2070.06,1744.7,2053.03,1744.7,2035.26,1744.7z M2103.81,1718.25L2103.81,1718.25
		c-2.41-17.2-16.07-25.41-39.11-24.33c-16.5,0.78-27.68,10.16-28.5,24.33C2058.57,1718.25,2080.91,1718.25,2103.81,1718.25
		L2103.81,1718.25z"/>
	<path d="M1844.66,1661.82c40.84,1.62,71.17,27.05,74.22,66.64c2.08,27-9.8,48.68-33.56,63.25c-27.2,16.68-70.34,12.22-93.37-10.05
		c-34.53-33.38-23.98-92.26,20.26-110.75C1822.5,1666.6,1833.82,1664.78,1844.66,1661.82z M1881.79,1733L1881.79,1733
		c-0.07-22.46-14.4-37.33-36.09-37.16c-24.33,0.18-37.04,15.87-37.85,37.25c-0.79,20.54,16.83,37.03,37.46,36.88
		C1867.34,1769.81,1881.87,1755.09,1881.79,1733z"/>
	<path d="M1940.31,1663.87c12.52,0,23.53,0,36.04,0c0,3.07,0,6.06,0,9.06c0,49.96,0.02,99.92-0.02,149.89
		c-0.02,25.21-14.72,39.87-39.92,39.96c-9.72,0.04-19.44,0.01-30.21,0.01c0-5.93,0-10.89,0-15.86c0-5.01,0-10.02,0-16.79
		c6.51,0,12.4,0.23,18.26-0.05c13.34-0.65,15.85-3.36,15.85-16.51c0.01-46.17,0-92.34,0-138.51
		C1940.31,1671.65,1940.31,1668.24,1940.31,1663.87L1940.31,1663.87z"/>
	<path class="st4" d="M1378.79,1742.61c-2.73-20.22,22.89-44.57,44.66-43.15c24.08,1.58,44.03,20.38,43.87,44.42
		c-0.15,23.97-20.95,45.14-44.94,44.51C1398.41,1787.75,1377.38,1768.76,1378.79,1742.61L1378.79,1742.61z"/>
	<path d="M544.97,1680.6h37.21c20.25,0,32.24,11.44,32.24,29.76c0,18.61-11.85,29.49-32.24,29.49h-25.91v37.21h-11.3V1680.6z
		 M581.48,1729.11L581.48,1729.11c14.74,0,21.5-5.93,21.5-18.75c0-12.81-7.03-19.01-21.5-19.01h-25.21v37.76H581.48z"/>
	<path d="M654.39,1701.95c20.67,0,34.45,15.57,34.45,38.59c0,23.01-13.78,38.58-34.45,38.58c-20.53,0-34.31-15.57-34.31-38.58
		C620.08,1717.53,633.86,1701.95,654.39,1701.95z M654.39,1712.02L654.39,1712.02c-14.47,0-23.56,11.02-23.56,28.53
		c0,17.5,9.09,28.53,23.56,28.53c14.47,0,23.7-11.03,23.7-28.53C678.1,1723.04,668.86,1712.02,654.39,1712.02z"/>
	<polygon points="695.75,1704.02 706.36,1704.02 719.59,1760.8 719.87,1760.8 739.44,1704.02 749.22,1704.02 768.78,1760.8 
		769.06,1760.8 782.29,1704.02 792.9,1704.02 775.41,1777.06 765.2,1777.06 744.53,1717.39 744.26,1717.39 723.45,1777.06 
		713.25,1777.06 	"/>
	<path d="M833.71,1701.95c19.57,0,32.65,14.74,32.65,36.24v5.51h-55.53c0.27,14.06,9.23,25.63,22.6,25.63
		c10.34,0,16.12-3.72,22.32-14.61l8.96,5.38c-6.2,12.54-16.81,19.01-31.01,19.01c-20.26,0-33.77-15.57-33.77-38.58
		C799.94,1717.53,813.86,1701.95,833.71,1701.95L833.71,1701.95z M855.48,1735.02L855.48,1735.02c-0.14-6.75-2.34-12.26-6.34-16.67
		c-3.99-4.42-9.09-6.61-15.43-6.61c-12.4,0-22.32,11.02-22.6,23.28L855.48,1735.02L855.48,1735.02z"/>
	<path d="M881.68,1704.02h10.19v6.07h0.27c2.76-4.54,8.13-7.3,15.16-7.3c2.2,0,4.69,0.41,7.31,1.1l-2.35,11.16
		c-2.61-0.82-5.1-1.23-7.16-1.23c-8.69,0-12.68,5.79-12.68,19.44v43.82h-10.74L881.68,1704.02L881.68,1704.02z"/>
	<path d="M953.33,1701.95c19.58,0,32.66,14.74,32.66,36.24v5.51h-55.54c0.27,14.06,9.23,25.63,22.6,25.63
		c10.34,0,16.13-3.72,22.32-14.61l8.96,5.38c-6.2,12.54-16.81,19.01-31.01,19.01c-20.26,0-33.76-15.57-33.76-38.58
		C919.58,1717.53,933.49,1701.95,953.33,1701.95L953.33,1701.95z M975.12,1735.02L975.12,1735.02c-0.14-6.75-2.35-12.26-6.34-16.67
		c-4-4.42-9.1-6.61-15.44-6.61c-12.4,0-22.32,11.02-22.6,23.28L975.12,1735.02L975.12,1735.02z"/>
	<path d="M1031.34,1701.95c8.82,0,16.68,3.72,21.51,9.79h0.27v-35.28h10.76v100.6h-10.34v-7.31h-0.28
		c-4.82,5.93-12.95,9.37-21.91,9.37c-19.01,0-32.8-15.85-32.8-38.58C998.55,1717.8,1012.33,1701.95,1031.34,1701.95z
		 M1053.11,1733.37L1053.11,1733.37c0-11.85-9.64-21.36-21.77-21.36c-13.09,0-22.05,11.3-22.05,28.53
		c0,17.22,8.96,28.53,22.74,28.53c11.58,0,21.08-9.65,21.08-21.5V1733.37L1053.11,1733.37z"/>
	<path d="M1129.61,1769.75v7.31h-10.34v-100.6h10.75v35.28h0.27c4.83-6.07,12.68-9.79,21.5-9.79c19.02,0,32.8,15.85,32.8,38.59
		c0,22.73-13.77,38.58-32.8,38.58c-8.96,0-17.09-3.44-21.91-9.37H1129.61z M1151.8,1712.02L1151.8,1712.02
		c-12.13,0-21.77,9.51-21.77,21.36v14.2c0,11.85,9.51,21.5,21.08,21.5c13.78,0,22.74-11.3,22.74-28.53
		C1173.85,1723.31,1164.89,1712.02,1151.8,1712.02L1151.8,1712.02z"/>
	<polygon points="1216.31,1770.86 1188.19,1704.02 1199.63,1704.02 1221.82,1758.45 1222.1,1758.45 1244.42,1704.02 
		1255.86,1704.02 1212.04,1808.07 1200.87,1808.07 	"/>
	<path class="st5" d="M362.27,968.04c163.71,0,296.41,128.07,296.41,286.04c0,157.99-132.71,286.05-296.41,286.05
		c-163.7,0-296.4-128.07-296.4-286.05C65.86,1096.11,198.57,968.04,362.27,968.04z"/>
	<path class="st6" d="M535.17,1245.27c-2.25-36.4-34.37-64.32-72.12-62.69H275.82c-6.83,0-12.36-5.34-12.36-11.92
		s5.53-11.92,12.36-11.92h189.7c-1.11-24.67-18.57-45.85-43.23-52.44c-55.3-9.54-111.91-9.54-167.22,0
		c-31.43,7.45-54.94,32.69-59.28,63.64c-8.64,56.1-8.64,113.14,0,169.24c6.62,32.75,33.59,58.11,67.68,63.65
		c68.57,8.34,137.94,8.34,206.5,0c30.55-5.98,53.67-30.2,57.31-60.07C533.55,1310.63,536.19,1277.95,535.17,1245.27L535.17,1245.27z
		 M473.42,1285.31L473.42,1285.31v10.49c0,6.58-5.53,11.92-12.35,11.92s-12.35-5.34-12.35-11.92v-10.49
		c-3.99-3.36-6.25-8.24-6.18-13.34c0-9.88,8.3-17.89,18.53-17.89c10.23,0,18.52,8.01,18.52,17.89
		C479.54,1277.05,477.3,1281.88,473.42,1285.31L473.42,1285.31z"/>
	<path d="M1502.94,1221.91c0.41-50.16-41.4-91.14-93.37-91.53c-51.97-0.39-94.43,39.95-94.84,90.11s41.39,91.14,93.36,91.52
		c0.5,0.01,0.99,0.01,1.48,0c49.31,2.55,91.43-33.96,94.08-81.55c0.16-2.85,0.17-5.7,0.03-8.55H1502.94z M1223.33,1221.91
		L1223.33,1221.91c0-95.35,78.06-168.06,186.24-168.06c108.19,0,186.24,73.18,186.24,168.06c0,94.87-77.31,168.29-186.24,168.29
		S1223.33,1317.02,1223.33,1221.91z"/>
	<path d="M1075.12,1239.31c0,39.33-41.49,71.52-94.1,71.52c-48.32,4.71-91.45-29.27-96.33-75.9c-0.5-4.72-0.58-9.47-0.25-14.21
		c0-51.97,39.52-87.72,100.29-87.72c49.4,0,90.4,32.65,90.4,69.6L1075.12,1239.31L1075.12,1239.31z M1078.83,1053.61
		L1078.83,1053.61v37.67c-30.07-26.35-69.88-39.85-110.41-37.43c-95.83,0.85-172.81,76.52-171.92,169.01
		c0.89,92.49,79.29,166.76,175.13,165.91c39.46,1.7,77.87-12.56,105.96-39.33v32.18c0,43.62-39.02,75.56-90.4,75.56
		c-39.24,2.73-77.89-10.39-106.71-36.24l-60.02,55.79c45,42.63,106.18,65.55,169.2,63.4c105.22,0,177.35-68.18,177.35-159v-327.53
		L1078.83,1053.61L1078.83,1053.61z"/>
	<path d="M1650.15,1063.39h88.43v28.12h1.23c28.99-25.5,67.27-38.87,106.47-37.18c96.24,3.5,171.32,81.62,167.7,174.5
		c-3.44,87.97-76.55,158.53-167.7,161.84c-37.45,0.84-73.99-11.06-103.25-33.62v159.24h-92.13L1650.15,1063.39L1650.15,1063.39z
		 M1831.95,1133L1831.95,1133c-49.41,0-89.67,33.14-89.67,69.12v40.29c0,38.38,39.77,70.08,90.17,70.08
		c51.36,2.55,95.14-35.56,97.79-85.12c2.64-49.57-36.84-91.82-88.21-94.38c-3.19-0.16-6.39-0.16-9.58,0H1831.95L1831.95,1133z"/>
	<path d="M2190.85,1191.16c60.52-7.87,78.55-16.21,78.55-32.42c0-20.98-22.97-33.61-58.54-33.61
		c-38.34-3.03-73.25,21.35-82.25,57.44l-86.95-17.4c12.36-64.84,81.51-111.08,166.73-111.08c96.33,0,156.11,47.67,156.11,124.91
		v202.38h-82.75v-35.28h-1.23c-28.08,30.5-69.23,46.7-111.4,43.86c-72.87,0-123.51-38.37-123.51-95.35
		C2045.61,1237.64,2087.1,1204.99,2190.85,1191.16L2190.85,1191.16z M2276.81,1224.77L2276.81,1224.77h-1.23
		c-8.16,11.44-24.71,18.12-70.4,25.74c-54.1,9.77-74.1,20.02-74.1,38.61c0,18.6,16.05,27.66,50.88,27.66
		c53.11,0,94.11-23.84,94.11-54.11L2276.81,1224.77L2276.81,1224.77z"/>
	<polygon points="2531.23,1363.5 2378.82,1063.39 2480.34,1063.39 2580.37,1271.25 2581.86,1271.25 2680.66,1063.39 
		2782.68,1063.39 2554.44,1516.3 2452.92,1516.3 	"/>
</g>
</svg>
