<?xml version="1.0" encoding="utf-8"?>
<!-- Generator: Adobe Illustrator 27.3.1, SVG Export Plug-In . SVG Version: 6.00 Build 0)  -->
<svg version="1.1" id="Layer_1" xmlns="http://www.w3.org/2000/svg" xmlns:xlink="http://www.w3.org/1999/xlink" x="0px" y="0px"
	 viewBox="0 0 2834.65 2834.65" style="enable-background:new 0 0 2834.65 2834.65;" xml:space="preserve">
<style type="text/css">
	.st0{display:none;}
	.st1{display:inline;fill-rule:evenodd;clip-rule:evenodd;fill:#108DE8;}
	.st2{display:inline;fill-rule:evenodd;clip-rule:evenodd;fill:#FFFFFF;}
	.st3{display:inline;fill-rule:evenodd;clip-rule:evenodd;fill:#79BBE7;}
	.st4{display:inline;fill:#0061AE;}
	.st5{display:inline;fill-rule:evenodd;clip-rule:evenodd;fill:url(#SVGID_1_);}
	.st6{display:inline;fill-rule:evenodd;clip-rule:evenodd;fill:#EE4E2C;}
	.st7{display:inline;fill-rule:evenodd;clip-rule:evenodd;fill:#FEFEFE;}
	.st8{display:inline;fill:#EE4E2C;}
	.st9{display:inline;fill:#C47E4D;}
	.st10{display:inline;fill:#A86A3F;}
	.st11{display:inline;fill:#CA8B5F;}
	.st12{display:inline;fill:#B27245;}
	.st13{display:inline;fill:#B37346;}
	.st14{display:inline;fill:#5ABEAC;}
	.st15{display:inline;fill:#3DB39E;}
	.st16{display:inline;fill:#C88B60;}
	.st17{display:inline;fill:#FBFDFD;}
	.st18{display:inline;fill:#EFC75E;}
	.st19{display:inline;fill:#D7B254;}
	.st20{display:inline;fill:#8BD2C5;}
	.st21{display:inline;fill:#77CABB;}
	.st22{fill:#D6A041;}
	.st23{fill:#FFFEFB;}
	.st24{fill:#FFCC5C;}
	.st25{fill:#FFEEAD;}
	.st26{fill:#FFCD5F;}
</style>
<g id="Layer_x0020_1" class="st0">
	<path class="st1" d="M413.82,1020.07c-131.43,12.43-237.93,82.02-302.62,189.43c-42.04,69.79-61.79,152.48-55.7,237.34
		c14.91,207.6,193.32,383.36,421.67,365.27c204.88-16.24,373.93-200.55,356.61-427.24c-6.34-83-35.19-151.4-81.43-213.16
		c-20.94-27.96-25.07-28.42-46.93-51.31c-27.11-28.4-84.45-61-121.03-75.42C535.33,1025.62,472.86,1014.49,413.82,1020.07
		L413.82,1020.07z"/>
	<path class="st2" d="M218.68,1300.2c-4.98,14.39-2.02,174.35-2.02,204.02c0,32.1-6.34,42.12,43.88,59.3
		c132.96,45.47,264.63-108.71,396.84-32.42c6.13,3.53,13.59,10.78,15.34-0.93l0.05-205.78c0.01-22.14,1.99-29.07-12.69-39.29
		c-118.31-82.42-246.41,58.56-366.46,42.74C249.2,1321.99,230.8,1299.33,218.68,1300.2L218.68,1300.2z"/>
	<path class="st1" d="M1132.14,1617.43c51.83,3.7,112.2-36.49,133.48-59.51c73.89-79.97,75.67-195.68,1.29-279.42
		c-27.7-31.18-92.55-65.64-133.91-60.82l-149.38,0.11l-0.04,399.13L1132.14,1617.43z M1067.49,1530.95c11,1.91,56.19,1.2,68.61,0.06
		c102.05-9.33,138.09-148.86,52.3-207.31c-14.24-9.71-30.08-17.44-50.87-19.75c-11.38-1.27-60.01-2.06-70.09-0.24L1067.49,1530.95
		L1067.49,1530.95z"/>
	<path class="st1" d="M2440.53,1618.17l84.97-0.04l0.09-86.03l168.6,0.03l0.49,86.01l84.93,0.01c0.06-47.8,0.02-95.23,0.02-142.64
		c0-42.71,3.59-96.18-6.95-134.93c-17.82-65.58-80.18-123.74-162.25-124.06c-82.95-0.32-143.16,57.67-162.39,122.29
		c-11.38,38.25-7.58,93.08-7.58,135.18C2440.47,1521.98,2439.98,1570.22,2440.53,1618.17L2440.53,1618.17z M2525.58,1445.56
		l169.03,0.07c0.41-36.9,4.37-72.76-12.19-101.03c-11.85-20.22-36.84-41.39-71.94-41.53c-35.81-0.15-59.69,20.17-72.46,41.12
		C2521.27,1371.67,2525.06,1409.5,2525.58,1445.56z"/>
	<path class="st1" d="M1468.64,1618.08l84.68,0.07c0.05-17.96-2.27-72.99,0.82-86.04l167.96,0.02l0.6,85.96l84.79,0.08
		c-0.44-47.66-0.04-95.26-0.04-142.66c0-40.67,3.77-98.93-6.89-134.98c-48.53-164.19-274.43-165.35-324.57-1.64
		c-11.36,37.08-7.48,93.81-7.48,135.11C1468.51,1521.65,1467.42,1570.59,1468.64,1618.08L1468.64,1618.08z M1553.37,1445.55
		l169.24,0.09c0.35-36.36,4.33-72.9-12.27-101.11c-30.38-51.64-107.63-59.07-144.39-0.25
		C1549.15,1371.17,1552.82,1410.15,1553.37,1445.55L1553.37,1445.55z"/>
	<path class="st1" d="M1956.54,1373.58l-1.16,59.62c0,49.99-2.49,143.24,0.18,183.8l83.04,0.04c1.93-28.43-3-231.3,2.26-237.76
		c0.02-39.42,41.12-76.08,82.69-76.23c25.54-0.1,44.15,10.3,57.71,22.63c10.58,9.63,26.76,31.58,26.46,53.81
		c3.89,2.19,0.82,213.8,2.04,237.49l83.13,0.06l-0.66-242.25c2.08-18.98-9.35-48.32-16.68-63.21
		c-61.54-125.08-238.17-126.74-301.46-2.16C1966.66,1324.03,1954.79,1354.17,1956.54,1373.58z"/>
	<path class="st3" d="M1132.14,1617.43l-148.57-0.5l0.04-399.13l149.38-0.11c-2.72-3.8-65.04-1.53-73.77-1.53
		c-21.73,0-56.04-2.05-76.24,0.32c-1.91,6.36-2.69,391.47-0.13,401.85c13.75,1.77,109.61,0.4,139.92,0.48l8.33-0.88
		C1131.36,1617.86,1131.8,1617.6,1132.14,1617.43L1132.14,1617.43z"/>
	<path class="st3" d="M2207.72,1379.5c0.89,32.65-1.77,227.21,1.28,238.88l84.64,0.37c2.21-9.35,0.85-161.06,0.85-184.03
		c0-10.98,2.94-54.11-2.27-59.92l0.66,242.25l-83.13-0.06C2208.53,1593.29,2211.6,1381.68,2207.72,1379.5L2207.72,1379.5z"/>
	<path class="st3" d="M2040.86,1379.29c-5.26,6.46-0.33,209.33-2.26,237.76l-83.04-0.04c-2.66-40.56-0.18-133.81-0.18-183.8
		l1.16-59.62c-4.72,2.05-2.61,108.32-2.61,121.58c0,19.31-2.3,112.19,1.01,123.26l84.6,0.31L2040.86,1379.29L2040.86,1379.29z"/>
</g>
<g id="Layer_x0020_1_00000163771617593982936790000000216729778176873395_" class="st0">
	<path class="st4" d="M2077.77,1472.1h95.15v327.17h-95.15V1472.1z M1843.61,1799.27v-225.61c0-18.46-0.33-36.17-0.98-53.21
		c-0.64-16.95-1.51-33.03-2.83-48.35h87.23l3.47,58.55c8.26-20.09,21.51-35.29,39.65-45.62c18.03-10.32,40.62-15.42,67.56-15.42
		h2.82l-0.33,85.92c-5.75-0.43-9.99-0.76-12.82-0.98c-2.94-0.22-5.53-0.33-7.82-0.33c-24.88,0-44.32,6.08-58.32,18.15
		c-14.12,12.05-21.19,28.89-21.19,50.29v176.62H1843.61L1843.61,1799.27z M1699.75,1472.1h95.15v327.17h-95.15V1472.1z
		 M1545.57,1799.27l-3.14-46.71c-11.73,17.6-25.84,30.86-42.36,39.76c-16.5,8.9-35.18,13.36-56.05,13.36
		c-39.64,0-71.79-15.54-96.56-46.6c-24.66-31.07-37.03-72.24-37.03-123.28c0-51.38,12.06-92.55,36.27-123.39
		c24.22-30.85,56.27-46.27,96.12-46.27c21.61,0,40.52,4.23,56.59,12.6c16.19,8.37,30.08,21.18,41.72,38.34v-187.14h94.49v403.52
		c0,16.52,0.22,29.98,0.75,40.2c0.55,10.31,1.42,18.9,2.4,25.63H1545.57z M1406.86,1636.34c0,33.78,5.87,59.96,17.49,78.53
		s28.02,27.8,48.98,27.8c21.4,0,38.46-9.45,50.95-28.45s18.79-44.97,18.79-77.88c0-33.03-6.3-59.2-18.79-78.21
		c-12.49-19.11-29.55-28.67-50.95-28.67c-20.96,0-37.36,9.33-48.98,28.13C1412.73,1576.38,1406.86,1602.67,1406.86,1636.34z
		 M957.2,1799.27v-264.39c0-9.33-0.22-19.1-0.76-29.32c-0.53-10.2-1.4-21.39-2.38-33.46h90.59l1.95,49.1
		c12.28-19.77,26.94-34.22,43.78-43.34c16.83-9.12,37.47-13.69,61.91-13.69c36.05,0,62.78,10.22,80.26,30.75
		c17.48,20.41,26.29,51.69,26.29,93.73v210.61h-93.53v-197.58c0-24.44-4.23-41.92-12.6-52.57c-8.36-10.54-21.94-15.86-40.83-15.86
		c-18.26,0-33.03,5.87-44.11,17.7c-11.19,11.73-16.72,27.38-16.72,46.93v201.38H957.2L957.2,1799.27z M55.31,1799.27v-264.39
		c0-11.73-0.23-22.69-0.65-33.01c-0.45-10.32-1.09-20.2-1.85-29.77h90.05l2.5,49.1c12.26-19.77,26.82-34.22,43.77-43.34
		c16.83-9.12,37.47-13.69,61.8-13.69c24.65,0,45.39,5.44,62.45,16.41c16.94,10.97,29.32,26.82,37.15,47.58
		c10.64-22.05,24.54-38.24,41.7-48.56c17.17-10.32,38.89-15.43,65.28-15.43c36.06,0,62.9,10.22,80.5,30.75
		c17.59,20.41,26.39,51.69,26.39,93.73v210.61H469.9v-197.58c0-24.44-4.24-41.92-12.6-52.57c-8.37-10.54-21.94-15.86-40.85-15.86
		c-18.24,0-32.9,5.87-43.77,17.7c-10.97,11.73-16.4,27.38-16.4,46.93v201.38h-94.49v-197.58c0-24.22-4.13-41.61-12.38-52.35
		c-8.25-10.75-21.61-16.08-40.09-16.08c-18.23,0-32.68,5.87-43.44,17.49c-10.75,11.73-16.08,27.37-16.08,47.13v201.38
		C149.8,1799.27,55.31,1799.27,55.31,1799.27z M820.07,1765.1c-19.06,16.65-56.35,34.51-81.99,40.27
		c-9.83,2.31-20.55,3.39-32.14,3.39c-27.5,0-50.5-9.69-69.04-28.98c-18.54-19.39-27.76-44.07-27.76-74.05
		c0-24.08,4.74-43.66,14.15-58.85c9.49-15.29,22.83-27.29,40.14-36.08c17.12-8.7,38.47-14.99,63.85-18.69
		c25.39-3.7,51.73-6.49,78.96-8.19v-1.8c0-78.24-111.59-68.5-159.29-35.05l-16.52-61.64c37.29-17.51,73.98-26.4,119.59-26.4
		c80,0,147.56,38.36,147.56,130.03v210.92h-77.51V1765.1L820.07,1765.1z M812.58,1701.26v-63.07c-14.42,1.38-30.15,3.23-47,5.54
		c-16.84,2.41-29.63,5.2-38.36,8.32c-10.66,3.81-18.87,9.47-24.45,16.74c-5.7,7.38-8.53,16.97-8.53,28.98
		C694.23,1780.63,790.98,1753.73,812.58,1701.26L812.58,1701.26z"/>
	
		<linearGradient id="SVGID_1_" gradientUnits="userSpaceOnUse" x1="1222.5149" y1="1308.246" x2="2684.3247" y2="1913.2224" gradientTransform="matrix(0.9999 0 0 -0.9999 0.0697 2835.1968)">
		<stop  offset="0" style="stop-color:#F6AD02"/>
		<stop  offset="0.2" style="stop-color:#FFF000"/>
		<stop  offset="0.4118" style="stop-color:#F6AD02"/>
		<stop  offset="0.6588" style="stop-color:#FFF000"/>
		<stop  offset="0.7882" style="stop-color:#F6AD02"/>
		<stop  offset="1" style="stop-color:#FFF000"/>
	</linearGradient>
	<path class="st5" d="M1108.9,1263.7c29.19,32.62,83.51,121.07,147.81,115.61c150.66-12.81,236.46-175.72,422.46-164.1
		c76.41,4.78,112.39,132.94,188.15,143.98c119.43,17.41,233.85-166.22,428.49-155.69c80.01,4.33,113.09,138.77,192.85,146.53
		c74.36,7.24,190.83-98.18,293.18-152.83c-26.06-43.89-74.49-112.43-126.05-115.9c-101.5-6.83-182.69,122.84-271.96,100.2
		c-51.96-13.18-111.14-155.9-196.73-155.62c-158.44,0.52-267.77,157.39-407.85,169.79c-79.49,7.03-117.71-169.77-224.15-153.51
		C1409.43,1064.4,1260.55,1184.43,1108.9,1263.7L1108.9,1263.7z"/>
</g>
<g id="Layer_x0020_1_00000174572378740973003360000006651258118980115866_" class="st0">
	<path class="st6" d="M201.05,1015.2h868.14c57.68,0,104.88,47.19,104.88,104.88v607.51c0,57.68-47.19,104.88-104.88,104.88H175.8
		c-57.68,0-104.88-47.19-104.88-104.88V977.13c0-27.38,22.53-46.22,49.72-49.72L921.2,825.26c27.38,0,49.72,22.33,49.72,49.72v84.87
		H151.33c0,35.74,10.68,55.16,50.11,55.16L201.05,1015.2z M687.95,1680.78L687.95,1680.78c-73.03,13.98-166.83-10.29-217.91-65.26
		c-23.11-24.67,14.18-62.15,37.29-37.1c34.38,36.9,95.55,54.19,145.47,53.02c63.7-1.36,120.41-59.24,84.1-123.91
		c-50.11-89.53-173.43-64.48-236.75-134.79c-51.27-56.71-27-146.05,33.21-185.67c62.73-41.37,171.3-39.81,222.77,19.42
		c22.33,25.44-14.95,62.73-37.29,37.1c-41.76-47.78-140.22-41.37-177.9,7.96c-53.6,70.31,26.61,108.18,82.54,125.08
		c76.91,23.31,162.17,65.84,176.15,154.01c11.26,71.08-43.89,137.12-111.87,150.32L687.95,1680.78z"/>
	<path class="st7" d="M687.95,1680.97L687.95,1680.97c-73.03,13.98-166.83-10.29-217.91-65.26c-23.11-24.67,14.18-62.15,37.29-37.1
		c34.38,36.9,95.55,54.19,145.47,53.02c63.7-1.36,120.22-59.24,84.1-123.91c-50.11-89.53-173.43-64.48-236.75-134.79
		c-51.27-56.71-27-146.05,33.21-185.67c62.73-41.37,171.1-39.62,222.77,19.42c22.14,25.44-14.95,62.73-37.29,37.1
		c-41.76-47.78-140.22-41.37-177.9,7.96c-53.6,70.31,26.61,108.18,82.54,125.08c76.91,23.31,162.17,65.84,176.35,154.01
		c11.26,71.08-43.89,137.12-111.87,150.32V1680.97z"/>
	<path class="st8" d="M2183.02,977.91c-31.07,0-59.04,13.21-78.07,33.99v-24.28c0-21.95-35.15-21.95-35.15,0v286.66
		c0,21.95,35.15,21.95,35.15,0v-127.6c19.23,20.98,47,33.99,78.07,33.99c57.68,0,104.49-45.45,104.49-101.38
		C2287.51,1023.36,2240.7,977.91,2183.02,977.91z M2183.02,1144.16L2183.02,1144.16c-36.9,0-66.81-29.13-66.81-64.67
		c0-32.24,24.28-59.04,56.13-63.9c0.19,0,0.39,0,0.58,0c3.3-0.39,6.6-0.78,10.1-0.78c27.19,0,50.69,15.93,60.98,38.65v0.19
		c3.5,7.96,5.63,16.7,5.63,25.83C2249.64,1115.22,2219.73,1144.16,2183.02,1144.16z M1923.55,1180.86
		c-57.68,0-104.49-45.45-104.49-101.38c0-55.93,46.81-101.38,104.49-101.38s104.49,45.45,104.49,101.38
		C2028.03,1135.42,1981.23,1180.86,1923.55,1180.86z M1923.55,1014.62L1923.55,1014.62c-36.9,0-66.81,29.13-66.81,64.67
		c0,35.74,29.91,64.67,66.81,64.67s66.81-29.13,66.81-64.67C1990.36,1043.55,1960.45,1014.62,1923.55,1014.62z M2763.53,1077.35
		c-0.78-46.61-25.44-88.76-76.33-98.08c-43.89-7.96-95.17,14.37-113.81,54.19c-19.42,41.37-11.26,98.27,27,127.21
		c41.37,31.27,106.04,21.56,148.58-1.55c19.81-10.68,2.14-40.2-17.87-29.52c-27,14.76-62.15,21.75-92.25,12.04
		c-22.53-7.38-35.15-26.22-39.04-47.39h146.24c9.32,0,17.67-7.77,17.67-17.09L2763.53,1077.35z M2600.97,1060.26L2600.97,1060.26
		c0.19-1.36,0.58-2.52,0.97-3.69c8.35-27.77,37.29-43.89,66.42-44.67c33.41-0.97,52.24,21.56,58.07,48.36H2600.97z M2529.5,1077.54
		c-0.78-46.61-25.44-88.76-76.33-98.08c-43.89-7.96-95.17,14.37-113.81,54.19c-19.42,41.37-11.26,98.27,27,127.21
		c41.37,31.27,106.04,21.56,148.58-1.55c19.81-10.68,2.14-40.2-17.87-29.52c-27,14.76-62.15,21.75-92.25,12.04
		c-22.53-7.38-35.15-26.22-39.04-47.39h146.24c9.32,0,17.67-7.77,17.67-17.09L2529.5,1077.54z M2366.94,1060.45L2366.94,1060.45
		c0.19-1.36,0.58-2.52,0.97-3.69c8.35-27.77,37.29-43.89,66.42-44.67c33.41-0.97,52.24,21.56,58.07,48.36H2366.94z M1777.88,1044.72
		v118.47c0,22.33-35.15,22.33-35.15,0v-116.14c-1.17-22.92-20.78-33.6-21.36-33.79c-25.05-10.88-70.5-5.83-97.5,28.55v121.58
		c0,22.33-35.15,22.33-35.15,0V859.05c0-22.33,35.15-22.33,35.15,0v136.73c43.12-28.74,97.88-25.64,123.72-7.96
		c0,0,31.07,16.9,30.49,57.1L1777.88,1044.72z M1530.84,872.84c-34.57-38.07-106.82-39.04-148.77-12.43
		c-40.2,25.44-56.52,82.74-22.14,119.25c42.34,45.25,124.69,29.13,158.09,86.62c24.08,41.56-13.6,78.66-56.13,79.63
		c-33.41,0.78-74.19-10.49-97.11-34.18c-15.54-15.93-40.2,7.96-24.86,23.89c33.99,35.15,96.72,50.88,145.47,41.76
		c45.45-8.35,82.15-50.88,74.77-96.53c-9.32-56.52-66.23-83.9-117.69-98.86c-37.48-10.88-90.89-35.15-55.16-80.21
		c25.05-31.66,90.89-35.74,118.67-5.05C1520.94,913.24,1545.6,889.15,1530.84,872.84z"/>
	<path class="st6" d="M2447.93,2009.39h-111.67l119.64-225.87l-196.16-370.76h121.19l135.56,256.36l135.56-256.36h111.67
		L2447.93,2009.39z M1334.88,1832.65h93.61v-171.1h126.24c130.9,0,237.14-91.86,237.14-205.09c0-113.23-106.24-205.09-237.14-205.09
		h-219.85C1334.88,1445.19,1334.88,1639.02,1334.88,1832.65z M1428.49,1567.94v-222.96h126.24c71.08,0,128.77,49.91,128.77,111.48
		c0,61.57-57.68,111.48-128.77,111.48H1428.49z M2142.43,1416.45h82.15v412.71h-82.15v-46.42c-36.71,31.27-84.1,50.11-135.95,50.11
		c-115.95,0-209.95-94-209.95-209.95c0-115.95,94-209.95,209.95-209.95c51.86,0,99.44,18.84,135.95,50.11v-46.42V1416.45z
		 M2006.48,1501.32c67,0,121.58,54.38,121.58,121.58c0,67-54.38,121.58-121.58,121.58c-67,0-121.58-54.38-121.58-121.58
		C1884.9,1555.9,1939.28,1501.32,2006.48,1501.32z"/>
</g>
<g class="st0">
	<path class="st9" d="M2098.43,1864.29c-86.09-0.35-162.59-54.78-197.37-140.12c-30.17-74.04-10.42-168.06,45.75-226.08
		c46.12-47.64,102.59-69.34,167.57-70c79.85-0.81,159.72-0.17,239.58-0.15c-0.03-90.95-0.06-181.89-0.1-272.84
		c-5.93-2.78-7.5-8.52-9.69-13.95c-26.46-65.53-81.04-102.69-152.78-102.94c-103.87-0.36-207.75-0.1-311.62-0.1
		c-440.82,0-881.64-0.27-1322.46,0.32c-58.74,0.08-101.21-22.67-126.49-76.07c-2-4.22-4.19-8.07-8.75-9.93
		c-0.04,44.04-0.08,88.07-0.12,132.11h-0.1v100.66c-0.11,111.33-0.26,222.66-0.5,334c0,1.92,0.26,3.92,0.5,5.95v9.05
		c-0.12,0.51-0.26,1.02-0.45,1.52c0.13,0.44,0.2,0.93,0.2,1.46v40.48c0.11,0.33,0.18,0.66,0.25,0.99v9.03
		c-0.09,0.72-0.18,1.44-0.25,2.15v3.07c0,0.61-0.09,1.16-0.25,1.65c0.25,149.06,0.18,298.13,0.22,447.19
		c0,7.13,0.39,14.26,0.6,21.39c4.18,8.58,6.1,17.76,7.24,27.15c16.9,33.83,38.16,63.54,72.43,82.42
		c20.14,11.09,40.99,18.17,63.93,19.03c548.22,0,1096.44,0,1644.65,0c59.9-4.19,100.76-36.31,128.41-87.67
		c3.06-5.69,5.42-11.75,8.1-17.64c2.36-7.74,4.73-15.48,7.09-23.22c0.51-66.09,1.02-132.18,1.52-198.27
		C2269.84,1864.73,2184.13,1864.64,2098.43,1864.29z"/>
	<path class="st10" d="M2417,1825.31c-10.18,3.44-11.28,14.81-18.66,21.12c-12.61,10.79-25.62,19.01-42.8,18.49
		c-85.7-0.2-171.4-0.29-257.1-0.63c-86.09-0.35-162.59-54.78-197.37-140.12c-30.17-74.04-10.42-168.06,45.75-226.08
		c46.12-47.64,102.59-69.34,167.57-70c79.85-0.81,159.72-0.17,239.58-0.15c30.1,3.26,49.59,20.85,63.04,46.63
		C2417,1591.49,2417,1708.4,2417,1825.31z M2199.04,1728.06c32.52-33.11,38.48-92.79,17.98-135.79
		c-35.69-74.86-136.62-89.21-193.26-39.12c-32.57,24.91-43.87,59.03-43.32,98.61c0.69,49.84,34.54,96.63,82.62,113.46
		C2113.09,1782.73,2166.83,1768.04,2199.04,1728.06z"/>
	<path class="st10" d="M1087.79,696.38c-69.43-0.17-138.87-1.09-208.29-0.35c-106.93,1.15-213.94-4.27-320.78,2.96
		c-50.75,3.43-87.75,29.49-114.82,72.14c-6.37,10.04-8.89,22.66-16.17,32.16c0.11,0.66,0.09,1.38-0.12,2.15
		c-0.41,1.55-0.99,2.74-1.85,3.77c0.01,1.28,0.03,2.53-0.13,3.57c-0.57,3.67-1.22,7.34-1.83,11.01c-0.83,4.98-1.69,9.98-2.37,14.99
		c2.34,9.04-2.09,18.99,0.96,27.93c1.01,1.36,2.01,2.72,3.02,4.08c3.07,55.23,54.8,102.56,115.56,104.73
		c26.45,0.94,52.97,0.03,79.46-0.04c40.59-27.78,84.31-50.3,126.63-75.15c110.49-64.88,221.39-129.06,332.09-193.59
		c3.29-1.92,6.13-4.62,9.18-6.96C1087.87,698.7,1087.69,697.56,1087.79,696.38z"/>
	<path class="st11" d="M422.07,952.44c0.04-27.38,0.09-54.77,0.13-82.15c1.07,0.15,2.13,0.32,3.19,0.51
		c3.07,55.23,54.8,102.56,115.56,104.73c26.45,0.94,52.97,0.03,79.46-0.04c87.21-0.11,174.41-0.22,261.61-0.34
		c1.1,0.43,2.21,0.86,3.31,1.29c4.99,8.17,13.23,7.04,20.89,7.04c113.42,0.06,226.84,0.05,340.26,0c7.69,0,15.88,0.99,20.92-7.06
		l0.11-1.34c110.19,0.01,220.38,0.03,330.57,0.04c2.75,0.44,5.51,0.88,8.26,1.32c14.9,10.15,43.53,10.15,58.42,0
		c1.28-0.44,2.55-0.88,3.83-1.31c49.39,0.01,98.79,0.02,148.18,0.03c15.61,0,31.22,0,46.82-0.01c20.97-0.01,41.95-0.02,62.92-0.04
		c44.05,0.12,88.11,0.24,132.16,0.37c42.8,0.12,85.61,0.61,128.41,0.24c38.15-0.33,73.01,9.47,104.55,30.98
		c47.91,38.08,67.47,88.04,62.21,148.4c-5.93-2.78-7.5-8.52-9.69-13.95c-26.46-65.53-81.04-102.69-152.78-102.94
		c-103.87-0.36-207.75-0.1-311.62-0.1c-440.82,0-881.64-0.27-1322.46,0.32c-58.74,0.08-101.21-22.67-126.49-76.07
		C428.82,958.15,426.63,954.3,422.07,952.44z"/>
	<path class="st12" d="M2353.96,2109.8c-2.71,64.71-52.96,124.99-115.94,140.63c-20.14,5-40.1,5.39-60.6,5.38
		c-528.48-0.29-1056.95-0.37-1585.43,0.04c-41.49,0.03-79.39-7-112.16-34.48c-40.99-34.38-62.98-76.56-57.64-131.05
		c2.4-0.01,4.81-0.02,7.21-0.03c16.9,33.83,38.16,63.54,72.43,82.42c20.14,11.09,40.99,18.17,63.93,19.03
		c7.72,11.92,19.92,7.51,30.3,7.52c528.01,0.21,1056.03,0.18,1584.04,0.18c5.2,0,10.39-0.08,15.59-0.13
		c6.17-0.06,11.59-1.58,14.72-7.56c59.9-4.19,100.76-36.31,128.41-87.67c3.06-5.69,5.42-11.75,8.1-17.64c2.36,0,4.71,0,7.07,0
		c0,5.19,0,10.39,0,15.58C2348.93,2104.58,2348.91,2107.19,2353.96,2109.8z"/>
	<path class="st13" d="M2210.42,2191.74c-3.13,5.98-8.55,7.5-14.72,7.56c-5.2,0.05-10.39,0.13-15.59,0.13
		c-528.01,0.01-1056.03,0.03-1584.04-0.18c-10.38,0-22.58,4.4-30.3-7.52C1113.98,2191.74,1662.2,2191.74,2210.42,2191.74z"/>
	<path class="st13" d="M429.4,2090.29c-2.4,0.01-4.81,0.02-7.21,0.03c-0.01-9.06-0.02-18.12-0.03-27.19
		C426.34,2071.71,428.26,2080.9,429.4,2090.29z"/>
	<path class="st13" d="M2353.99,2086.42c-2.36,0-4.71,0-7.07,0c2.36-7.74,4.73-15.48,7.09-23.22
		C2354.01,2070.94,2354,2078.68,2353.99,2086.42z"/>
	<path class="st14" d="M1816.79,975.17c-49.39-0.01-98.79-0.02-148.18-0.03c-62.12-107.88-124.07-215.85-186.5-323.55
		c-12.13-20.93-27.25-24.03-49.44-11.42c-37.21,21.14-74.11,42.81-111.15,64.24c-23.01,13.32-46.51,25.86-68.91,40.12
		c-24.97,15.89-25.5,40.73-2.4,54.71c12.26,7.42,23.2,4.06,34.62-2.6c47.06-27.41,94.51-54.17,141.47-81.75
		c12.36-7.26,19.15-5.03,26.23,7.39c48.19,84.47,96.98,168.61,145.58,252.85c-110.19-0.01-220.38-0.03-330.57-0.04
		c-26.85-39.1-66.01-61.5-108.94-77.38c-61.86-22.87-125.54-21.35-184.8,4.46c-35.19,15.33-68.12,39.91-91.75,72.97
		c-87.2,0.11-174.41,0.23-261.61,0.34c40.59-27.78,84.31-50.3,126.63-75.15c110.49-64.88,221.39-129.06,332.09-193.59
		c3.29-1.92,6.13-4.62,9.18-6.96c2.33-1.3,4.67-2.61,7-3.91c55.36-31.85,110.82-63.53,166.05-95.6
		c65.28-37.91,130.13-76.54,195.6-114.11c35.39-20.31,70.67-10.06,92.04,26.25c30.39,51.64,59.98,103.74,89.92,155.64
		c-0.43,1.97,0.36,2.72,2.31,2.31c1.37,0.53,2.74,1.06,4.11,1.59c16.45,39,38.95,74.53,62.7,109.35
		c7.56,19.87,18.05,38.06,31.27,54.69c2.15,4.68,3.99,9.55,6.51,14.02C1769.43,891.77,1793.13,933.46,1816.79,975.17z"/>
	<path class="st10" d="M2291.66,1006.71c-31.54-21.51-66.41-31.31-104.55-30.98c-42.8,0.37-85.61-0.12-128.41-0.24
		c-14.35-52.73-29.81-105.19-42.67-158.28c-9.83-40.56-24.94-79.75-31.06-121.23c46.08-0.04,92.16-0.14,138.24-0.11
		c78.86,0.05,136.27,42.44,158.58,102.83c6.78,18.35,9.17,37.6,9.81,56.21C2293.35,905.45,2291.86,956.1,2291.66,1006.71z"/>
	<path class="st15" d="M1984.96,695.99c6.12,41.48,21.23,80.67,31.06,121.23c12.86,53.09,28.33,105.55,42.67,158.28
		c-44.05-0.12-88.1-0.25-132.16-0.37c-5.1-16.01-11.03-31.82-15.12-48.08c-12.29-48.81-23.26-97.96-35.92-146.67
		c-8.32-32-19.52-37.87-50.92-29.74c-38.88,10.07-77.67,20.44-116.51,30.68c-23.75-34.81-46.26-70.34-62.7-109.35
		c57.24-15.62,114.32-31.86,171.78-46.62c33.27-8.55,65.53-22.3,101.18-20.03c23.86,1.51,43.85,16.63,50.82,39.83
		C1974.25,662.13,1976.88,679.92,1984.96,695.99z"/>
	<path class="st16" d="M1095.32,695.88c-2.33,1.3-4.67,2.6-7,3.91c-0.45-1.09-0.63-2.23-0.54-3.4
		C1090.3,696.21,1092.81,696.05,1095.32,695.88z"/>
	<path class="st17" d="M1641.25,670.37c-1.95,0.41-2.74-0.34-2.31-2.31C1639.85,668.69,1640.62,669.46,1641.25,670.37z"/>
	<path class="st13" d="M2353.96,2109.8c-5.05-2.62-5.03-5.22,0.03-7.8C2353.98,2104.6,2353.97,2107.2,2353.96,2109.8z"/>
	<path class="st18" d="M2023.75,1553.16c56.64-50.09,157.57-35.74,193.26,39.12c20.5,43,14.54,102.68-17.98,135.79
		c-6.83,1.83-13.77,3.33-20.48,5.55c-94.51,31.27-183.58-47.5-163.51-144.77C2017.52,1576.85,2020.83,1565.05,2023.75,1553.16z"/>
	<path class="st19" d="M2023.75,1553.16c-2.92,11.89-6.23,23.7-8.71,35.68c-20.07,97.27,69,176.05,163.51,144.77
		c6.7-2.22,13.65-3.72,20.48-5.55c-32.21,39.98-85.95,54.67-135.99,37.16c-48.08-16.82-81.93-63.62-82.62-113.46
		C1979.88,1612.19,1991.18,1578.06,2023.75,1553.16z"/>
	<path class="st10" d="M425.4,870.8c-1.06-0.19-2.13-0.36-3.19-0.51c-0.42-1.22-0.36-2.41,0.17-3.58
		C423.39,868.07,424.4,869.44,425.4,870.8z"/>
	<path class="st20" d="M1598.11,975.14c-48.6-84.24-97.38-168.38-145.58-252.85c-7.09-12.42-13.87-14.65-26.23-7.39
		c-46.96,27.58-94.4,54.34-141.47,81.75c-11.42,6.65-22.36,10.02-34.62,2.6c-23.1-13.98-22.58-38.82,2.4-54.71
		c22.41-14.26,45.9-26.81,68.91-40.12c37.04-21.44,73.95-43.1,111.15-64.24c22.19-12.61,37.31-9.51,49.44,11.42
		c62.43,107.7,124.38,215.67,186.5,323.55c-1.28,0.44-2.55,0.88-3.83,1.31c-19.47,0-38.94,0-58.42,0
		C1603.61,976.02,1600.86,975.58,1598.11,975.14z"/>
	<path class="st20" d="M882.04,975.15c23.63-33.06,56.56-57.64,91.75-72.97c59.26-25.82,122.94-27.33,184.8-4.46
		c42.94,15.87,82.09,38.27,108.94,77.38c0.01,0-0.11,1.34-0.11,1.34c-127.36,0-254.72,0.01-382.08,0.01
		C884.24,976.01,883.14,975.58,882.04,975.15z"/>
	<path class="st21" d="M1708.06,781.31c38.83-10.24,77.63-20.61,116.51-30.68c31.39-8.13,42.6-2.26,50.92,29.74
		c12.66,48.71,23.63,97.86,35.92,146.67c4.09,16.27,10.03,32.07,15.12,48.08c-20.97,0.01-41.95,0.02-62.92,0.04
		c-11.98-44.23-23.69-88.54-36.06-132.67c-6.18-22.03-14.85-27.07-35.66-18.66c-17.1,6.92-35.2,7.52-52.55,12.16
		C1726.12,819.37,1715.62,801.18,1708.06,781.31z"/>
	<path class="st15" d="M1739.34,836c17.36-4.64,35.45-5.24,52.55-12.16c20.81-8.41,29.48-3.37,35.66,18.66
		c12.37,44.12,24.08,88.43,36.06,132.67c-15.61,0-31.21,0-46.82,0.01c-23.66-41.71-47.36-83.4-70.94-125.15
		C1743.32,845.54,1741.49,840.68,1739.34,836z"/>
	<path class="st16" d="M885.35,976.44c127.36,0,254.72-0.01,382.08-0.01c-5.05,8.05-13.24,7.06-20.92,7.06
		c-113.42,0.05-226.84,0.05-340.26,0C898.58,983.48,890.34,984.62,885.35,976.44z"/>
	<path class="st16" d="M1606.37,976.45c19.47,0,38.94,0,58.42,0C1649.89,986.6,1621.26,986.61,1606.37,976.45z"/>
</g>
<g>
	<path class="st22" d="M2228.8,1703.76c-5,37.17-19.47,71.56-33.79,105.53c-18.8,44.59-41.54,87.33-68.28,128.04
		c-42.88,65.29-92.65,123.98-151.77,175.32c-49.2,42.73-101.53,80.53-158.92,111.02c-91.59,48.66-188.82,79.97-291.9,93.74
		c-14.06,1.88-29.29-1.81-42.53,6.1c-43.69,0-87.39,0-131.08,0c-2.5-4.7-6.74-3.27-10.64-3c-83.94-6.92-164.53-27.31-242.26-59.61
		c-91.88-38.18-174.74-90.41-248.53-157.24c-89.88-81.4-158.24-178.03-206.69-288.96c-14.39-32.94-29.55-65.58-36.76-101.19
		c-0.75-3.72-0.15-6.59,0.27-9.85c0.54-2.91,0.86-5.75-2.62-7.21c-6.08-9.91-8.4-20.13-8.15-32.25c0.29-14.07-8.55-26.6-10.88-41.17
		c-9.46-59.14-13.46-118.32-9.67-178.06c8.65,15.95,7.53,34.02,10.23,51.08c12.82,80.84,37.48,158.32,73.59,231.1
		c51.5,103.8,121.97,193.76,210.51,269.62c65.02,55.7,136.43,100.9,214.78,134.08c128.11,54.26,261.62,77.81,401.31,65.81
		c68.38-5.87,135-18.42,199.77-39.91c84.35-27.99,162.66-68.6,234.25-121.37c58.56-43.16,110.23-93.67,155.98-150.31
		c40.1-49.64,73.8-102.93,101.76-160.53c35.48-73.08,60.04-149.03,74.05-228.86c3.61-20.54,2.77-41.88,10.61-61.67
		c1.15,29.54,2.36,59.15-0.57,88.59c-3.24,32.53-3.27,65.6-14.2,97.04c-2.13-0.52-2.87,0.43-2.64,2.45
		c6.53,24.66-4.88,46.51-10.81,69.22c-0.44,1.67-0.6,3.42-0.89,5.13C2229.84,1698.25,2225.17,1698.98,2228.8,1703.76z"/>
	<path class="st23" d="M1339.89,2320.52c3.91-0.27,8.14-1.7,10.64,3c-3.54,0-7.09,0-10.63,0
		C1339.9,2322.53,1339.9,2321.52,1339.89,2320.52z"/>
	<path class="st24" d="M2261.46,1434.04c-7.85,19.79-7.01,41.13-10.61,61.67c-14.01,79.83-38.58,155.78-74.05,228.86
		c-27.96,57.6-61.66,110.89-101.76,160.53c-45.75,56.64-97.43,107.15-155.98,150.31c-71.6,52.77-149.91,93.38-234.25,121.37
		c-64.77,21.5-131.39,34.04-199.77,39.91c-139.69,12-273.2-11.55-401.31-65.81c-78.35-33.19-149.77-78.38-214.78-134.08
		c-88.54-75.86-159.01-165.82-210.51-269.62c-36.11-72.78-60.77-150.26-73.59-231.1c-2.71-17.06-1.58-35.13-10.23-51.08
		c-0.52-0.98-0.79-2.03-0.79-3.14c0.1-2.53,0.21-5.07,0.31-7.6c0.2-9.33,0.4-18.65,0.6-27.98c0.86-1.17,1.72-2.33,2.57-3.5
		c-5.12-15.31-5.28-31.42-4.95-47.07c1.49-72.01,7.9-143.3,26.74-213.41c33.79-125.75,92.55-237.86,177.14-336.68
		c85.87-100.31,189.81-175.98,310.85-228.37c54.42-23.55,111.03-41.25,169.07-51.96c39.43-7.27,79.91-10.2,120.25-13.15
		c38.46-2.81,76.19,0.92,114.04,2.18c39.36,1.31,78.53,9.26,117.16,18.06c61.24,13.94,120.54,33.54,176.97,61.35
		c73.16,36.07,141.22,79.69,200.69,135.97c-0.13,2.03,0.77,3,2.84,2.75c17.99,17.98,35.98,35.97,53.97,53.95
		c-0.24,2.06,0.77,2.93,2.74,2.9c67.34,74.42,119.76,157.82,156.69,251.49c20.17,51.16,34.56,103.69,46.4,156.97
		c8.34,37.54,10.45,76.22,13.49,114.61C2264.61,1352.94,2259.83,1393.49,2261.46,1434.04z M2056.25,1484.09
		c3.44-1.11,10.96,2.4,7.44-6.58c1.02-12.02,2.04-24.04,3.06-36.06c0.97-1.19,1.95-2.37,2.92-3.56
		c-2.65-25.49,6.87-49.92,6.48-75.25c-0.8-52.59-9.98-104.08-19.19-155.65c-5.46-30.54-16.62-59.17-26.32-88.33
		c-0.75-0.92-1.5-1.84-2.25-2.76c-38.17-107.67-105.56-194.24-192.51-266.71c-0.36-4.52-3.07-6.25-7.31-6.17
		c-28.48-23.57-58.56-44.73-91.87-61.04c0.06-5.69-2.92-4.85-6.39-2.98c-66.1-38.71-137.31-62.14-213.27-71.37
		c-0.77-4.01-1.54-8.02-6.76-3.55c-7.19,0.02-14.38,0.03-21.58,0.05c-0.78-4.1-1.62-8.11-6.83-3.45
		c-5.87,0.17-11.96,1.48-17.56,0.34c-47.68-9.66-94.75,0.85-142.05,3.8c-1.17,0.97-2.34,1.95-3.51,2.92
		c-16.59,0.77-32.72,3.77-49.07,7.04c-44.45,8.88-87.6,22.73-127.7,42.4c-90.52,44.39-171.3,102.14-234.52,182.7
		c-104.52,133.18-157.37,282.53-145.02,452.62c1.2,16.49,3.67,34.33,4.46,50.05c1.22,24.22,7.36,47.17,12.34,69.58
		c22.22,100.05,70.74,187.82,135.69,266.47c25.23,30.55,51.93,60.06,85.19,82.55c0.49,0.74,1.14,1.3,1.93,1.69
		c28.19,26.29,60.75,46.3,93.9,65.47c75.93,43.92,158.16,68.27,244.7,80.23c42.9,5.93,85.77,2.09,128.65,3.17
		c21.66,0.54,42.41-6.68,63.89-8.94c26.04-2.74,51.5-12,76.92-19.42c59.33-17.33,114.17-44.43,165.99-77.87
		c0.97-0.81,1.94-1.62,2.91-2.42c2.33-1.51,4.65-3.02,6.98-4.53c1.21-0.87,2.43-1.74,3.64-2.6c14.71-7.92,27.79-18.06,39.92-29.48
		c0.96-0.96,1.92-1.92,2.87-2.88c1-1.42,1.7-3.25,3.04-4.2c50.3-35.64,88.15-83.15,124.01-132.16
		c38.28-52.31,64.41-111.05,83.44-172.7C2049.91,1531.82,2060.28,1509.14,2056.25,1484.09z"/>
	<path class="st23" d="M2228.8,1703.76c-3.62-4.79,1.05-5.52,3.57-7.3C2238.22,1702.34,2233.27,1702.94,2228.8,1703.76z"/>
	<path class="st23" d="M603.3,1696.47c3.47,1.46,3.15,4.29,2.62,7.21C601.06,1702.72,597.69,1701.23,603.3,1696.47z"/>
	<path class="st25" d="M574.12,1434.25c-0.1,2.53-0.2,5.07-0.31,7.6C571.16,1439.2,571.35,1436.67,574.12,1434.25z"/>
	<path class="st23" d="M577.29,1402.77c-0.86,1.17-1.72,2.33-2.57,3.5C575.57,1405.1,576.43,1403.94,577.29,1402.77z"/>
	<path class="st23" d="M2244.06,1622.11c-0.24-2.02,0.51-2.98,2.64-2.45C2245.82,1620.48,2244.94,1621.3,2244.06,1622.11z"/>
	<path class="st23" d="M2044.81,789.31c-1.97,0.03-2.98-0.85-2.74-2.9C2042.98,787.37,2043.9,788.34,2044.81,789.31z"/>
	<path class="st23" d="M1988.1,732.45c-2.08,0.26-2.97-0.72-2.84-2.75C1986.2,730.62,1987.15,731.54,1988.1,732.45z"/>
	<path class="st26" d="M2056.25,1484.09c0.76-4.13,3.64-5.87,7.43-6.58C2067.21,1486.49,2059.68,1482.98,2056.25,1484.09z"/>
	<path class="st26" d="M1488.7,704.14c-3.08,0.44-5.86,0.28-6.83-3.45C1487.08,696.04,1487.92,700.04,1488.7,704.14z"/>
	<path class="st26" d="M1517.04,707.65c-3.1,0.43-5.84,0.16-6.77-3.55C1515.5,699.62,1516.27,703.64,1517.04,707.65z"/>
	<path class="st26" d="M1835.88,849.2c-5.08,1.07-6.88-1.73-7.31-6.17C1832.81,842.96,1835.52,844.68,1835.88,849.2z"/>
	<path class="st26" d="M1736.7,782c-2.72,0.27-5.64,0.98-6.39-2.98C1733.77,777.15,1736.76,776.31,1736.7,782z"/>
	<path class="st26" d="M2066.74,1441.46c0.97-1.19,1.95-2.37,2.92-3.56C2068.69,1439.09,2067.72,1440.27,2066.74,1441.46z"/>
	<path class="st26" d="M2030.63,1118.67c-1.82-0.05-2.93-0.67-2.25-2.76C2029.13,1116.83,2029.88,1117.75,2030.63,1118.67z"/>
	<path class="st26" d="M1000.12,1861.17c1.86-0.84,2.3-0.03,1.94,1.69C1001.25,1862.47,1000.61,1861.91,1000.12,1861.17z"/>
	<path class="st26" d="M1829.55,1866.47c-0.21-2.12,0.92-2.91,2.87-2.89C1831.46,1864.55,1830.51,1865.51,1829.55,1866.47z"/>
	<path class="st26" d="M1785.99,1898.55c0.63-1.69,1.37-3.22,3.64-2.6C1788.41,1896.81,1787.2,1897.68,1785.99,1898.55z"/>
	<path class="st26" d="M1776.09,1905.5c0.05-1.92,0.72-3.09,2.92-2.43C1778.04,1903.88,1777.07,1904.69,1776.09,1905.5z"/>
	<path class="st26" d="M1322.26,704.84c-1.17,0.97-2.34,1.95-3.51,2.92C1319.92,706.78,1321.09,705.81,1322.26,704.84z"/>
	<path class="st25" d="M1414.94,1961.23c-63.27,7.66-124.29-6.55-183.46-25.97c-85.76-28.16-162.36-73.45-229.16-135.01
		c-51.69-47.63-92.31-103.73-125.85-164.63c-19.17-34.82-35.08-72.15-46.76-110.1c-5.89-19.13-6.94-41.26-11.49-61.33
		c-9.49-41.89-10.9-84.01-9.26-126.18c4.69-120.95,40.05-231.84,109.86-331.79c54.03-77.35,122.5-138.38,203.96-184.3
		c59.98-33.82,125.11-54.53,193.02-68.35c42.73-8.7,84.97-4.09,127.38-6.26c15.77-0.81,32,8.67,47.32-2.18
		c31.14,11.16,63.96,15.76,95.64,25.37c82.11,24.92,157.2,62.93,222.17,118.36c75.62,64.52,135.62,141.34,173.04,234.91
		c27.09,67.74,42.45,136.94,43.03,210.21c0.29,36.77-1.61,73.46-1.67,110.19c-0.03,19.26-9.04,38.48-13.86,57.75
		c-23.33,93.33-66.97,175.75-129.39,249.12c-67.27,79.08-149.76,136.07-245.74,173.33
		C1563.77,1951.52,1491.42,1969.24,1414.94,1961.23z M1332.77,1816.9c-0.09,14.16-0.47,28.33-0.2,42.48
		c0.36,18.83,14.19,34.43,32.54,34.82c33.04,0.71,66.13,0.89,99.16-0.14c22.17-0.69,30.33-10.1,35.85-31.02
		c4.35-16.47,1.99-32.71,2.27-49.08c2.77-13.98-3.72-28.92,4.4-42.35c27.81-1.43,54.19-9.22,80.1-18.62
		c85.57-31.04,133.19-100.92,127.83-187.04c0.21-8.12,0.28-16.25,0.65-24.37c0.85-18.37-0.5-36.43-6.85-53.88
		c-12.74-34.96-39.32-53.67-73.89-63.04c9.84-1.39,19.88-1.98,29.49-4.32c30.22-7.34,52.89-22.81,62.49-54.81
		c10.56-35.21,15.29-70.76,12.93-107.35c3.04-47.84-1.14-95.27-10.42-142.1c-13.6-68.61-45.44-125.76-107.15-163.08
		c-30.04-18.17-62.59-30.03-97.03-35.24c-18.69-2.83-23.77-10.76-22.48-28.79c1.71-24.08,0.74-48.38,0.31-72.58
		c-0.39-22.15-14.49-36.63-36.49-36.97c-32.47-0.5-64.95-0.56-97.42,0.01c-23.08,0.41-35.94,13.96-36.16,36.76
		c-0.26,27.15-1.35,54.37,0.14,81.44c0.95,17.25-5.97,22.93-21.66,27.17c-75.13,20.32-135.06,60.6-167.74,134.21
		c-21.62,48.7-26.82,101.33-29.35,153.19c-3.44,70.65-0.5,141.61-0.3,212.44c-0.35,41.07-0.7,81.91,5.75,122.92
		c11.51,73.17,42.11,133.81,104.67,176.03c32.07,21.64,68.08,33.91,105.1,43.66C1330.48,1783.81,1327.21,1800.66,1332.77,1816.9z"/>
	<path class="st24" d="M1113.79,1424.65c-0.2-70.83-3.14-141.79,0.3-212.44c2.53-51.85,7.72-104.48,29.35-153.19
		c32.68-73.61,92.61-113.89,167.74-134.21c15.69-4.24,22.61-9.93,21.66-27.17c-1.49-27.07-0.4-54.29-0.14-81.44
		c0.22-22.79,13.08-36.35,36.16-36.76c32.46-0.57,64.95-0.51,97.42-0.01c22.01,0.34,36.11,14.82,36.49,36.97
		c0.42,24.2,1.4,48.5-0.31,72.58c-1.28,18.03,3.79,25.96,22.48,28.79c34.44,5.21,66.99,17.07,97.03,35.24
		c61.71,37.32,93.55,94.47,107.15,163.08c9.28,46.84,13.47,94.26,10.43,142.1c-2.13,11.36-4.23,22.74-6.4,34.11
		c-7.09,37.2-26.39,64.09-64.73,73.15c-13.56,3.2-27.5,5.47-41.78,5.42c-81.35-0.28-162.7,0.33-244.05-0.49
		c-16.52-0.17-23.91,3.44-21.8,21.12c1.39,11.63,0.36,23.54,0.42,35.33c-1.77,22.99,4.33,45.24,6.18,67.81
		c3.08,37.53,24.62,64.19,59.39,67.22c44.11,3.84,68.51-13.62,76.44-54.8c3.68-19.13,8.09-37.63,21.61-53.08
		c10.9-12.45,26.57-17.04,38.94-26.81l1.19-0.16l1.2,0.11c3.96,0.2,8.1,1.08,10.95-2.91c19.17,0.16,38.34,0.33,57.51,0.49
		c34.57,9.37,61.15,28.08,73.89,63.04c6.36,17.45,7.7,35.51,6.85,53.88c-0.37,8.12-0.44,16.25-0.64,24.37
		c-4.91,2.3-5.23,6.92-6.71,11.48c-17.27,53.17-52.06,90.21-103.11,112.98c-26.97,12.03-54.61,20.5-83.8,24.87
		c-5.93,0.89-16.96-0.59-17.33,8.29c-0.66,15.96-4.95,32.51,3.03,48.04c-8.12,13.42-1.63,28.37-4.4,42.35
		c-9.66,18.82-25.1,25.55-46.01,24.64c-26.35-1.14-52.85-1.44-79.16,0.1c-19.86,1.17-33.95-5.75-44.45-21.81
		c-5.56-16.24-2.28-33.09-3.46-49.64c5.48-9.29,2.1-19.62,3.54-29.35c2.86-19.35-4.72-26.92-24.26-31.78
		c-108-26.89-175.38-106.75-189.23-217.31C1116.66,1467.39,1120.79,1445.53,1113.79,1424.65z M1364.42,1211.16
		c35.25,0.02,70.49,0.04,105.74,0.04c29.49,0.01,29.49,0,25.89-28.29c7.35-24.61,3.7-48.17-5.74-71.58
		c-10.11-25.07-31.1-32.94-54.94-34.15c-24.71-1.26-48.09,5.93-59.49,29.69C1360.09,1139.78,1356.81,1175.14,1364.42,1211.16z"/>
	<path class="st22" d="M1634.62,1424.67c-19.17-0.16-38.34-0.33-57.51-0.49c-3.99-0.29-7.99-0.64-10.95,2.92l-1.2-0.11
		c0,0-1.19,0.16-1.2,0.16c-67.52-0.11-135.04-0.23-202.56-0.34c-0.05-11.79,0.97-23.7-0.42-35.33c-2.11-17.68,5.28-21.28,21.8-21.12
		c81.34,0.82,162.7,0.21,244.05,0.49c14.28,0.05,28.22-2.22,41.78-5.42c38.34-9.06,57.64-35.95,64.73-73.15
		c2.17-11.36,4.27-22.74,6.4-34.11c2.36,36.6-2.37,72.15-12.93,107.36c-9.6,32-32.28,47.47-62.49,54.81
		C1654.5,1422.69,1644.46,1423.28,1634.62,1424.67z"/>
	<path class="st22" d="M1113.79,1424.65c7,20.88,2.87,42.74,5.56,64.18c13.85,110.56,81.23,190.42,189.23,217.31
		c19.54,4.86,27.13,12.43,24.26,31.78c-1.44,9.73,1.93,20.06-3.54,29.35c-37.03-9.76-73.04-22.02-105.1-43.67
		c-62.55-42.22-93.16-102.86-104.67-176.03C1113.09,1506.56,1113.43,1465.72,1113.79,1424.65z"/>
	<path class="st22" d="M1506.78,1771.62c-7.97-15.52-3.69-32.08-3.03-48.04c0.37-8.88,11.4-7.41,17.33-8.29
		c29.19-4.36,56.83-12.84,83.8-24.87c51.05-22.77,85.83-59.82,103.11-112.98c1.48-4.56,1.81-9.18,6.71-11.48
		c5.35,86.12-42.26,156-127.83,187.04C1560.98,1762.4,1534.59,1770.19,1506.78,1771.62z"/>
	<path class="st22" d="M1332.77,1816.9c10.5,16.07,24.59,22.98,44.45,21.81c26.31-1.55,52.81-1.25,79.16-0.1
		c20.9,0.91,36.35-5.82,46.01-24.64c-0.27,16.37,2.08,32.61-2.27,49.08c-5.52,20.92-13.68,30.33-35.85,31.02
		c-33.03,1.03-66.12,0.85-99.16,0.14c-18.35-0.4-32.18-15.99-32.54-34.82C1332.3,1845.23,1332.68,1831.06,1332.77,1816.9z"/>
	<path class="st25" d="M1361.2,1426.82c67.52,0.11,135.03,0.23,202.56,0.34c-12.36,9.77-28.04,14.36-38.93,26.81
		c-13.52,15.45-17.93,33.95-21.61,53.08c-7.93,41.18-32.33,58.64-76.44,54.8c-34.77-3.03-56.3-29.68-59.39-67.22
		C1365.53,1472.06,1359.43,1449.81,1361.2,1426.82z"/>
	<path class="st25" d="M1496.05,1182.91c3.61,28.29,3.61,28.29-25.89,28.29c-35.25-0.01-70.49-0.03-105.74-0.04
		c0.93-17.4,0.3-35.45,10.64-50.51c18.79-27.37,47.07-31.28,76.6-26.36C1477.95,1138.66,1490.85,1157.92,1496.05,1182.91z"/>
	<path class="st22" d="M1496.05,1182.91c-5.2-24.99-18.1-44.25-44.38-48.63c-29.53-4.91-57.81-1.01-76.6,26.36
		c-10.34,15.06-9.71,33.11-10.64,50.51c-7.61-36.02-4.33-71.38,11.46-104.28c11.4-23.76,34.78-30.95,59.49-29.69
		c23.84,1.22,44.83,9.08,54.94,34.15C1499.75,1134.74,1503.4,1158.31,1496.05,1182.91z"/>
	<path class="st26" d="M1566.16,1427.1c2.96-3.56,6.97-3.21,10.95-2.92C1574.26,1428.18,1570.12,1427.3,1566.16,1427.1z"/>
</g>
</svg>
