<?xml version="1.0" encoding="utf-8"?>
<!-- Generator: Adobe Illustrator 27.3.1, SVG Export Plug-In . SVG Version: 6.00 Build 0)  -->
<svg version="1.1" id="Layer_1" xmlns="http://www.w3.org/2000/svg" xmlns:xlink="http://www.w3.org/1999/xlink" x="0px" y="0px"
	 viewBox="0 0 2834.65 2834.65" style="enable-background:new 0 0 2834.65 2834.65;" xml:space="preserve">
<style type="text/css">
	.st0{display:none;}
	.st1{display:inline;fill-rule:evenodd;clip-rule:evenodd;fill:#108DE8;}
	.st2{display:inline;fill-rule:evenodd;clip-rule:evenodd;fill:#FFFFFF;}
	.st3{display:inline;fill-rule:evenodd;clip-rule:evenodd;fill:#79BBE7;}
	.st4{fill:#0061AE;}
	.st5{fill-rule:evenodd;clip-rule:evenodd;fill:url(#SVGID_1_);}
</style>
<g id="Layer_x0020_1" class="st0">
	<path class="st1" d="M413.82,1020.07c-131.43,12.43-237.93,82.02-302.62,189.43c-42.04,69.79-61.79,152.48-55.7,237.34
		c14.91,207.6,193.32,383.36,421.67,365.27c204.88-16.24,373.93-200.55,356.61-427.24c-6.34-83-35.19-151.4-81.43-213.16
		c-20.94-27.96-25.07-28.42-46.93-51.31c-27.11-28.4-84.45-61-121.03-75.42C535.33,1025.62,472.86,1014.49,413.82,1020.07
		L413.82,1020.07z"/>
	<path class="st2" d="M218.68,1300.2c-4.98,14.39-2.02,174.35-2.02,204.02c0,32.1-6.34,42.12,43.88,59.3
		c132.96,45.47,264.63-108.71,396.84-32.42c6.13,3.53,13.59,10.78,15.34-0.93l0.05-205.78c0.01-22.14,1.99-29.07-12.69-39.29
		c-118.31-82.42-246.41,58.56-366.46,42.74C249.2,1321.99,230.8,1299.33,218.68,1300.2L218.68,1300.2z"/>
	<path class="st1" d="M1132.14,1617.43c51.83,3.7,112.2-36.49,133.48-59.51c73.89-79.97,75.67-195.68,1.29-279.42
		c-27.7-31.18-92.55-65.64-133.91-60.82l-149.38,0.11l-0.04,399.13L1132.14,1617.43z M1067.49,1530.95c11,1.91,56.19,1.2,68.61,0.06
		c102.05-9.33,138.09-148.86,52.3-207.31c-14.24-9.71-30.08-17.44-50.87-19.75c-11.38-1.27-60.01-2.06-70.09-0.24L1067.49,1530.95
		L1067.49,1530.95z"/>
	<path class="st1" d="M2440.53,1618.17l84.97-0.04l0.09-86.03l168.6,0.03l0.49,86.01l84.93,0.01c0.06-47.8,0.02-95.23,0.02-142.64
		c0-42.71,3.59-96.18-6.95-134.93c-17.82-65.58-80.18-123.74-162.25-124.06c-82.95-0.32-143.16,57.67-162.39,122.29
		c-11.38,38.25-7.58,93.08-7.58,135.18C2440.47,1521.98,2439.98,1570.22,2440.53,1618.17L2440.53,1618.17z M2525.58,1445.56
		l169.03,0.07c0.41-36.9,4.37-72.76-12.19-101.03c-11.85-20.22-36.84-41.39-71.94-41.53c-35.81-0.15-59.69,20.17-72.46,41.12
		C2521.27,1371.67,2525.06,1409.5,2525.58,1445.56z"/>
	<path class="st1" d="M1468.64,1618.08l84.68,0.07c0.05-17.96-2.27-72.99,0.82-86.04l167.96,0.02l0.6,85.96l84.79,0.08
		c-0.44-47.66-0.04-95.26-0.04-142.66c0-40.67,3.77-98.93-6.89-134.98c-48.53-164.19-274.43-165.35-324.57-1.64
		c-11.36,37.08-7.48,93.81-7.48,135.11C1468.51,1521.65,1467.42,1570.59,1468.64,1618.08L1468.64,1618.08z M1553.37,1445.55
		l169.24,0.09c0.35-36.36,4.33-72.9-12.27-101.11c-30.38-51.64-107.63-59.07-144.39-0.25
		C1549.15,1371.17,1552.82,1410.15,1553.37,1445.55L1553.37,1445.55z"/>
	<path class="st1" d="M1956.54,1373.58l-1.16,59.62c0,49.99-2.49,143.24,0.18,183.8l83.04,0.04c1.93-28.43-3-231.3,2.26-237.76
		c0.02-39.42,41.12-76.08,82.69-76.23c25.54-0.1,44.15,10.3,57.71,22.63c10.58,9.63,26.76,31.58,26.46,53.81
		c3.89,2.19,0.82,213.8,2.04,237.49l83.13,0.06l-0.66-242.25c2.08-18.98-9.35-48.32-16.68-63.21
		c-61.54-125.08-238.17-126.74-301.46-2.16C1966.66,1324.03,1954.79,1354.17,1956.54,1373.58z"/>
	<path class="st3" d="M1132.14,1617.43l-148.57-0.5l0.04-399.13l149.38-0.11c-2.72-3.8-65.04-1.53-73.77-1.53
		c-21.73,0-56.04-2.05-76.24,0.32c-1.91,6.36-2.69,391.47-0.13,401.85c13.75,1.77,109.61,0.4,139.92,0.48l8.33-0.88
		C1131.36,1617.86,1131.8,1617.6,1132.14,1617.43L1132.14,1617.43z"/>
	<path class="st3" d="M2207.72,1379.5c0.89,32.65-1.77,227.21,1.28,238.88l84.64,0.37c2.21-9.35,0.85-161.06,0.85-184.03
		c0-10.98,2.94-54.11-2.27-59.92l0.66,242.25l-83.13-0.06C2208.53,1593.29,2211.6,1381.68,2207.72,1379.5L2207.72,1379.5z"/>
	<path class="st3" d="M2040.86,1379.29c-5.26,6.46-0.33,209.33-2.26,237.76l-83.04-0.04c-2.66-40.56-0.18-133.81-0.18-183.8
		l1.16-59.62c-4.72,2.05-2.61,108.32-2.61,121.58c0,19.31-2.3,112.19,1.01,123.26l84.6,0.31L2040.86,1379.29L2040.86,1379.29z"/>
</g>
<g id="Layer_x0020_1_00000163771617593982936790000000216729778176873395_">
	<path class="st4" d="M2077.77,1472.1h95.15v327.17h-95.15V1472.1z M1843.61,1799.27v-225.61c0-18.46-0.33-36.17-0.98-53.21
		c-0.64-16.95-1.51-33.03-2.83-48.35h87.23l3.47,58.55c8.26-20.09,21.51-35.29,39.65-45.62c18.03-10.32,40.62-15.42,67.56-15.42
		h2.82l-0.33,85.92c-5.75-0.43-9.99-0.76-12.82-0.98c-2.94-0.22-5.53-0.33-7.82-0.33c-24.88,0-44.32,6.08-58.32,18.15
		c-14.12,12.05-21.19,28.89-21.19,50.29v176.62H1843.61L1843.61,1799.27z M1699.75,1472.1h95.15v327.17h-95.15V1472.1z
		 M1545.57,1799.27l-3.14-46.71c-11.73,17.6-25.84,30.86-42.36,39.76c-16.5,8.9-35.18,13.36-56.05,13.36
		c-39.64,0-71.79-15.54-96.56-46.6c-24.66-31.07-37.03-72.24-37.03-123.28c0-51.38,12.06-92.55,36.27-123.39
		c24.22-30.85,56.27-46.27,96.12-46.27c21.61,0,40.52,4.23,56.59,12.6c16.19,8.37,30.08,21.18,41.72,38.34v-187.14h94.49v403.52
		c0,16.52,0.22,29.98,0.75,40.2c0.55,10.31,1.42,18.9,2.4,25.63H1545.57z M1406.86,1636.34c0,33.78,5.87,59.96,17.49,78.53
		s28.02,27.8,48.98,27.8c21.4,0,38.46-9.45,50.95-28.45s18.79-44.97,18.79-77.88c0-33.03-6.3-59.2-18.79-78.21
		c-12.49-19.11-29.55-28.67-50.95-28.67c-20.96,0-37.36,9.33-48.98,28.13C1412.73,1576.38,1406.86,1602.67,1406.86,1636.34z
		 M957.2,1799.27v-264.39c0-9.33-0.22-19.1-0.76-29.32c-0.53-10.2-1.4-21.39-2.38-33.46h90.59l1.95,49.1
		c12.28-19.77,26.94-34.22,43.78-43.34c16.83-9.12,37.47-13.69,61.91-13.69c36.05,0,62.78,10.22,80.26,30.75
		c17.48,20.41,26.29,51.69,26.29,93.73v210.61h-93.53v-197.58c0-24.44-4.23-41.92-12.6-52.57c-8.36-10.54-21.94-15.86-40.83-15.86
		c-18.26,0-33.03,5.87-44.11,17.7c-11.19,11.73-16.72,27.38-16.72,46.93v201.38H957.2L957.2,1799.27z M55.31,1799.27v-264.39
		c0-11.73-0.23-22.69-0.65-33.01c-0.45-10.32-1.09-20.2-1.85-29.77h90.05l2.5,49.1c12.26-19.77,26.82-34.22,43.77-43.34
		c16.83-9.12,37.47-13.69,61.8-13.69c24.65,0,45.39,5.44,62.45,16.41c16.94,10.97,29.32,26.82,37.15,47.58
		c10.64-22.05,24.54-38.24,41.7-48.56c17.17-10.32,38.89-15.43,65.28-15.43c36.06,0,62.9,10.22,80.5,30.75
		c17.59,20.41,26.39,51.69,26.39,93.73v210.61H469.9v-197.58c0-24.44-4.24-41.92-12.6-52.57c-8.37-10.54-21.94-15.86-40.85-15.86
		c-18.24,0-32.9,5.87-43.77,17.7c-10.97,11.73-16.4,27.38-16.4,46.93v201.38h-94.49v-197.58c0-24.22-4.13-41.61-12.38-52.35
		c-8.25-10.75-21.61-16.08-40.09-16.08c-18.23,0-32.68,5.87-43.44,17.49c-10.75,11.73-16.08,27.37-16.08,47.13v201.38
		C149.8,1799.27,55.31,1799.27,55.31,1799.27z M820.07,1765.1c-19.06,16.65-56.35,34.51-81.99,40.27
		c-9.83,2.31-20.55,3.39-32.14,3.39c-27.5,0-50.5-9.69-69.04-28.98c-18.54-19.39-27.76-44.07-27.76-74.05
		c0-24.08,4.74-43.66,14.15-58.85c9.49-15.29,22.83-27.29,40.14-36.08c17.12-8.7,38.47-14.99,63.85-18.69
		c25.39-3.7,51.73-6.49,78.96-8.19v-1.8c0-78.24-111.59-68.5-159.29-35.05l-16.52-61.64c37.29-17.51,73.98-26.4,119.59-26.4
		c80,0,147.56,38.36,147.56,130.03v210.92h-77.51V1765.1L820.07,1765.1z M812.58,1701.26v-63.07c-14.42,1.38-30.15,3.23-47,5.54
		c-16.84,2.41-29.63,5.2-38.36,8.32c-10.66,3.81-18.87,9.47-24.45,16.74c-5.7,7.38-8.53,16.97-8.53,28.98
		C694.23,1780.63,790.98,1753.73,812.58,1701.26L812.58,1701.26z"/>
	
		<linearGradient id="SVGID_1_" gradientUnits="userSpaceOnUse" x1="1222.5149" y1="1308.246" x2="2684.3247" y2="1913.2224" gradientTransform="matrix(0.9999 0 0 -0.9999 0.0697 2835.1968)">
		<stop  offset="0" style="stop-color:#F6AD02"/>
		<stop  offset="0.2" style="stop-color:#FFF000"/>
		<stop  offset="0.4118" style="stop-color:#F6AD02"/>
		<stop  offset="0.6588" style="stop-color:#FFF000"/>
		<stop  offset="0.7882" style="stop-color:#F6AD02"/>
		<stop  offset="1" style="stop-color:#FFF000"/>
	</linearGradient>
	<path class="st5" d="M1108.9,1263.7c29.19,32.62,83.51,121.07,147.81,115.61c150.66-12.81,236.46-175.72,422.46-164.1
		c76.41,4.78,112.39,132.94,188.15,143.98c119.43,17.41,233.85-166.22,428.49-155.69c80.01,4.33,113.09,138.77,192.85,146.53
		c74.36,7.24,190.83-98.18,293.18-152.83c-26.06-43.89-74.49-112.43-126.05-115.9c-101.5-6.83-182.69,122.84-271.96,100.2
		c-51.96-13.18-111.14-155.9-196.73-155.62c-158.44,0.52-267.77,157.39-407.85,169.79c-79.49,7.03-117.71-169.77-224.15-153.51
		C1409.43,1064.4,1260.55,1184.43,1108.9,1263.7L1108.9,1263.7z"/>
</g>
</svg>
