<?xml version="1.0" encoding="utf-8"?>
<!-- Generator: Adobe Illustrator 27.3.1, SVG Export Plug-In . SVG Version: 6.00 Build 0)  -->
<svg version="1.1" id="Layer_1" xmlns="http://www.w3.org/2000/svg" xmlns:xlink="http://www.w3.org/1999/xlink" x="0px" y="0px"
	 viewBox="0 0 2834.6 2834.6" style="enable-background:new 0 0 2834.6 2834.6;" xml:space="preserve">
<style type="text/css">
	.st0{display:none;}
	.st1{display:inline;}
	.st2{fill-rule:evenodd;clip-rule:evenodd;fill:#108DE8;}
	.st3{fill-rule:evenodd;clip-rule:evenodd;fill:#FFFFFF;}
	.st4{fill-rule:evenodd;clip-rule:evenodd;fill:#79BBE7;}
	.st5{fill:#0061AE;}
	.st6{fill-rule:evenodd;clip-rule:evenodd;fill:url(#SVGID_1_);}
	.st7{fill-rule:evenodd;clip-rule:evenodd;fill:#EE4E2C;}
	.st8{fill-rule:evenodd;clip-rule:evenodd;fill:#FEFEFE;}
	.st9{fill:#EE4E2C;}
	.st10{fill:#C47E4D;}
	.st11{fill:#A86A3F;}
	.st12{fill:#CA8B5F;}
	.st13{fill:#B27245;}
	.st14{fill:#B37346;}
	.st15{fill:#5ABEAC;}
	.st16{fill:#3DB39E;}
	.st17{fill:#C88B60;}
	.st18{fill:#FBFDFD;}
	.st19{fill:#EFC75E;}
	.st20{fill:#D7B254;}
	.st21{fill:#8BD2C5;}
	.st22{fill:#77CABB;}
	.st23{fill:#D6A041;}
	.st24{fill:#FFFEFB;}
	.st25{fill:#FFCC5C;}
	.st26{fill:#FFEEAD;}
	.st27{fill:#FFCD5F;}
</style>
<g id="Layer_1_00000177474986328876226260000012302716852527073183_" class="st0">
	<g id="Layer_x0020_1" class="st1">
		<path class="st2" d="M413.8,1020.1c-131.4,12.4-237.9,82-302.6,189.4c-42,69.8-61.8,152.5-55.7,237.3
			c14.9,207.6,193.3,383.4,421.7,365.3c204.9-16.2,373.9-200.6,356.6-427.2c-6.3-83-35.2-151.4-81.4-213.2
			c-20.9-28-25.1-28.4-46.9-51.3c-27.1-28.4-84.5-61-121-75.4C535.3,1025.6,472.9,1014.5,413.8,1020.1L413.8,1020.1z"/>
		<path class="st3" d="M218.7,1300.2c-5,14.4-2,174.3-2,204c0,32.1-6.3,42.1,43.9,59.3c133,45.5,264.6-108.7,396.8-32.4
			c6.1,3.5,13.6,10.8,15.3-0.9v-205.8c0-22.1,2-29.1-12.7-39.3c-118.3-82.4-246.4,58.6-366.5,42.7
			C249.2,1322,230.8,1299.3,218.7,1300.2L218.7,1300.2z"/>
		<path class="st2" d="M1132.1,1617.4c51.8,3.7,112.2-36.5,133.5-59.5c73.9-80,75.7-195.7,1.3-279.4
			c-27.7-31.2-92.6-65.6-133.9-60.8l-149.4,0.1v399.1L1132.1,1617.4z M1067.5,1530.9c11,1.9,56.2,1.2,68.6,0.1
			c102.1-9.3,138.1-148.9,52.3-207.3c-14.2-9.7-30.1-17.4-50.9-19.8c-11.4-1.3-60-2.1-70.1-0.2L1067.5,1530.9L1067.5,1530.9z"/>
		<path class="st2" d="M2440.5,1618.2h85l0.1-86h168.6l0.5,86h84.9c0.1-47.8,0-95.2,0-142.6c0-42.7,3.6-96.2-6.9-134.9
			c-17.8-65.6-80.2-123.7-162.2-124.1c-82.9-0.3-143.2,57.7-162.4,122.3c-11.4,38.2-7.6,93.1-7.6,135.2
			C2440.5,1522,2440,1570.2,2440.5,1618.2L2440.5,1618.2z M2525.6,1445.6l169,0.1c0.4-36.9,4.4-72.8-12.2-101
			c-11.9-20.2-36.8-41.4-71.9-41.5c-35.8-0.2-59.7,20.2-72.5,41.1C2521.3,1371.7,2525.1,1409.5,2525.6,1445.6z"/>
		<path class="st2" d="M1468.6,1618.1l84.7,0.1c0.1-18-2.3-73,0.8-86h168l0.6,86l84.8,0.1c-0.4-47.7,0-95.3,0-142.7
			c0-40.7,3.8-98.9-6.9-135c-48.5-164.2-274.4-165.3-324.6-1.6c-11.4,37.1-7.5,93.8-7.5,135.1
			C1468.5,1521.6,1467.4,1570.6,1468.6,1618.1L1468.6,1618.1z M1553.4,1445.5l169.2,0.1c0.3-36.4,4.3-72.9-12.3-101.1
			c-30.4-51.6-107.6-59.1-144.4-0.2C1549.2,1371.2,1552.8,1410.1,1553.4,1445.5L1553.4,1445.5z"/>
		<path class="st2" d="M1956.5,1373.6l-1.2,59.6c0,50-2.5,143.2,0.2,183.8h83c1.9-28.4-3-231.3,2.3-237.8
			c0-39.4,41.1-76.1,82.7-76.2c25.5-0.1,44.1,10.3,57.7,22.6c10.6,9.6,26.8,31.6,26.5,53.8c3.9,2.2,0.8,213.8,2,237.5l83.1,0.1
			l-0.7-242.2c2.1-19-9.4-48.3-16.7-63.2c-61.5-125.1-238.2-126.7-301.5-2.2C1966.7,1324,1954.8,1354.2,1956.5,1373.6z"/>
		<path class="st4" d="M1132.1,1617.4l-148.6-0.5v-399.1l149.4-0.1c-2.7-3.8-65-1.5-73.8-1.5c-21.7,0-56-2.1-76.2,0.3
			c-1.9,6.4-2.7,391.5-0.1,401.8c13.8,1.8,109.6,0.4,139.9,0.5l8.3-0.9C1131.4,1617.9,1131.8,1617.6,1132.1,1617.4L1132.1,1617.4z"
			/>
		<path class="st4" d="M2207.7,1379.5c0.9,32.7-1.8,227.2,1.3,238.9l84.6,0.4c2.2-9.3,0.9-161.1,0.9-184c0-11,2.9-54.1-2.3-59.9
			l0.7,242.2l-83.1-0.1C2208.5,1593.3,2211.6,1381.7,2207.7,1379.5L2207.7,1379.5z"/>
		<path class="st4" d="M2040.9,1379.3c-5.3,6.5-0.3,209.3-2.3,237.8h-83c-2.7-40.6-0.2-133.8-0.2-183.8l1.2-59.6
			c-4.7,2.1-2.6,108.3-2.6,121.6c0,19.3-2.3,112.2,1,123.3l84.6,0.3L2040.9,1379.3L2040.9,1379.3z"/>
	</g>
	<g id="Layer_x0020_1_00000163771617593982936790000000216729778176873395_" class="st1">
		<path class="st5" d="M2077.8,1472.1h95.1v327.2h-95.1V1472.1z M1843.6,1799.3v-225.6c0-18.5-0.3-36.2-1-53.2
			c-0.6-16.9-1.5-33-2.8-48.3h87.2l3.5,58.6c8.3-20.1,21.5-35.3,39.7-45.6c18-10.3,40.6-15.4,67.6-15.4h2.8l-0.3,85.9
			c-5.8-0.4-10-0.8-12.8-1c-2.9-0.2-5.5-0.3-7.8-0.3c-24.9,0-44.3,6.1-58.3,18.2c-14.1,12.1-21.2,28.9-21.2,50.3v176.6
			L1843.6,1799.3L1843.6,1799.3z M1699.8,1472.1h95.2v327.2h-95.2V1472.1z M1545.6,1799.3l-3.1-46.7c-11.7,17.6-25.8,30.9-42.4,39.8
			c-16.5,8.9-35.2,13.4-56.1,13.4c-39.6,0-71.8-15.5-96.6-46.6c-24.7-31.1-37-72.2-37-123.3c0-51.4,12.1-92.6,36.3-123.4
			c24.2-30.8,56.3-46.3,96.1-46.3c21.6,0,40.5,4.2,56.6,12.6c16.2,8.4,30.1,21.2,41.7,38.3V1330h94.5v403.5c0,16.5,0.2,30,0.8,40.2
			c0.6,10.3,1.4,18.9,2.4,25.6L1545.6,1799.3L1545.6,1799.3z M1406.9,1636.3c0,33.8,5.9,60,17.5,78.5s28,27.8,49,27.8
			c21.4,0,38.5-9.4,50.9-28.4s18.8-45,18.8-77.9c0-33-6.3-59.2-18.8-78.2c-12.5-19.1-29.6-28.7-50.9-28.7c-21,0-37.4,9.3-49,28.1
			C1412.7,1576.4,1406.9,1602.7,1406.9,1636.3z M957.2,1799.3v-264.4c0-9.3-0.2-19.1-0.8-29.3c-0.5-10.2-1.4-21.4-2.4-33.5h90.6
			l1.9,49.1c12.3-19.8,26.9-34.2,43.8-43.3c16.8-9.1,37.5-13.7,61.9-13.7c36.1,0,62.8,10.2,80.3,30.8c17.5,20.4,26.3,51.7,26.3,93.7
			v210.6h-93.5v-197.6c0-24.4-4.2-41.9-12.6-52.6c-8.4-10.5-21.9-15.9-40.8-15.9c-18.3,0-33,5.9-44.1,17.7
			c-11.2,11.7-16.7,27.4-16.7,46.9v201.4L957.2,1799.3L957.2,1799.3z M55.3,1799.3v-264.4c0-11.7-0.2-22.7-0.7-33
			s-1.1-20.2-1.8-29.8h90.1l2.5,49.1c12.3-19.8,26.8-34.2,43.8-43.3c16.8-9.1,37.5-13.7,61.8-13.7c24.7,0,45.4,5.4,62.4,16.4
			c16.9,11,29.3,26.8,37.1,47.6c10.6-22.1,24.5-38.2,41.7-48.6c17.2-10.3,38.9-15.4,65.3-15.4c36.1,0,62.9,10.2,80.5,30.8
			c17.6,20.4,26.4,51.7,26.4,93.7v210.6h-94.5v-197.6c0-24.4-4.2-41.9-12.6-52.6c-8.4-10.5-21.9-15.9-40.9-15.9
			c-18.2,0-32.9,5.9-43.8,17.7c-11,11.7-16.4,27.4-16.4,46.9v201.4h-94.5v-197.6c0-24.2-4.1-41.6-12.4-52.3
			c-8.2-10.8-21.6-16.1-40.1-16.1c-18.2,0-32.7,5.9-43.4,17.5c-10.8,11.7-16.1,27.4-16.1,47.1v201.4
			C149.8,1799.3,55.3,1799.3,55.3,1799.3z M820.1,1765.1c-19.1,16.7-56.3,34.5-82,40.3c-9.8,2.3-20.5,3.4-32.1,3.4
			c-27.5,0-50.5-9.7-69-29c-18.5-19.4-27.8-44.1-27.8-74.1c0-24.1,4.7-43.7,14.2-58.8c9.5-15.3,22.8-27.3,40.1-36.1
			c17.1-8.7,38.5-15,63.8-18.7c25.4-3.7,51.7-6.5,79-8.2v-1.8c0-78.2-111.6-68.5-159.3-35.1l-16.5-61.6
			c37.3-17.5,74-26.4,119.6-26.4c80,0,147.6,38.4,147.6,130v211h-77.5L820.1,1765.1L820.1,1765.1z M812.6,1701.3v-63.1
			c-14.4,1.4-30.2,3.2-47,5.5c-16.8,2.4-29.6,5.2-38.4,8.3c-10.7,3.8-18.9,9.5-24.5,16.7c-5.7,7.4-8.5,17-8.5,29
			C694.2,1780.6,791,1753.7,812.6,1701.3L812.6,1701.3z"/>
		
			<linearGradient id="SVGID_1_" gradientUnits="userSpaceOnUse" x1="1222.5098" y1="1526.3873" x2="2684.3198" y2="921.4108" gradientTransform="matrix(0.9999 0 0 0.9999 6.970000e-02 0.8343)">
			<stop  offset="0" style="stop-color:#F6AD02"/>
			<stop  offset="0.2" style="stop-color:#FFF000"/>
			<stop  offset="0.4118" style="stop-color:#F6AD02"/>
			<stop  offset="0.6588" style="stop-color:#FFF000"/>
			<stop  offset="0.7882" style="stop-color:#F6AD02"/>
			<stop  offset="1" style="stop-color:#FFF000"/>
		</linearGradient>
		<path class="st6" d="M1108.9,1263.7c29.2,32.6,83.5,121.1,147.8,115.6c150.7-12.8,236.5-175.7,422.5-164.1
			c76.4,4.8,112.4,132.9,188.2,144c119.4,17.4,233.8-166.2,428.5-155.7c80,4.3,113.1,138.8,192.9,146.5
			c74.4,7.2,190.8-98.2,293.2-152.8c-26.1-43.9-74.5-112.4-126.1-115.9c-101.5-6.8-182.7,122.8-272,100.2
			c-52-13.2-111.1-155.9-196.7-155.6c-158.4,0.5-267.8,157.4-407.8,169.8c-79.5,7-117.7-169.8-224.2-153.5
			C1409.4,1064.4,1260.6,1184.4,1108.9,1263.7L1108.9,1263.7z"/>
	</g>
	<g id="Layer_x0020_1_00000174572378740973003360000006651258118980115866_" class="st1">
		<path class="st7" d="M201.1,1015.2h868.1c57.7,0,104.9,47.2,104.9,104.9v607.5c0,57.7-47.2,104.9-104.9,104.9H175.8
			c-57.7,0-104.9-47.2-104.9-104.9V977.1c0-27.4,22.5-46.2,49.7-49.7l800.6-102.2c27.4,0,49.7,22.3,49.7,49.7v84.9H151.3
			c0,35.7,10.7,55.2,50.1,55.2L201.1,1015.2z M688,1680.8L688,1680.8c-73,14-166.8-10.3-217.9-65.3c-23.1-24.7,14.2-62.2,37.3-37.1
			c34.4,36.9,95.5,54.2,145.5,53c63.7-1.4,120.4-59.2,84.1-123.9c-50.1-89.5-173.4-64.5-236.8-134.8c-51.3-56.7-27-146.1,33.2-185.7
			c62.7-41.4,171.3-39.8,222.8,19.4c22.3,25.4-15,62.7-37.3,37.1c-41.8-47.8-140.2-41.4-177.9,8c-53.6,70.3,26.6,108.2,82.5,125.1
			c76.9,23.3,162.2,65.8,176.1,154c11.3,71.1-43.9,137.1-111.9,150.3L688,1680.8z"/>
		<path class="st8" d="M688,1681L688,1681c-73,14-166.8-10.3-217.9-65.3c-23.1-24.7,14.2-62.2,37.3-37.1
			c34.4,36.9,95.5,54.2,145.5,53c63.7-1.4,120.2-59.2,84.1-123.9c-50.1-89.5-173.4-64.5-236.8-134.8c-51.3-56.7-27-146.1,33.2-185.7
			c62.7-41.4,171.1-39.6,222.8,19.4c22.1,25.4-15,62.7-37.3,37.1c-41.8-47.8-140.2-41.4-177.9,8c-53.6,70.3,26.6,108.2,82.5,125.1
			c76.9,23.3,162.2,65.8,176.4,154C811.2,1601.9,756,1667.9,688,1681L688,1681L688,1681z"/>
		<path class="st9" d="M2183,977.9c-31.1,0-59,13.2-78.1,34v-24.3c0-22-35.1-22-35.1,0v286.7c0,21.9,35.1,21.9,35.1,0v-127.6
			c19.2,21,47,34,78.1,34c57.7,0,104.5-45.4,104.5-101.4C2287.5,1023.4,2240.7,977.9,2183,977.9z M2183,1144.2L2183,1144.2
			c-36.9,0-66.8-29.1-66.8-64.7c0-32.2,24.3-59,56.1-63.9c0.2,0,0.4,0,0.6,0c3.3-0.4,6.6-0.8,10.1-0.8c27.2,0,50.7,15.9,61,38.6v0.2
			c3.5,8,5.6,16.7,5.6,25.8C2249.6,1115.2,2219.7,1144.2,2183,1144.2z M1923.6,1180.9c-57.7,0-104.5-45.4-104.5-101.4
			c0-55.9,46.8-101.4,104.5-101.4s104.5,45.5,104.5,101.4C2028,1135.4,1981.2,1180.9,1923.6,1180.9z M1923.6,1014.6L1923.6,1014.6
			c-36.9,0-66.8,29.1-66.8,64.7c0,35.7,29.9,64.7,66.8,64.7s66.8-29.1,66.8-64.7C1990.4,1043.5,1960.4,1014.6,1923.6,1014.6z
			 M2763.5,1077.3c-0.8-46.6-25.4-88.8-76.3-98.1c-43.9-8-95.2,14.4-113.8,54.2c-19.4,41.4-11.3,98.3,27,127.2
			c41.4,31.3,106,21.6,148.6-1.6c19.8-10.7,2.1-40.2-17.9-29.5c-27,14.8-62.1,21.8-92.2,12c-22.5-7.4-35.1-26.2-39-47.4H2746
			c9.3,0,17.7-7.8,17.7-17.1L2763.5,1077.3z M2601,1060.3L2601,1060.3c0.2-1.4,0.6-2.5,1-3.7c8.4-27.8,37.3-43.9,66.4-44.7
			c33.4-1,52.2,21.6,58.1,48.4H2601L2601,1060.3z M2529.5,1077.5c-0.8-46.6-25.4-88.8-76.3-98.1c-43.9-8-95.2,14.4-113.8,54.2
			c-19.4,41.4-11.3,98.3,27,127.2c41.4,31.3,106,21.6,148.6-1.6c19.8-10.7,2.1-40.2-17.9-29.5c-27,14.8-62.1,21.8-92.2,12
			c-22.5-7.4-35.1-26.2-39-47.4H2512c9.3,0,17.7-7.8,17.7-17.1L2529.5,1077.5z M2366.9,1060.4L2366.9,1060.4c0.2-1.4,0.6-2.5,1-3.7
			c8.4-27.8,37.3-43.9,66.4-44.7c33.4-1,52.2,21.6,58.1,48.4H2366.9L2366.9,1060.4z M1777.9,1044.7v118.5c0,22.3-35.2,22.3-35.2,0
			V1047c-1.2-22.9-20.8-33.6-21.4-33.8c-25.1-10.9-70.5-5.8-97.5,28.5v121.6c0,22.3-35.2,22.3-35.2,0V859c0-22.3,35.2-22.3,35.2,0
			v136.7c43.1-28.7,97.9-25.6,123.7-8c0,0,31.1,16.9,30.5,57.1L1777.9,1044.7z M1530.8,872.8c-34.6-38.1-106.8-39-148.8-12.4
			c-40.2,25.4-56.5,82.7-22.1,119.2c42.3,45.2,124.7,29.1,158.1,86.6c24.1,41.6-13.6,78.7-56.1,79.6c-33.4,0.8-74.2-10.5-97.1-34.2
			c-15.5-15.9-40.2,8-24.9,23.9c34,35.2,96.7,50.9,145.5,41.8c45.4-8.3,82.2-50.9,74.8-96.5c-9.3-56.5-66.2-83.9-117.7-98.9
			c-37.5-10.9-90.9-35.2-55.2-80.2c25.1-31.7,90.9-35.7,118.7-5C1520.9,913.2,1545.6,889.1,1530.8,872.8z"/>
		<path class="st7" d="M2447.9,2009.4h-111.7l119.6-225.9l-196.2-370.8h121.2l135.6,256.4l135.6-256.4h111.7L2447.9,2009.4z
			 M1334.9,1832.6h93.6v-171.1h126.2c130.9,0,237.1-91.9,237.1-205.1s-106.2-205.1-237.1-205.1h-219.8
			C1334.9,1445.2,1334.9,1639,1334.9,1832.6z M1428.5,1567.9v-223h126.2c71.1,0,128.8,49.9,128.8,111.5s-57.7,111.5-128.8,111.5
			H1428.5z M2142.4,1416.4h82.1v412.7h-82.1v-46.4c-36.7,31.3-84.1,50.1-135.9,50.1c-115.9,0-209.9-94-209.9-209.9
			s94-209.9,209.9-209.9c51.9,0,99.4,18.8,135.9,50.1v-46.4V1416.4z M2006.5,1501.3c67,0,121.6,54.4,121.6,121.6
			c0,67-54.4,121.6-121.6,121.6c-67,0-121.6-54.4-121.6-121.6C1884.9,1555.9,1939.3,1501.3,2006.5,1501.3z"/>
	</g>
	<g class="st1">
		<path class="st10" d="M2098.4,1864.3c-86.1-0.3-162.6-54.8-197.4-140.1c-30.2-74-10.4-168.1,45.8-226.1
			c46.1-47.6,102.6-69.3,167.6-70c79.9-0.8,159.7-0.2,239.6-0.2c0-90.9-0.1-181.9-0.1-272.8c-5.9-2.8-7.5-8.5-9.7-13.9
			c-26.5-65.5-81-102.7-152.8-102.9c-103.9-0.4-207.8-0.1-311.6-0.1c-440.8,0-881.6-0.3-1322.5,0.3c-58.7,0.1-101.2-22.7-126.5-76.1
			c-2-4.2-4.2-8.1-8.8-9.9c0,44-0.1,88.1-0.1,132.1h-0.1v100.7c-0.1,111.3-0.3,222.7-0.5,334c0,1.9,0.3,3.9,0.5,5.9v9.1
			c-0.1,0.5-0.3,1-0.5,1.5c0.1,0.4,0.2,0.9,0.2,1.5v40.5c0.1,0.3,0.2,0.7,0.2,1v9c-0.1,0.7-0.2,1.4-0.2,2.2v3.1
			c0,0.6-0.1,1.2-0.2,1.7c0.2,149.1,0.2,298.1,0.2,447.2c0,7.1,0.4,14.3,0.6,21.4c4.2,8.6,6.1,17.8,7.2,27.1
			c16.9,33.8,38.2,63.5,72.4,82.4c20.1,11.1,41,18.2,63.9,19c548.2,0,1096.4,0,1644.6,0c59.9-4.2,100.8-36.3,128.4-87.7
			c3.1-5.7,5.4-11.8,8.1-17.6c2.4-7.7,4.7-15.5,7.1-23.2c0.5-66.1,1-132.2,1.5-198.3C2269.8,1864.7,2184.1,1864.6,2098.4,1864.3z"/>
		<path class="st11" d="M2417,1825.3c-10.2,3.4-11.3,14.8-18.7,21.1c-12.6,10.8-25.6,19-42.8,18.5c-85.7-0.2-171.4-0.3-257.1-0.6
			c-86.1-0.3-162.6-54.8-197.4-140.1c-30.2-74-10.4-168.1,45.8-226.1c46.1-47.6,102.6-69.3,167.6-70c79.9-0.8,159.7-0.2,239.6-0.2
			c30.1,3.3,49.6,20.8,63,46.6C2417,1591.5,2417,1708.4,2417,1825.3z M2199,1728.1c32.5-33.1,38.5-92.8,18-135.8
			c-35.7-74.9-136.6-89.2-193.3-39.1c-32.6,24.9-43.9,59-43.3,98.6c0.7,49.8,34.5,96.6,82.6,113.5
			C2113.1,1782.7,2166.8,1768,2199,1728.1z"/>
		<path class="st11" d="M1087.8,696.4c-69.4-0.2-138.9-1.1-208.3-0.3c-106.9,1.2-213.9-4.3-320.8,3c-50.8,3.4-87.8,29.5-114.8,72.1
			c-6.4,10-8.9,22.7-16.2,32.2c0.1,0.7,0.1,1.4-0.1,2.2c-0.4,1.5-1,2.7-1.9,3.8c0,1.3,0,2.5-0.1,3.6c-0.6,3.7-1.2,7.3-1.8,11
			c-0.8,5-1.7,10-2.4,15c2.3,9-2.1,19,1,27.9c1,1.4,2,2.7,3,4.1c3.1,55.2,54.8,102.6,115.6,104.7c26.5,0.9,53,0,79.5,0
			c40.6-27.8,84.3-50.3,126.6-75.2c110.5-64.9,221.4-129.1,332.1-193.6c3.3-1.9,6.1-4.6,9.2-7
			C1087.9,698.7,1087.7,697.6,1087.8,696.4z"/>
		<path class="st12" d="M422.1,952.4c0-27.4,0.1-54.8,0.1-82.2c1.1,0.2,2.1,0.3,3.2,0.5c3.1,55.2,54.8,102.6,115.6,104.7
			c26.5,0.9,53,0,79.5,0c87.2-0.1,174.4-0.2,261.6-0.3c1.1,0.4,2.2,0.9,3.3,1.3c5,8.2,13.2,7,20.9,7c113.4,0.1,226.8,0,340.3,0
			c7.7,0,15.9,1,20.9-7.1l0.1-1.3c110.2,0,220.4,0,330.6,0c2.8,0.4,5.5,0.9,8.3,1.3c14.9,10.2,43.5,10.2,58.4,0
			c1.3-0.4,2.6-0.9,3.8-1.3c49.4,0,98.8,0,148.2,0c15.6,0,31.2,0,46.8,0c21,0,41.9,0,62.9,0c44.1,0.1,88.1,0.2,132.2,0.4
			c42.8,0.1,85.6,0.6,128.4,0.2c38.1-0.3,73,9.5,104.6,31c47.9,38.1,67.5,88,62.2,148.4c-5.9-2.8-7.5-8.5-9.7-13.9
			c-26.5-65.5-81-102.7-152.8-102.9c-103.9-0.4-207.8-0.1-311.6-0.1c-440.8,0-881.6-0.3-1322.5,0.3c-58.7,0.1-101.2-22.7-126.5-76.1
			C428.8,958.1,426.6,954.3,422.1,952.4z"/>
		<path class="st13" d="M2354,2109.8c-2.7,64.7-53,125-115.9,140.6c-20.1,5-40.1,5.4-60.6,5.4c-528.5-0.3-1056.9-0.4-1585.4,0
			c-41.5,0-79.4-7-112.2-34.5c-41-34.4-63-76.6-57.6-131.1c2.4,0,4.8,0,7.2,0c16.9,33.8,38.2,63.5,72.4,82.4
			c20.1,11.1,41,18.2,63.9,19c7.7,11.9,19.9,7.5,30.3,7.5c528,0.2,1056,0.2,1584,0.2c5.2,0,10.4-0.1,15.6-0.1
			c6.2-0.1,11.6-1.6,14.7-7.6c59.9-4.2,100.8-36.3,128.4-87.7c3.1-5.7,5.4-11.8,8.1-17.6c2.4,0,4.7,0,7.1,0c0,5.2,0,10.4,0,15.6
			C2348.9,2104.6,2348.9,2107.2,2354,2109.8z"/>
		<path class="st14" d="M2210.4,2191.7c-3.1,6-8.6,7.5-14.7,7.6c-5.2,0.1-10.4,0.1-15.6,0.1c-528,0-1056,0-1584-0.2
			c-10.4,0-22.6,4.4-30.3-7.5C1114,2191.7,1662.2,2191.7,2210.4,2191.7z"/>
		<path class="st14" d="M429.4,2090.3c-2.4,0-4.8,0-7.2,0c0-9.1,0-18.1,0-27.2C426.3,2071.7,428.3,2080.9,429.4,2090.3z"/>
		<path class="st14" d="M2354,2086.4c-2.4,0-4.7,0-7.1,0c2.4-7.7,4.7-15.5,7.1-23.2C2354,2070.9,2354,2078.7,2354,2086.4z"/>
		<path class="st15" d="M1816.8,975.2c-49.4,0-98.8,0-148.2,0c-62.1-107.9-124.1-215.9-186.5-323.5c-12.1-20.9-27.2-24-49.4-11.4
			c-37.2,21.1-74.1,42.8-111.2,64.2c-23,13.3-46.5,25.9-68.9,40.1c-25,15.9-25.5,40.7-2.4,54.7c12.3,7.4,23.2,4.1,34.6-2.6
			c47.1-27.4,94.5-54.2,141.5-81.8c12.4-7.3,19.2-5,26.2,7.4c48.2,84.5,97,168.6,145.6,252.8c-110.2,0-220.4,0-330.6,0
			c-26.8-39.1-66-61.5-108.9-77.4c-61.9-22.9-125.5-21.3-184.8,4.5c-35.2,15.3-68.1,39.9-91.8,73c-87.2,0.1-174.4,0.2-261.6,0.3
			c40.6-27.8,84.3-50.3,126.6-75.2c110.5-64.9,221.4-129.1,332.1-193.6c3.3-1.9,6.1-4.6,9.2-7c2.3-1.3,4.7-2.6,7-3.9
			c55.4-31.8,110.8-63.5,166.1-95.6c65.3-37.9,130.1-76.5,195.6-114.1c35.4-20.3,70.7-10.1,92,26.3c30.4,51.6,60,103.7,89.9,155.6
			c-0.4,2,0.4,2.7,2.3,2.3c1.4,0.5,2.7,1.1,4.1,1.6c16.4,39,38.9,74.5,62.7,109.3c7.6,19.9,18.1,38.1,31.3,54.7
			c2.2,4.7,4,9.5,6.5,14C1769.4,891.8,1793.1,933.5,1816.8,975.2z"/>
		<path class="st11" d="M2291.7,1006.7c-31.5-21.5-66.4-31.3-104.6-31c-42.8,0.4-85.6-0.1-128.4-0.2
			c-14.3-52.7-29.8-105.2-42.7-158.3c-9.8-40.6-24.9-79.8-31.1-121.2c46.1,0,92.2-0.1,138.2-0.1c78.9,0,136.3,42.4,158.6,102.8
			c6.8,18.3,9.2,37.6,9.8,56.2C2293.4,905.4,2291.9,956.1,2291.7,1006.7z"/>
		<path class="st16" d="M1985,696c6.1,41.5,21.2,80.7,31.1,121.2c12.9,53.1,28.3,105.5,42.7,158.3c-44.1-0.1-88.1-0.2-132.2-0.4
			c-5.1-16-11-31.8-15.1-48.1c-12.3-48.8-23.3-98-35.9-146.7c-8.3-32-19.5-37.9-50.9-29.7c-38.9,10.1-77.7,20.4-116.5,30.7
			c-23.8-34.8-46.3-70.3-62.7-109.3c57.2-15.6,114.3-31.9,171.8-46.6c33.3-8.5,65.5-22.3,101.2-20c23.9,1.5,43.8,16.6,50.8,39.8
			C1974.2,662.1,1976.9,679.9,1985,696z"/>
		<path class="st17" d="M1095.3,695.9c-2.3,1.3-4.7,2.6-7,3.9c-0.4-1.1-0.6-2.2-0.5-3.4C1090.3,696.2,1092.8,696,1095.3,695.9z"/>
		<path class="st18" d="M1641.2,670.4c-1.9,0.4-2.7-0.3-2.3-2.3C1639.8,668.7,1640.6,669.5,1641.2,670.4z"/>
		<path class="st14" d="M2354,2109.8c-5.1-2.6-5-5.2,0-7.8C2354,2104.6,2354,2107.2,2354,2109.8z"/>
		<path class="st19" d="M2023.8,1553.2c56.6-50.1,157.6-35.7,193.3,39.1c20.5,43,14.5,102.7-18,135.8c-6.8,1.8-13.8,3.3-20.5,5.6
			c-94.5,31.3-183.6-47.5-163.5-144.8C2017.5,1576.8,2020.8,1565,2023.8,1553.2z"/>
		<path class="st20" d="M2023.8,1553.2c-2.9,11.9-6.2,23.7-8.7,35.7c-20.1,97.3,69,176.1,163.5,144.8c6.7-2.2,13.6-3.7,20.5-5.6
			c-32.2,40-85.9,54.7-136,37.2c-48.1-16.8-81.9-63.6-82.6-113.5C1979.9,1612.2,1991.2,1578.1,2023.8,1553.2z"/>
		<path class="st11" d="M425.4,870.8c-1.1-0.2-2.1-0.4-3.2-0.5c-0.4-1.2-0.4-2.4,0.2-3.6C423.4,868.1,424.4,869.4,425.4,870.8z"/>
		<path class="st21" d="M1598.1,975.1c-48.6-84.2-97.4-168.4-145.6-252.8c-7.1-12.4-13.9-14.7-26.2-7.4
			c-47,27.6-94.4,54.3-141.5,81.8c-11.4,6.7-22.4,10-34.6,2.6c-23.1-14-22.6-38.8,2.4-54.7c22.4-14.3,45.9-26.8,68.9-40.1
			c37-21.4,73.9-43.1,111.2-64.2c22.2-12.6,37.3-9.5,49.4,11.4c62.4,107.7,124.4,215.7,186.5,323.5c-1.3,0.4-2.6,0.9-3.8,1.3
			c-19.5,0-38.9,0-58.4,0C1603.6,976,1600.9,975.6,1598.1,975.1z"/>
		<path class="st21" d="M882,975.1c23.6-33.1,56.6-57.6,91.8-73c59.3-25.8,122.9-27.3,184.8-4.5c42.9,15.9,82.1,38.3,108.9,77.4
			l-0.1,1.3c-127.4,0-254.7,0-382.1,0C884.2,976,883.1,975.6,882,975.1z"/>
		<path class="st22" d="M1708.1,781.3c38.8-10.2,77.6-20.6,116.5-30.7c31.4-8.1,42.6-2.3,50.9,29.7c12.7,48.7,23.6,97.9,35.9,146.7
			c4.1,16.3,10,32.1,15.1,48.1c-21,0-41.9,0-62.9,0c-12-44.2-23.7-88.5-36.1-132.7c-6.2-22-14.8-27.1-35.7-18.7
			c-17.1,6.9-35.2,7.5-52.6,12.2C1726.1,819.4,1715.6,801.2,1708.1,781.3z"/>
		<path class="st16" d="M1739.3,836c17.4-4.6,35.4-5.2,52.6-12.2c20.8-8.4,29.5-3.4,35.7,18.7c12.4,44.1,24.1,88.4,36.1,132.7
			c-15.6,0-31.2,0-46.8,0c-23.7-41.7-47.4-83.4-70.9-125.2C1743.3,845.5,1741.5,840.7,1739.3,836z"/>
		<path class="st17" d="M885.3,976.4c127.4,0,254.7,0,382.1,0c-5.1,8-13.2,7.1-20.9,7.1c-113.4,0-226.8,0-340.3,0
			C898.6,983.5,890.3,984.6,885.3,976.4z"/>
		<path class="st17" d="M1606.4,976.4c19.5,0,38.9,0,58.4,0C1649.9,986.6,1621.3,986.6,1606.4,976.4z"/>
	</g>
	<g class="st1">
		<path class="st23" d="M2452.6,1782.8c-6.4,47.4-24.8,91.3-43.1,134.6c-24,56.9-53,111.4-87.1,163.4
			c-54.7,83.3-118.2,158.2-193.6,223.7c-62.8,54.5-129.5,102.7-202.8,141.6c-116.8,62.1-240.9,102-372.4,119.6
			c-17.9,2.4-37.4-2.3-54.3,7.8c-55.7,0-111.5,0-167.2,0c-3.2-6-8.6-4.2-13.6-3.8c-107.1-8.8-209.9-34.8-309.1-76.1
			c-117.2-48.7-222.9-115.3-317.1-200.6c-114.7-103.8-201.9-227.1-263.7-368.7c-18.4-42-37.7-83.7-46.9-129.1
			c-1-4.8-0.2-8.4,0.3-12.6c0.7-3.7,1.1-7.3-3.3-9.2c-7.8-12.7-10.7-25.7-10.4-41.1c0.4-17.9-10.9-33.9-13.9-52.5
			c-12.1-75.4-17.2-150.9-12.3-227.2c11,20.3,9.6,43.4,13.1,65.2c16.4,103.1,47.8,202,93.9,294.8c65.7,132.4,155.6,247.2,268.6,344
			c83,71.1,174.1,128.7,274,171.1c163.4,69.2,333.8,99.3,512,84c87.2-7.5,172.2-23.5,254.9-50.9c107.6-35.7,207.5-87.5,298.9-154.8
			c74.7-55.1,140.6-119.5,199-191.8c51.2-63.3,94.1-131.3,129.8-204.8c45.3-93.2,76.6-190.1,94.5-292c4.6-26.2,3.5-53.4,13.5-78.7
			c1.5,37.7,3,75.5-0.7,113c-4.1,41.5-4.2,83.7-18.1,123.8c-2.7-0.7-3.7,0.6-3.4,3.1c8.3,31.5-6.2,59.3-13.8,88.3
			c-0.6,2.1-0.8,4.4-1.1,6.6C2453.9,1775.7,2448,1776.7,2452.6,1782.8z"/>
		<path class="st24" d="M1318.5,2569.6c5-0.4,10.4-2.2,13.6,3.8c-4.5,0-9,0-13.6,0C1318.6,2572.2,1318.5,2570.9,1318.5,2569.6z"/>
		<path class="st25" d="M2494.3,1438.6c-10,25.2-8.9,52.5-13.5,78.7c-17.9,101.8-49.2,198.7-94.5,292
			c-35.7,73.5-78.7,141.5-129.8,204.8c-58.4,72.3-124.3,136.7-199,191.8c-91.3,67.3-191.2,119.1-298.9,154.8
			c-82.6,27.4-167.6,43.4-254.9,50.9c-178.2,15.3-348.5-14.7-512-84c-100-42.3-191.1-100-274-171.1c-113-96.8-202.9-211.6-268.6-344
			c-46.1-92.8-77.5-191.7-93.9-294.8c-3.5-21.8-2-44.8-13.1-65.2c-0.7-1.3-1-2.6-1-4c0.1-3.2,0.3-6.5,0.4-9.7
			c0.3-11.9,0.5-23.8,0.8-35.7c1.1-1.5,2.2-3,3.3-4.5c-6.5-19.5-6.7-40.1-6.3-60.1c1.9-91.9,10.1-182.8,34.1-272.3
			C416.5,906,491.5,763,599.4,636.9c109.5-128,242.2-224.5,396.6-291.4c69.4-30,141.7-52.6,215.7-66.3c50.3-9.3,101.9-13,153.4-16.8
			c49.1-3.6,97.2,1.2,145.5,2.8c50.2,1.7,100.2,11.8,149.5,23c78.1,17.8,153.8,42.8,225.8,78.3c93.3,46,180.2,101.7,256,173.5
			c-0.2,2.6,1,3.8,3.6,3.5c22.9,22.9,45.9,45.9,68.9,68.8c-0.3,2.6,1,3.7,3.5,3.7c85.9,95,152.8,201.3,199.9,320.9
			c25.7,65.3,44.1,132.3,59.2,200.3c10.6,47.9,13.3,97.2,17.2,146.2C2498.3,1335.2,2492.2,1386.9,2494.3,1438.6z M2232.5,1502.5
			c4.4-1.4,14,3.1,9.5-8.4c1.3-15.3,2.6-30.7,3.9-46c1.2-1.5,2.5-3,3.7-4.5c-3.4-32.5,8.8-63.7,8.3-96
			c-1-67.1-12.7-132.8-24.5-198.6c-7-39-21.2-75.5-33.6-112.7c-1-1.2-1.9-2.3-2.9-3.5c-48.7-137.4-134.7-247.8-245.6-340.3
			c-0.5-5.8-3.9-8-9.3-7.9c-36.3-30.1-74.7-57.1-117.2-77.9c0.1-7.3-3.7-6.2-8.2-3.8c-84.3-49.4-175.2-79.3-272.1-91.1
			c-1-5.1-2-10.2-8.6-4.5c-9.2,0-18.3,0-27.5,0.1c-1-5.2-2.1-10.3-8.7-4.4c-7.5,0.2-15.3,1.9-22.4,0.4
			c-60.8-12.3-120.9,1.1-181.2,4.9c-1.5,1.2-3,2.5-4.5,3.7c-21.2,1-41.8,4.8-62.6,9c-56.7,11.3-111.8,29-162.9,54.1
			c-115.5,56.6-218.5,130.3-299.2,233.1c-133.3,169.9-200.8,360.5-185,577.5c1.5,21,4.7,43.8,5.7,63.9c1.5,30.9,9.4,60.2,15.7,88.8
			c28.3,127.6,90.2,239.6,173.1,340c32.2,39,66.2,76.6,108.7,105.3c0.6,0.9,1.5,1.7,2.5,2.2c36,33.5,77.5,59.1,119.8,83.5
			c96.9,56,201.8,87.1,312.2,102.4c54.7,7.6,109.4,2.7,164.1,4c27.6,0.7,54.1-8.5,81.5-11.4c33.2-3.5,65.7-15.3,98.1-24.8
			c75.7-22.1,145.7-56.7,211.8-99.3c1.2-1,2.5-2.1,3.7-3.1c3-1.9,5.9-3.8,8.9-5.8c1.6-1.1,3.1-2.2,4.6-3.3
			c18.8-10.1,35.4-23,50.9-37.6c1.2-1.2,2.4-2.4,3.7-3.7c1.3-1.8,2.2-4.2,3.9-5.3c64.2-45.5,112.5-106.1,158.2-168.6
			c48.8-66.7,82.2-141.7,106.4-220.3C2224.4,1563.4,2237.6,1534.5,2232.5,1502.5z"/>
		<path class="st24" d="M2452.6,1782.8c-4.6-6.1,1.3-7,4.6-9.3C2464.6,1780.9,2458.3,1781.7,2452.6,1782.8z"/>
		<path class="st24" d="M378.8,1773.5c4.4,1.9,4,5.5,3.3,9.2C375.9,1781.4,371.6,1779.5,378.8,1773.5z"/>
		<path class="st26" d="M341.6,1438.9c-0.1,3.2-0.3,6.5-0.4,9.7C337.8,1445.2,338,1442,341.6,1438.9z"/>
		<path class="st24" d="M345.6,1398.8c-1.1,1.5-2.2,3-3.3,4.5C343.4,1401.7,344.5,1400.2,345.6,1398.8z"/>
		<path class="st24" d="M2472.1,1678.6c-0.3-2.6,0.6-3.8,3.4-3.1C2474.3,1676.5,2473.2,1677.5,2472.1,1678.6z"/>
		<path class="st24" d="M2217.9,616.1c-2.5,0-3.8-1.1-3.5-3.7C2215.5,613.6,2216.7,614.9,2217.9,616.1z"/>
		<path class="st24" d="M2145.5,543.6c-2.6,0.3-3.8-0.9-3.6-3.5C2143.1,541.2,2144.3,542.4,2145.5,543.6z"/>
		<path class="st27" d="M2232.5,1502.5c1-5.3,4.6-7.5,9.5-8.4C2246.4,1505.6,2236.8,1501.1,2232.5,1502.5z"/>
		<path class="st27" d="M1508.4,507.4c-3.9,0.6-7.5,0.4-8.7-4.4C1506.3,497.1,1507.4,502.2,1508.4,507.4z"/>
		<path class="st27" d="M1544.5,511.9c-3.9,0.6-7.4,0.2-8.6-4.5C1542.6,501.7,1543.6,506.8,1544.5,511.9z"/>
		<path class="st27" d="M1951.3,692.5c-6.5,1.4-8.8-2.2-9.3-7.9C1947.4,684.5,1950.9,686.7,1951.3,692.5z"/>
		<path class="st27" d="M1824.8,606.8c-3.5,0.3-7.2,1.2-8.2-3.8C1821.1,600.6,1824.9,599.5,1824.8,606.8z"/>
		<path class="st27" d="M2245.9,1448.1c1.2-1.5,2.5-3,3.7-4.5C2248.3,1445.1,2247.1,1446.6,2245.9,1448.1z"/>
		<path class="st27" d="M2199.8,1036.3c-2.3-0.1-3.7-0.8-2.9-3.5C2197.9,1034,2198.8,1035.1,2199.8,1036.3z"/>
		<path class="st27" d="M885,1983.6c2.4-1.1,2.9,0,2.5,2.2C886.5,1985.2,885.7,1984.5,885,1983.6z"/>
		<path class="st27" d="M1943.2,1990.3c-0.3-2.7,1.2-3.7,3.7-3.7C1945.7,1987.9,1944.5,1989.1,1943.2,1990.3z"/>
		<path class="st27" d="M1887.7,2031.3c0.8-2.2,1.8-4.1,4.7-3.3C1890.8,2029,1889.2,2030.2,1887.7,2031.3z"/>
		<path class="st27" d="M1875,2040.1c0.1-2.4,0.9-3.9,3.7-3.1C1877.5,2038.1,1876.3,2039.1,1875,2040.1z"/>
		<path class="st27" d="M1296,508.3c-1.5,1.2-3,2.5-4.5,3.7C1293.1,510.8,1294.6,509.6,1296,508.3z"/>
		<path class="st26" d="M1414.3,2111.2c-80.7,9.8-158.6-8.4-234.1-33.1c-109.4-35.9-207.1-93.7-292.4-172.2
			c-65.9-60.8-117.8-132.3-160.6-210c-24.5-44.4-44.8-92.1-59.7-140.5c-7.5-24.4-8.9-52.6-14.7-78.2c-12.1-53.4-13.9-107.2-11.8-161
			c6-154.3,51.1-295.8,140.2-423.3c68.9-98.7,156.3-176.5,260.2-235.1c76.5-43.2,159.6-69.6,246.2-87.2c54.5-11.1,108.4-5.2,162.5-8
			c20.1-1,40.8,11.1,60.4-2.8c39.7,14.2,81.6,20.1,122,32.4c104.8,31.8,200.6,80.3,283.4,151c96.5,82.3,173,180.3,220.8,299.7
			c34.6,86.4,54.2,174.7,54.9,268.2c0.4,46.9-2.1,93.7-2.1,140.6c0,24.6-11.5,49.1-17.7,73.7c-29.8,119.1-85.4,224.2-165.1,317.8
			c-85.8,100.9-191.1,173.6-313.5,221.1C1604.2,2098.9,1511.9,2121.5,1414.3,2111.2z M1309.4,1927.1c-0.1,18.1-0.6,36.1-0.2,54.2
			c0.5,24,18.1,43.9,41.5,44.4c42.2,0.9,84.4,1.1,126.5-0.2c28.3-0.9,38.7-12.9,45.7-39.6c5.6-21,2.5-41.7,2.9-62.6
			c3.5-17.8-4.8-36.9,5.6-54c35.5-1.8,69.1-11.8,102.2-23.8c109.2-39.6,169.9-128.8,163.1-238.6c0.3-10.4,0.3-20.7,0.8-31.1
			c1.1-23.4-0.6-46.5-8.7-68.7c-16.2-44.6-50.2-68.5-94.3-80.4c12.6-1.8,25.4-2.5,37.6-5.5c38.6-9.4,67.5-29.1,79.7-69.9
			c13.5-44.9,19.5-90.3,16.5-137c3.9-61-1.5-121.5-13.3-181.3c-17.3-87.5-58-160.4-136.7-208.1c-38.3-23.2-79.8-38.3-123.8-45
			c-23.8-3.6-30.3-13.7-28.7-36.7c2.2-30.7,0.9-61.7,0.4-92.6c-0.5-28.3-18.5-46.7-46.6-47.2c-41.4-0.6-82.9-0.7-124.3,0
			c-29.4,0.5-45.9,17.8-46.1,46.9c-0.3,34.6-1.7,69.4,0.2,103.9c1.2,22-7.6,29.2-27.6,34.7c-95.8,25.9-172.3,77.3-214,171.2
			c-27.6,62.1-34.2,129.3-37.4,195.4c-4.4,90.1-0.6,180.7-0.4,271c-0.4,52.4-0.9,104.5,7.3,156.8c14.7,93.3,53.7,170.7,133.5,224.6
			c40.9,27.6,86.8,43.3,134.1,55.7C1306.5,1884.9,1302.3,1906.4,1309.4,1927.1z"/>
		<path class="st25" d="M1030.1,1426.7c-0.3-90.4-4-180.9,0.4-271c3.2-66.2,9.8-133.3,37.4-195.4c41.7-93.9,118.2-145.3,214-171.2
			c20-5.4,28.8-12.7,27.6-34.7c-1.9-34.5-0.5-69.3-0.2-103.9c0.3-29.1,16.7-46.4,46.1-46.9c41.4-0.7,82.9-0.7,124.3,0
			c28.1,0.4,46.1,18.9,46.6,47.2c0.5,30.9,1.8,61.9-0.4,92.6c-1.6,23,4.8,33.1,28.7,36.7c43.9,6.6,85.5,21.8,123.8,45
			c78.7,47.6,119.3,120.5,136.7,208.1c11.8,59.8,17.2,120.2,13.3,181.3c-2.7,14.5-5.4,29-8.2,43.5c-9.1,47.5-33.7,81.8-82.6,93.3
			c-17.3,4.1-35.1,7-53.3,6.9c-103.8-0.4-207.6,0.4-311.3-0.6c-21.1-0.2-30.5,4.4-27.8,26.9c1.8,14.8,0.5,30,0.5,45.1
			c-2.2,29.3,5.5,57.7,7.9,86.5c3.9,47.9,31.4,81.9,75.8,85.8c56.3,4.9,87.4-17.4,97.5-69.9c4.7-24.4,10.3-48,27.6-67.7
			c13.9-15.9,33.9-21.7,49.7-34.2l1.5-0.2l1.5,0.1c5.1,0.2,10.3,1.4,14-3.7c24.5,0.2,48.9,0.4,73.4,0.6c44.1,11.9,78,35.8,94.3,80.4
			c8.1,22.3,9.8,45.3,8.7,68.7c-0.5,10.3-0.6,20.7-0.8,31.1c-6.3,2.9-6.7,8.8-8.6,14.7c-22,67.8-66.4,115.1-131.5,144.1
			c-34.4,15.3-69.7,26.2-106.9,31.7c-7.6,1.1-21.6-0.8-22.1,10.6c-0.8,20.4-6.3,41.5,3.9,61.3c-10.4,17.1-2.1,36.2-5.6,54
			c-12.3,24-32,32.6-58.7,31.4c-33.6-1.5-67.4-1.8-101,0.1c-25.3,1.5-43.3-7.3-56.7-27.8c-7.1-20.7-2.9-42.2-4.4-63.3
			c7-11.8,2.7-25,4.5-37.4c3.7-24.7-6-34.3-31-40.6c-137.8-34.3-223.8-136.2-241.4-277.2C1033.7,1481.2,1039,1453.3,1030.1,1426.7z
			 M1349.8,1154.3c45,0,89.9,0,134.9,0.1c37.6,0,37.6,0,33-36.1c9.4-31.4,4.7-61.5-7.3-91.3c-12.9-32-39.7-42-70.1-43.6
			c-31.5-1.6-61.3,7.6-75.9,37.9C1344.3,1063.2,1340.1,1108.3,1349.8,1154.3z"/>
		<path class="st23" d="M1694.6,1426.7c-24.5-0.2-48.9-0.4-73.4-0.6c-5.1-0.4-10.2-0.8-14,3.7l-1.5-0.1l-1.5,0.2
			c-86.2-0.1-172.3-0.3-258.4-0.4c-0.1-15,1.2-30.2-0.5-45.1c-2.7-22.6,6.7-27.2,27.8-26.9c103.8,1.1,207.6,0.3,311.3,0.6
			c18.2,0.1,36-2.8,53.3-6.9c48.9-11.6,73.5-45.9,82.6-93.3c2.8-14.5,5.4-29,8.2-43.5c3,46.7-3,92-16.5,137
			c-12.2,40.8-41.2,60.6-79.7,69.9C1719.9,1424.2,1707.1,1424.9,1694.6,1426.7z"/>
		<path class="st23" d="M1030.1,1426.7c8.9,26.6,3.7,54.5,7.1,81.9c17.7,141.1,103.6,242.9,241.4,277.2c24.9,6.2,34.6,15.9,31,40.6
			c-1.8,12.4,2.5,25.6-4.5,37.4c-47.2-12.4-93.2-28.1-134.1-55.7c-79.8-53.9-118.8-131.2-133.5-224.6
			C1029.2,1531.2,1029.6,1479.1,1030.1,1426.7z"/>
		<path class="st23" d="M1531.5,1869.3c-10.2-19.8-4.7-40.9-3.9-61.3c0.5-11.3,14.6-9.4,22.1-10.6c37.2-5.6,72.5-16.4,106.9-31.7
			c65.1-29.1,109.5-76.3,131.5-144.1c1.9-5.8,2.3-11.7,8.6-14.7c6.8,109.9-53.9,199-163.1,238.6
			C1600.6,1857.6,1566.9,1867.5,1531.5,1869.3z"/>
		<path class="st23" d="M1309.4,1927.1c13.4,20.5,31.4,29.3,56.7,27.8c33.6-2,67.4-1.6,101-0.1c26.7,1.2,46.4-7.4,58.7-31.4
			c-0.3,20.9,2.7,41.6-2.9,62.6c-7.1,26.7-17.4,38.7-45.7,39.6c-42.1,1.3-84.3,1.1-126.5,0.2c-23.4-0.5-41.1-20.4-41.5-44.4
			C1308.8,1963.2,1309.3,1945.2,1309.4,1927.1z"/>
		<path class="st26" d="M1345.7,1429.4c86.1,0.1,172.3,0.3,258.4,0.4c-15.8,12.5-35.8,18.3-49.7,34.2
			c-17.2,19.7-22.9,43.3-27.6,67.7c-10.1,52.5-41.2,74.8-97.5,69.9c-44.4-3.9-71.8-37.9-75.8-85.8
			C1351.2,1487.2,1343.5,1458.8,1345.7,1429.4z"/>
		<path class="st26" d="M1517.8,1118.3c4.6,36.1,4.6,36.1-33,36.1c-45,0-89.9,0-134.9-0.1c1.2-22.2,0.4-45.2,13.6-64.4
			c24-34.9,60.1-39.9,97.7-33.6C1494.7,1061.8,1511.1,1086.4,1517.8,1118.3z"/>
		<path class="st23" d="M1517.8,1118.3c-6.6-31.9-23.1-56.5-56.6-62c-37.7-6.3-73.8-1.3-97.7,33.6c-13.2,19.2-12.4,42.2-13.6,64.4
			c-9.7-46-5.5-91.1,14.6-133c14.5-30.3,44.4-39.5,75.9-37.9c30.4,1.5,57.2,11.6,70.1,43.6
			C1522.5,1056.8,1527.1,1086.9,1517.8,1118.3z"/>
		<path class="st27" d="M1607.2,1429.8c3.8-4.5,8.9-4.1,14-3.7C1617.5,1431.2,1612.3,1430,1607.2,1429.8z"/>
	</g>
</g>
<g id="Layer_2_00000001636487136612088780000006377588886458314903_">
	<path d="M2409.2,2598.7c-661.2,0-1322.3,0-1983.5,0c-1.9-1.2-3.5-3.1-5.6-3.6c-118.9-28.8-183.5-109.8-183.5-231.1
		c0-434.4,0.1-868.9-0.4-1303.2c0-35.9,13.4-61,43.1-80.7c360.8-240,721.1-480.5,1081.7-720.9c46.4-31,66.7-30.9,113.4,0.1
		c356.6,237.8,713.2,475.8,1070,713.2c22.8,15.1,42.6,31.9,53.9,57.4c0,459.9,0,919.7,0,1379.6c-1.7,4.8-3.7,9.7-5,14.7
		c-20.6,81.5-70.3,136.3-149.6,164.1C2432.5,2592.2,2420.8,2595.2,2409.2,2598.7z M384.1,1187c0,11.8,0,18.7,0,25.6
		c0,383.7,0,767.5,0,1151.1c0,59.4,27.9,87.2,87.7,87.3c630.4,0,1260.9,0,1891.3,0c59.8,0,87.7-27.6,87.7-87.2
		c0-383.7,0-767.5,0-1151.1c0-7.3-0.6-14.5-1.1-24.6c-9.4,6-16.5,10.1-23.3,14.7c-317.7,211.8-635.3,423.6-953.1,635.5
		c-45.2,30.2-65.9,30-111.4-0.2c-317.1-211.4-634.2-422.8-951.2-634.2C403,1198.8,395.4,1194.1,384.1,1187z M2390.6,1049
		c-7.1-5.3-11.1-8.7-15.3-11.5c-313.8-209.3-627.8-418.6-941.4-628c-12-8.1-20.2-8.3-32.5-0.1c-312.9,209.2-626.2,417.9-939.3,626.9
		c-5.3,3.6-10.2,7.9-16.3,12.8c6.6,4.7,10.8,8.1,15.1,10.9c313.1,208.8,626.5,417.4,939.3,626.9c14.7,9.8,23.6,7.3,36.4-1.2
		c245.8-164.4,492.1-328.4,738.1-492.6C2245.7,1145.7,2316.6,1098.4,2390.6,1049z"/>
</g>
</svg>
