<?xml version="1.0" encoding="utf-8"?>
<!-- Generator: Adobe Illustrator 27.3.1, SVG Export Plug-In . SVG Version: 6.00 Build 0)  -->
<svg version="1.1" id="Layer_1" xmlns="http://www.w3.org/2000/svg" xmlns:xlink="http://www.w3.org/1999/xlink" x="0px" y="0px"
	 viewBox="0 0 2834.65 2834.65" style="enable-background:new 0 0 2834.65 2834.65;" xml:space="preserve">
<style type="text/css">
	.st0{display:none;}
	.st1{display:inline;fill-rule:evenodd;clip-rule:evenodd;fill:#108DE8;}
	.st2{display:inline;fill-rule:evenodd;clip-rule:evenodd;fill:#FFFFFF;}
	.st3{display:inline;fill-rule:evenodd;clip-rule:evenodd;fill:#79BBE7;}
	.st4{display:inline;fill:#0061AE;}
	.st5{display:inline;fill-rule:evenodd;clip-rule:evenodd;fill:url(#SVGID_1_);}
	.st6{display:inline;fill-rule:evenodd;clip-rule:evenodd;fill:#EE4E2C;}
	.st7{display:inline;fill-rule:evenodd;clip-rule:evenodd;fill:#FEFEFE;}
	.st8{display:inline;fill:#EE4E2C;}
	.st9{fill:#C47E4D;}
	.st10{fill:#A86A3F;}
	.st11{fill:#CA8B5F;}
	.st12{fill:#B27245;}
	.st13{fill:#B37346;}
	.st14{fill:#5ABEAC;}
	.st15{fill:#3DB39E;}
	.st16{fill:#C88B60;}
	.st17{fill:#FBFDFD;}
	.st18{fill:#EFC75E;}
	.st19{fill:#D7B254;}
	.st20{fill:#8BD2C5;}
	.st21{fill:#77CABB;}
	.st22{display:inline;fill:#D6A041;}
	.st23{display:inline;fill:#FFFEFB;}
	.st24{display:inline;fill:#FFCC5C;}
	.st25{display:inline;fill:#FFEEAD;}
	.st26{display:inline;fill:#FFCD5F;}
</style>
<g id="Layer_x0020_1" class="st0">
	<path class="st1" d="M413.82,1020.07c-131.43,12.43-237.93,82.02-302.62,189.43c-42.04,69.79-61.79,152.48-55.7,237.34
		c14.91,207.6,193.32,383.36,421.67,365.27c204.88-16.24,373.93-200.55,356.61-427.24c-6.34-83-35.19-151.4-81.43-213.16
		c-20.94-27.96-25.07-28.42-46.93-51.31c-27.11-28.4-84.45-61-121.03-75.42C535.33,1025.62,472.86,1014.49,413.82,1020.07
		L413.82,1020.07z"/>
	<path class="st2" d="M218.68,1300.2c-4.98,14.39-2.02,174.35-2.02,204.02c0,32.1-6.34,42.12,43.88,59.3
		c132.96,45.47,264.63-108.71,396.84-32.42c6.13,3.53,13.59,10.78,15.34-0.93l0.05-205.78c0.01-22.14,1.99-29.07-12.69-39.29
		c-118.31-82.42-246.41,58.56-366.46,42.74C249.2,1321.99,230.8,1299.33,218.68,1300.2L218.68,1300.2z"/>
	<path class="st1" d="M1132.14,1617.43c51.83,3.7,112.2-36.49,133.48-59.51c73.89-79.97,75.67-195.68,1.29-279.42
		c-27.7-31.18-92.55-65.64-133.91-60.82l-149.38,0.11l-0.04,399.13L1132.14,1617.43z M1067.49,1530.95c11,1.91,56.19,1.2,68.61,0.06
		c102.05-9.33,138.09-148.86,52.3-207.31c-14.24-9.71-30.08-17.44-50.87-19.75c-11.38-1.27-60.01-2.06-70.09-0.24L1067.49,1530.95
		L1067.49,1530.95z"/>
	<path class="st1" d="M2440.53,1618.17l84.97-0.04l0.09-86.03l168.6,0.03l0.49,86.01l84.93,0.01c0.06-47.8,0.02-95.23,0.02-142.64
		c0-42.71,3.59-96.18-6.95-134.93c-17.82-65.58-80.18-123.74-162.25-124.06c-82.95-0.32-143.16,57.67-162.39,122.29
		c-11.38,38.25-7.58,93.08-7.58,135.18C2440.47,1521.98,2439.98,1570.22,2440.53,1618.17L2440.53,1618.17z M2525.58,1445.56
		l169.03,0.07c0.41-36.9,4.37-72.76-12.19-101.03c-11.85-20.22-36.84-41.39-71.94-41.53c-35.81-0.15-59.69,20.17-72.46,41.12
		C2521.27,1371.67,2525.06,1409.5,2525.58,1445.56z"/>
	<path class="st1" d="M1468.64,1618.08l84.68,0.07c0.05-17.96-2.27-72.99,0.82-86.04l167.96,0.02l0.6,85.96l84.79,0.08
		c-0.44-47.66-0.04-95.26-0.04-142.66c0-40.67,3.77-98.93-6.89-134.98c-48.53-164.19-274.43-165.35-324.57-1.64
		c-11.36,37.08-7.48,93.81-7.48,135.11C1468.51,1521.65,1467.42,1570.59,1468.64,1618.08L1468.64,1618.08z M1553.37,1445.55
		l169.24,0.09c0.35-36.36,4.33-72.9-12.27-101.11c-30.38-51.64-107.63-59.07-144.39-0.25
		C1549.15,1371.17,1552.82,1410.15,1553.37,1445.55L1553.37,1445.55z"/>
	<path class="st1" d="M1956.54,1373.58l-1.16,59.62c0,49.99-2.49,143.24,0.18,183.8l83.04,0.04c1.93-28.43-3-231.3,2.26-237.76
		c0.02-39.42,41.12-76.08,82.69-76.23c25.54-0.1,44.15,10.3,57.71,22.63c10.58,9.63,26.76,31.58,26.46,53.81
		c3.89,2.19,0.82,213.8,2.04,237.49l83.13,0.06l-0.66-242.25c2.08-18.98-9.35-48.32-16.68-63.21
		c-61.54-125.08-238.17-126.74-301.46-2.16C1966.66,1324.03,1954.79,1354.17,1956.54,1373.58z"/>
	<path class="st3" d="M1132.14,1617.43l-148.57-0.5l0.04-399.13l149.38-0.11c-2.72-3.8-65.04-1.53-73.77-1.53
		c-21.73,0-56.04-2.05-76.24,0.32c-1.91,6.36-2.69,391.47-0.13,401.85c13.75,1.77,109.61,0.4,139.92,0.48l8.33-0.88
		C1131.36,1617.86,1131.8,1617.6,1132.14,1617.43L1132.14,1617.43z"/>
	<path class="st3" d="M2207.72,1379.5c0.89,32.65-1.77,227.21,1.28,238.88l84.64,0.37c2.21-9.35,0.85-161.06,0.85-184.03
		c0-10.98,2.94-54.11-2.27-59.92l0.66,242.25l-83.13-0.06C2208.53,1593.29,2211.6,1381.68,2207.72,1379.5L2207.72,1379.5z"/>
	<path class="st3" d="M2040.86,1379.29c-5.26,6.46-0.33,209.33-2.26,237.76l-83.04-0.04c-2.66-40.56-0.18-133.81-0.18-183.8
		l1.16-59.62c-4.72,2.05-2.61,108.32-2.61,121.58c0,19.31-2.3,112.19,1.01,123.26l84.6,0.31L2040.86,1379.29L2040.86,1379.29z"/>
</g>
<g id="Layer_x0020_1_00000163771617593982936790000000216729778176873395_" class="st0">
	<path class="st4" d="M2077.77,1472.1h95.15v327.17h-95.15V1472.1z M1843.61,1799.27v-225.61c0-18.46-0.33-36.17-0.98-53.21
		c-0.64-16.95-1.51-33.03-2.83-48.35h87.23l3.47,58.55c8.26-20.09,21.51-35.29,39.65-45.62c18.03-10.32,40.62-15.42,67.56-15.42
		h2.82l-0.33,85.92c-5.75-0.43-9.99-0.76-12.82-0.98c-2.94-0.22-5.53-0.33-7.82-0.33c-24.88,0-44.32,6.08-58.32,18.15
		c-14.12,12.05-21.19,28.89-21.19,50.29v176.62H1843.61L1843.61,1799.27z M1699.75,1472.1h95.15v327.17h-95.15V1472.1z
		 M1545.57,1799.27l-3.14-46.71c-11.73,17.6-25.84,30.86-42.36,39.76c-16.5,8.9-35.18,13.36-56.05,13.36
		c-39.64,0-71.79-15.54-96.56-46.6c-24.66-31.07-37.03-72.24-37.03-123.28c0-51.38,12.06-92.55,36.27-123.39
		c24.22-30.85,56.27-46.27,96.12-46.27c21.61,0,40.52,4.23,56.59,12.6c16.19,8.37,30.08,21.18,41.72,38.34v-187.14h94.49v403.52
		c0,16.52,0.22,29.98,0.75,40.2c0.55,10.31,1.42,18.9,2.4,25.63H1545.57z M1406.86,1636.34c0,33.78,5.87,59.96,17.49,78.53
		s28.02,27.8,48.98,27.8c21.4,0,38.46-9.45,50.95-28.45s18.79-44.97,18.79-77.88c0-33.03-6.3-59.2-18.79-78.21
		c-12.49-19.11-29.55-28.67-50.95-28.67c-20.96,0-37.36,9.33-48.98,28.13C1412.73,1576.38,1406.86,1602.67,1406.86,1636.34z
		 M957.2,1799.27v-264.39c0-9.33-0.22-19.1-0.76-29.32c-0.53-10.2-1.4-21.39-2.38-33.46h90.59l1.95,49.1
		c12.28-19.77,26.94-34.22,43.78-43.34c16.83-9.12,37.47-13.69,61.91-13.69c36.05,0,62.78,10.22,80.26,30.75
		c17.48,20.41,26.29,51.69,26.29,93.73v210.61h-93.53v-197.58c0-24.44-4.23-41.92-12.6-52.57c-8.36-10.54-21.94-15.86-40.83-15.86
		c-18.26,0-33.03,5.87-44.11,17.7c-11.19,11.73-16.72,27.38-16.72,46.93v201.38H957.2L957.2,1799.27z M55.31,1799.27v-264.39
		c0-11.73-0.23-22.69-0.65-33.01c-0.45-10.32-1.09-20.2-1.85-29.77h90.05l2.5,49.1c12.26-19.77,26.82-34.22,43.77-43.34
		c16.83-9.12,37.47-13.69,61.8-13.69c24.65,0,45.39,5.44,62.45,16.41c16.94,10.97,29.32,26.82,37.15,47.58
		c10.64-22.05,24.54-38.24,41.7-48.56c17.17-10.32,38.89-15.43,65.28-15.43c36.06,0,62.9,10.22,80.5,30.75
		c17.59,20.41,26.39,51.69,26.39,93.73v210.61H469.9v-197.58c0-24.44-4.24-41.92-12.6-52.57c-8.37-10.54-21.94-15.86-40.85-15.86
		c-18.24,0-32.9,5.87-43.77,17.7c-10.97,11.73-16.4,27.38-16.4,46.93v201.38h-94.49v-197.58c0-24.22-4.13-41.61-12.38-52.35
		c-8.25-10.75-21.61-16.08-40.09-16.08c-18.23,0-32.68,5.87-43.44,17.49c-10.75,11.73-16.08,27.37-16.08,47.13v201.38
		C149.8,1799.27,55.31,1799.27,55.31,1799.27z M820.07,1765.1c-19.06,16.65-56.35,34.51-81.99,40.27
		c-9.83,2.31-20.55,3.39-32.14,3.39c-27.5,0-50.5-9.69-69.04-28.98c-18.54-19.39-27.76-44.07-27.76-74.05
		c0-24.08,4.74-43.66,14.15-58.85c9.49-15.29,22.83-27.29,40.14-36.08c17.12-8.7,38.47-14.99,63.85-18.69
		c25.39-3.7,51.73-6.49,78.96-8.19v-1.8c0-78.24-111.59-68.5-159.29-35.05l-16.52-61.64c37.29-17.51,73.98-26.4,119.59-26.4
		c80,0,147.56,38.36,147.56,130.03v210.92h-77.51V1765.1L820.07,1765.1z M812.58,1701.26v-63.07c-14.42,1.38-30.15,3.23-47,5.54
		c-16.84,2.41-29.63,5.2-38.36,8.32c-10.66,3.81-18.87,9.47-24.45,16.74c-5.7,7.38-8.53,16.97-8.53,28.98
		C694.23,1780.63,790.98,1753.73,812.58,1701.26L812.58,1701.26z"/>
	
		<linearGradient id="SVGID_1_" gradientUnits="userSpaceOnUse" x1="1222.5149" y1="1308.246" x2="2684.3247" y2="1913.2224" gradientTransform="matrix(0.9999 0 0 -0.9999 0.0697 2835.1968)">
		<stop  offset="0" style="stop-color:#F6AD02"/>
		<stop  offset="0.2" style="stop-color:#FFF000"/>
		<stop  offset="0.4118" style="stop-color:#F6AD02"/>
		<stop  offset="0.6588" style="stop-color:#FFF000"/>
		<stop  offset="0.7882" style="stop-color:#F6AD02"/>
		<stop  offset="1" style="stop-color:#FFF000"/>
	</linearGradient>
	<path class="st5" d="M1108.9,1263.7c29.19,32.62,83.51,121.07,147.81,115.61c150.66-12.81,236.46-175.72,422.46-164.1
		c76.41,4.78,112.39,132.94,188.15,143.98c119.43,17.41,233.85-166.22,428.49-155.69c80.01,4.33,113.09,138.77,192.85,146.53
		c74.36,7.24,190.83-98.18,293.18-152.83c-26.06-43.89-74.49-112.43-126.05-115.9c-101.5-6.83-182.69,122.84-271.96,100.2
		c-51.96-13.18-111.14-155.9-196.73-155.62c-158.44,0.52-267.77,157.39-407.85,169.79c-79.49,7.03-117.71-169.77-224.15-153.51
		C1409.43,1064.4,1260.55,1184.43,1108.9,1263.7L1108.9,1263.7z"/>
</g>
<g id="Layer_x0020_1_00000174572378740973003360000006651258118980115866_" class="st0">
	<path class="st6" d="M201.05,1015.2h868.14c57.68,0,104.88,47.19,104.88,104.88v607.51c0,57.68-47.19,104.88-104.88,104.88H175.8
		c-57.68,0-104.88-47.19-104.88-104.88V977.13c0-27.38,22.53-46.22,49.72-49.72L921.2,825.26c27.38,0,49.72,22.33,49.72,49.72v84.87
		H151.33c0,35.74,10.68,55.16,50.11,55.16L201.05,1015.2z M687.95,1680.78L687.95,1680.78c-73.03,13.98-166.83-10.29-217.91-65.26
		c-23.11-24.67,14.18-62.15,37.29-37.1c34.38,36.9,95.55,54.19,145.47,53.02c63.7-1.36,120.41-59.24,84.1-123.91
		c-50.11-89.53-173.43-64.48-236.75-134.79c-51.27-56.71-27-146.05,33.21-185.67c62.73-41.37,171.3-39.81,222.77,19.42
		c22.33,25.44-14.95,62.73-37.29,37.1c-41.76-47.78-140.22-41.37-177.9,7.96c-53.6,70.31,26.61,108.18,82.54,125.08
		c76.91,23.31,162.17,65.84,176.15,154.01c11.26,71.08-43.89,137.12-111.87,150.32L687.95,1680.78z"/>
	<path class="st7" d="M687.95,1680.97L687.95,1680.97c-73.03,13.98-166.83-10.29-217.91-65.26c-23.11-24.67,14.18-62.15,37.29-37.1
		c34.38,36.9,95.55,54.19,145.47,53.02c63.7-1.36,120.22-59.24,84.1-123.91c-50.11-89.53-173.43-64.48-236.75-134.79
		c-51.27-56.71-27-146.05,33.21-185.67c62.73-41.37,171.1-39.62,222.77,19.42c22.14,25.44-14.95,62.73-37.29,37.1
		c-41.76-47.78-140.22-41.37-177.9,7.96c-53.6,70.31,26.61,108.18,82.54,125.08c76.91,23.31,162.17,65.84,176.35,154.01
		c11.26,71.08-43.89,137.12-111.87,150.32V1680.97z"/>
	<path class="st8" d="M2183.02,977.91c-31.07,0-59.04,13.21-78.07,33.99v-24.28c0-21.95-35.15-21.95-35.15,0v286.66
		c0,21.95,35.15,21.95,35.15,0v-127.6c19.23,20.98,47,33.99,78.07,33.99c57.68,0,104.49-45.45,104.49-101.38
		C2287.51,1023.36,2240.7,977.91,2183.02,977.91z M2183.02,1144.16L2183.02,1144.16c-36.9,0-66.81-29.13-66.81-64.67
		c0-32.24,24.28-59.04,56.13-63.9c0.19,0,0.39,0,0.58,0c3.3-0.39,6.6-0.78,10.1-0.78c27.19,0,50.69,15.93,60.98,38.65v0.19
		c3.5,7.96,5.63,16.7,5.63,25.83C2249.64,1115.22,2219.73,1144.16,2183.02,1144.16z M1923.55,1180.86
		c-57.68,0-104.49-45.45-104.49-101.38c0-55.93,46.81-101.38,104.49-101.38s104.49,45.45,104.49,101.38
		C2028.03,1135.42,1981.23,1180.86,1923.55,1180.86z M1923.55,1014.62L1923.55,1014.62c-36.9,0-66.81,29.13-66.81,64.67
		c0,35.74,29.91,64.67,66.81,64.67s66.81-29.13,66.81-64.67C1990.36,1043.55,1960.45,1014.62,1923.55,1014.62z M2763.53,1077.35
		c-0.78-46.61-25.44-88.76-76.33-98.08c-43.89-7.96-95.17,14.37-113.81,54.19c-19.42,41.37-11.26,98.27,27,127.21
		c41.37,31.27,106.04,21.56,148.58-1.55c19.81-10.68,2.14-40.2-17.87-29.52c-27,14.76-62.15,21.75-92.25,12.04
		c-22.53-7.38-35.15-26.22-39.04-47.39h146.24c9.32,0,17.67-7.77,17.67-17.09L2763.53,1077.35z M2600.97,1060.26L2600.97,1060.26
		c0.19-1.36,0.58-2.52,0.97-3.69c8.35-27.77,37.29-43.89,66.42-44.67c33.41-0.97,52.24,21.56,58.07,48.36H2600.97z M2529.5,1077.54
		c-0.78-46.61-25.44-88.76-76.33-98.08c-43.89-7.96-95.17,14.37-113.81,54.19c-19.42,41.37-11.26,98.27,27,127.21
		c41.37,31.27,106.04,21.56,148.58-1.55c19.81-10.68,2.14-40.2-17.87-29.52c-27,14.76-62.15,21.75-92.25,12.04
		c-22.53-7.38-35.15-26.22-39.04-47.39h146.24c9.32,0,17.67-7.77,17.67-17.09L2529.5,1077.54z M2366.94,1060.45L2366.94,1060.45
		c0.19-1.36,0.58-2.52,0.97-3.69c8.35-27.77,37.29-43.89,66.42-44.67c33.41-0.97,52.24,21.56,58.07,48.36H2366.94z M1777.88,1044.72
		v118.47c0,22.33-35.15,22.33-35.15,0v-116.14c-1.17-22.92-20.78-33.6-21.36-33.79c-25.05-10.88-70.5-5.83-97.5,28.55v121.58
		c0,22.33-35.15,22.33-35.15,0V859.05c0-22.33,35.15-22.33,35.15,0v136.73c43.12-28.74,97.88-25.64,123.72-7.96
		c0,0,31.07,16.9,30.49,57.1L1777.88,1044.72z M1530.84,872.84c-34.57-38.07-106.82-39.04-148.77-12.43
		c-40.2,25.44-56.52,82.74-22.14,119.25c42.34,45.25,124.69,29.13,158.09,86.62c24.08,41.56-13.6,78.66-56.13,79.63
		c-33.41,0.78-74.19-10.49-97.11-34.18c-15.54-15.93-40.2,7.96-24.86,23.89c33.99,35.15,96.72,50.88,145.47,41.76
		c45.45-8.35,82.15-50.88,74.77-96.53c-9.32-56.52-66.23-83.9-117.69-98.86c-37.48-10.88-90.89-35.15-55.16-80.21
		c25.05-31.66,90.89-35.74,118.67-5.05C1520.94,913.24,1545.6,889.15,1530.84,872.84z"/>
	<path class="st6" d="M2447.93,2009.39h-111.67l119.64-225.87l-196.16-370.76h121.19l135.56,256.36l135.56-256.36h111.67
		L2447.93,2009.39z M1334.88,1832.65h93.61v-171.1h126.24c130.9,0,237.14-91.86,237.14-205.09c0-113.23-106.24-205.09-237.14-205.09
		h-219.85C1334.88,1445.19,1334.88,1639.02,1334.88,1832.65z M1428.49,1567.94v-222.96h126.24c71.08,0,128.77,49.91,128.77,111.48
		c0,61.57-57.68,111.48-128.77,111.48H1428.49z M2142.43,1416.45h82.15v412.71h-82.15v-46.42c-36.71,31.27-84.1,50.11-135.95,50.11
		c-115.95,0-209.95-94-209.95-209.95c0-115.95,94-209.95,209.95-209.95c51.86,0,99.44,18.84,135.95,50.11v-46.42V1416.45z
		 M2006.48,1501.32c67,0,121.58,54.38,121.58,121.58c0,67-54.38,121.58-121.58,121.58c-67,0-121.58-54.38-121.58-121.58
		C1884.9,1555.9,1939.28,1501.32,2006.48,1501.32z"/>
</g>
<g>
	<path class="st9" d="M2098.43,1864.29c-86.09-0.35-162.59-54.78-197.37-140.12c-30.17-74.04-10.42-168.06,45.75-226.08
		c46.12-47.64,102.59-69.34,167.57-70c79.85-0.81,159.72-0.17,239.58-0.15c-0.03-90.95-0.06-181.89-0.1-272.84
		c-5.93-2.78-7.5-8.52-9.69-13.95c-26.46-65.53-81.04-102.69-152.78-102.94c-103.87-0.36-207.75-0.1-311.62-0.1
		c-440.82,0-881.64-0.27-1322.46,0.32c-58.74,0.08-101.21-22.67-126.49-76.07c-2-4.22-4.19-8.07-8.75-9.93
		c-0.04,44.04-0.08,88.07-0.12,132.11h-0.1v100.66c-0.11,111.33-0.26,222.66-0.5,334c0,1.92,0.26,3.92,0.5,5.95v9.05
		c-0.12,0.51-0.26,1.02-0.45,1.52c0.13,0.44,0.2,0.93,0.2,1.46v40.48c0.11,0.33,0.18,0.66,0.25,0.99v9.03
		c-0.09,0.72-0.18,1.44-0.25,2.15v3.07c0,0.61-0.09,1.16-0.25,1.65c0.25,149.06,0.18,298.13,0.22,447.19
		c0,7.13,0.39,14.26,0.6,21.39c4.18,8.58,6.1,17.76,7.24,27.15c16.9,33.83,38.16,63.54,72.43,82.42
		c20.14,11.09,40.99,18.17,63.93,19.03c548.22,0,1096.44,0,1644.65,0c59.9-4.19,100.76-36.31,128.41-87.67
		c3.06-5.69,5.42-11.75,8.1-17.64c2.36-7.74,4.73-15.48,7.09-23.22c0.51-66.09,1.02-132.18,1.52-198.27
		C2269.84,1864.73,2184.13,1864.64,2098.43,1864.29z"/>
	<path class="st10" d="M2417,1825.31c-10.18,3.44-11.28,14.81-18.66,21.12c-12.61,10.79-25.62,19.01-42.8,18.49
		c-85.7-0.2-171.4-0.29-257.1-0.63c-86.09-0.35-162.59-54.78-197.37-140.12c-30.17-74.04-10.42-168.06,45.75-226.08
		c46.12-47.64,102.59-69.34,167.57-70c79.85-0.81,159.72-0.17,239.58-0.15c30.1,3.26,49.59,20.85,63.04,46.63
		C2417,1591.49,2417,1708.4,2417,1825.31z M2199.04,1728.06c32.52-33.11,38.48-92.79,17.98-135.79
		c-35.69-74.86-136.62-89.21-193.26-39.12c-32.57,24.91-43.87,59.03-43.32,98.61c0.69,49.84,34.54,96.63,82.62,113.46
		C2113.09,1782.73,2166.83,1768.04,2199.04,1728.06z"/>
	<path class="st10" d="M1087.79,696.38c-69.43-0.17-138.87-1.09-208.29-0.35c-106.93,1.15-213.94-4.27-320.78,2.96
		c-50.75,3.43-87.75,29.49-114.82,72.14c-6.37,10.04-8.89,22.66-16.17,32.16c0.11,0.66,0.09,1.38-0.12,2.15
		c-0.41,1.55-0.99,2.74-1.85,3.77c0.01,1.28,0.03,2.53-0.13,3.57c-0.57,3.67-1.22,7.34-1.83,11.01c-0.83,4.98-1.69,9.98-2.37,14.99
		c2.34,9.04-2.09,18.99,0.96,27.93c1.01,1.36,2.01,2.72,3.02,4.08c3.07,55.23,54.8,102.56,115.56,104.73
		c26.45,0.94,52.97,0.03,79.46-0.04c40.59-27.78,84.31-50.3,126.63-75.15c110.49-64.88,221.39-129.06,332.09-193.59
		c3.29-1.92,6.13-4.62,9.18-6.96C1087.87,698.7,1087.69,697.56,1087.79,696.38z"/>
	<path class="st11" d="M422.07,952.44c0.04-27.38,0.09-54.77,0.13-82.15c1.07,0.15,2.13,0.32,3.19,0.51
		c3.07,55.23,54.8,102.56,115.56,104.73c26.45,0.94,52.97,0.03,79.46-0.04c87.21-0.11,174.41-0.22,261.61-0.34
		c1.1,0.43,2.21,0.86,3.31,1.29c4.99,8.17,13.23,7.04,20.89,7.04c113.42,0.06,226.84,0.05,340.26,0c7.69,0,15.88,0.99,20.92-7.06
		l0.11-1.34c110.19,0.01,220.38,0.03,330.57,0.04c2.75,0.44,5.51,0.88,8.26,1.32c14.9,10.15,43.53,10.15,58.42,0
		c1.28-0.44,2.55-0.88,3.83-1.31c49.39,0.01,98.79,0.02,148.18,0.03c15.61,0,31.22,0,46.82-0.01c20.97-0.01,41.95-0.02,62.92-0.04
		c44.05,0.12,88.11,0.24,132.16,0.37c42.8,0.12,85.61,0.61,128.41,0.24c38.15-0.33,73.01,9.47,104.55,30.98
		c47.91,38.08,67.47,88.04,62.21,148.4c-5.93-2.78-7.5-8.52-9.69-13.95c-26.46-65.53-81.04-102.69-152.78-102.94
		c-103.87-0.36-207.75-0.1-311.62-0.1c-440.82,0-881.64-0.27-1322.46,0.32c-58.74,0.08-101.21-22.67-126.49-76.07
		C428.82,958.15,426.63,954.3,422.07,952.44z"/>
	<path class="st12" d="M2353.96,2109.8c-2.71,64.71-52.96,124.99-115.94,140.63c-20.14,5-40.1,5.39-60.6,5.38
		c-528.48-0.29-1056.95-0.37-1585.43,0.04c-41.49,0.03-79.39-7-112.16-34.48c-40.99-34.38-62.98-76.56-57.64-131.05
		c2.4-0.01,4.81-0.02,7.21-0.03c16.9,33.83,38.16,63.54,72.43,82.42c20.14,11.09,40.99,18.17,63.93,19.03
		c7.72,11.92,19.92,7.51,30.3,7.52c528.01,0.21,1056.03,0.18,1584.04,0.18c5.2,0,10.39-0.08,15.59-0.13
		c6.17-0.06,11.59-1.58,14.72-7.56c59.9-4.19,100.76-36.31,128.41-87.67c3.06-5.69,5.42-11.75,8.1-17.64c2.36,0,4.71,0,7.07,0
		c0,5.19,0,10.39,0,15.58C2348.93,2104.58,2348.91,2107.19,2353.96,2109.8z"/>
	<path class="st13" d="M2210.42,2191.74c-3.13,5.98-8.55,7.5-14.72,7.56c-5.2,0.05-10.39,0.13-15.59,0.13
		c-528.01,0.01-1056.03,0.03-1584.04-0.18c-10.38,0-22.58,4.4-30.3-7.52C1113.98,2191.74,1662.2,2191.74,2210.42,2191.74z"/>
	<path class="st13" d="M429.4,2090.29c-2.4,0.01-4.81,0.02-7.21,0.03c-0.01-9.06-0.02-18.12-0.03-27.19
		C426.34,2071.71,428.26,2080.9,429.4,2090.29z"/>
	<path class="st13" d="M2353.99,2086.42c-2.36,0-4.71,0-7.07,0c2.36-7.74,4.73-15.48,7.09-23.22
		C2354.01,2070.94,2354,2078.68,2353.99,2086.42z"/>
	<path class="st14" d="M1816.79,975.17c-49.39-0.01-98.79-0.02-148.18-0.03c-62.12-107.88-124.07-215.85-186.5-323.55
		c-12.13-20.93-27.25-24.03-49.44-11.42c-37.21,21.14-74.11,42.81-111.15,64.24c-23.01,13.32-46.51,25.86-68.91,40.12
		c-24.97,15.89-25.5,40.73-2.4,54.71c12.26,7.42,23.2,4.06,34.62-2.6c47.06-27.41,94.51-54.17,141.47-81.75
		c12.36-7.26,19.15-5.03,26.23,7.39c48.19,84.47,96.98,168.61,145.58,252.85c-110.19-0.01-220.38-0.03-330.57-0.04
		c-26.85-39.1-66.01-61.5-108.94-77.38c-61.86-22.87-125.54-21.35-184.8,4.46c-35.19,15.33-68.12,39.91-91.75,72.97
		c-87.2,0.11-174.41,0.23-261.61,0.34c40.59-27.78,84.31-50.3,126.63-75.15c110.49-64.88,221.39-129.06,332.09-193.59
		c3.29-1.92,6.13-4.62,9.18-6.96c2.33-1.3,4.67-2.61,7-3.91c55.36-31.85,110.82-63.53,166.05-95.6
		c65.28-37.91,130.13-76.54,195.6-114.11c35.39-20.31,70.67-10.06,92.04,26.25c30.39,51.64,59.98,103.74,89.92,155.64
		c-0.43,1.97,0.36,2.72,2.31,2.31c1.37,0.53,2.74,1.06,4.11,1.59c16.45,39,38.95,74.53,62.7,109.35
		c7.56,19.87,18.05,38.06,31.27,54.69c2.15,4.68,3.99,9.55,6.51,14.02C1769.43,891.77,1793.13,933.46,1816.79,975.17z"/>
	<path class="st10" d="M2291.66,1006.71c-31.54-21.51-66.41-31.31-104.55-30.98c-42.8,0.37-85.61-0.12-128.41-0.24
		c-14.35-52.73-29.81-105.19-42.67-158.28c-9.83-40.56-24.94-79.75-31.06-121.23c46.08-0.04,92.16-0.14,138.24-0.11
		c78.86,0.05,136.27,42.44,158.58,102.83c6.78,18.35,9.17,37.6,9.81,56.21C2293.35,905.45,2291.86,956.1,2291.66,1006.71z"/>
	<path class="st15" d="M1984.96,695.99c6.12,41.48,21.23,80.67,31.06,121.23c12.86,53.09,28.33,105.55,42.67,158.28
		c-44.05-0.12-88.1-0.25-132.16-0.37c-5.1-16.01-11.03-31.82-15.12-48.08c-12.29-48.81-23.26-97.96-35.92-146.67
		c-8.32-32-19.52-37.87-50.92-29.74c-38.88,10.07-77.67,20.44-116.51,30.68c-23.75-34.81-46.26-70.34-62.7-109.35
		c57.24-15.62,114.32-31.86,171.78-46.62c33.27-8.55,65.53-22.3,101.18-20.03c23.86,1.51,43.85,16.63,50.82,39.83
		C1974.25,662.13,1976.88,679.92,1984.96,695.99z"/>
	<path class="st16" d="M1095.32,695.88c-2.33,1.3-4.67,2.6-7,3.91c-0.45-1.09-0.63-2.23-0.54-3.4
		C1090.3,696.21,1092.81,696.05,1095.32,695.88z"/>
	<path class="st17" d="M1641.25,670.37c-1.95,0.41-2.74-0.34-2.31-2.31C1639.85,668.69,1640.62,669.46,1641.25,670.37z"/>
	<path class="st13" d="M2353.96,2109.8c-5.05-2.62-5.03-5.22,0.03-7.8C2353.98,2104.6,2353.97,2107.2,2353.96,2109.8z"/>
	<path class="st18" d="M2023.75,1553.16c56.64-50.09,157.57-35.74,193.26,39.12c20.5,43,14.54,102.68-17.98,135.79
		c-6.83,1.83-13.77,3.33-20.48,5.55c-94.51,31.27-183.58-47.5-163.51-144.77C2017.52,1576.85,2020.83,1565.05,2023.75,1553.16z"/>
	<path class="st19" d="M2023.75,1553.16c-2.92,11.89-6.23,23.7-8.71,35.68c-20.07,97.27,69,176.05,163.51,144.77
		c6.7-2.22,13.65-3.72,20.48-5.55c-32.21,39.98-85.95,54.67-135.99,37.16c-48.08-16.82-81.93-63.62-82.62-113.46
		C1979.88,1612.19,1991.18,1578.06,2023.75,1553.16z"/>
	<path class="st10" d="M425.4,870.8c-1.06-0.19-2.13-0.36-3.19-0.51c-0.42-1.22-0.36-2.41,0.17-3.58
		C423.39,868.07,424.4,869.44,425.4,870.8z"/>
	<path class="st20" d="M1598.11,975.14c-48.6-84.24-97.38-168.38-145.58-252.85c-7.09-12.42-13.87-14.65-26.23-7.39
		c-46.96,27.58-94.4,54.34-141.47,81.75c-11.42,6.65-22.36,10.02-34.62,2.6c-23.1-13.98-22.58-38.82,2.4-54.71
		c22.41-14.26,45.9-26.81,68.91-40.12c37.04-21.44,73.95-43.1,111.15-64.24c22.19-12.61,37.31-9.51,49.44,11.42
		c62.43,107.7,124.38,215.67,186.5,323.55c-1.28,0.44-2.55,0.88-3.83,1.31c-19.47,0-38.94,0-58.42,0
		C1603.61,976.02,1600.86,975.58,1598.11,975.14z"/>
	<path class="st20" d="M882.04,975.15c23.63-33.06,56.56-57.64,91.75-72.97c59.26-25.82,122.94-27.33,184.8-4.46
		c42.94,15.87,82.09,38.27,108.94,77.38c0.01,0-0.11,1.34-0.11,1.34c-127.36,0-254.72,0.01-382.08,0.01
		C884.24,976.01,883.14,975.58,882.04,975.15z"/>
	<path class="st21" d="M1708.06,781.31c38.83-10.24,77.63-20.61,116.51-30.68c31.39-8.13,42.6-2.26,50.92,29.74
		c12.66,48.71,23.63,97.86,35.92,146.67c4.09,16.27,10.03,32.07,15.12,48.08c-20.97,0.01-41.95,0.02-62.92,0.04
		c-11.98-44.23-23.69-88.54-36.06-132.67c-6.18-22.03-14.85-27.07-35.66-18.66c-17.1,6.92-35.2,7.52-52.55,12.16
		C1726.12,819.37,1715.62,801.18,1708.06,781.31z"/>
	<path class="st15" d="M1739.34,836c17.36-4.64,35.45-5.24,52.55-12.16c20.81-8.41,29.48-3.37,35.66,18.66
		c12.37,44.12,24.08,88.43,36.06,132.67c-15.61,0-31.21,0-46.82,0.01c-23.66-41.71-47.36-83.4-70.94-125.15
		C1743.32,845.54,1741.49,840.68,1739.34,836z"/>
	<path class="st16" d="M885.35,976.44c127.36,0,254.72-0.01,382.08-0.01c-5.05,8.05-13.24,7.06-20.92,7.06
		c-113.42,0.05-226.84,0.05-340.26,0C898.58,983.48,890.34,984.62,885.35,976.44z"/>
	<path class="st16" d="M1606.37,976.45c19.47,0,38.94,0,58.42,0C1649.89,986.6,1621.26,986.61,1606.37,976.45z"/>
</g>
<g class="st0">
	<path class="st22" d="M2452.6,1782.76c-6.38,47.42-24.84,91.3-43.11,134.64c-23.99,56.89-53,111.42-87.11,163.36
		c-54.71,83.3-118.21,158.17-193.62,223.68c-62.76,54.51-129.54,102.74-202.76,141.64c-116.85,62.08-240.9,102.03-372.4,119.6
		c-17.94,2.4-37.37-2.31-54.26,7.78c-55.74,0-111.49,0-167.23,0c-3.19-6-8.59-4.18-13.58-3.83
		c-107.09-8.83-209.91-34.84-309.07-76.05c-117.22-48.71-222.93-115.34-317.07-200.6c-114.67-103.84-201.88-227.12-263.7-368.66
		c-18.36-42.03-37.69-83.67-46.89-129.1c-0.96-4.75-0.2-8.4,0.34-12.57c0.68-3.72,1.09-7.33-3.34-9.19
		c-7.75-12.65-10.72-25.68-10.39-41.14c0.37-17.95-10.91-33.94-13.88-52.52c-12.07-75.45-17.17-150.95-12.34-227.17
		c11.03,20.35,9.6,43.4,13.06,65.17c16.36,103.14,47.82,201.98,93.89,294.84c65.7,132.43,155.61,247.2,268.57,343.98
		c82.95,71.07,174.06,128.72,274.02,171.06c163.44,69.23,333.77,99.27,511.99,83.96c87.24-7.49,172.23-23.5,254.87-50.92
		c107.61-35.71,207.52-87.52,298.86-154.84c74.7-55.06,140.64-119.51,199-191.76c51.16-63.33,94.15-131.32,129.83-204.81
		c45.26-93.23,76.6-190.13,94.48-291.97c4.6-26.21,3.53-53.43,13.54-78.68c1.46,37.69,3.01,75.46-0.73,113.02
		c-4.13,41.5-4.18,83.7-18.11,123.8c-2.71-0.67-3.67,0.55-3.36,3.13c8.32,31.46-6.23,59.33-13.79,88.31
		c-0.56,2.14-0.76,4.36-1.13,6.55C2453.94,1775.72,2447.98,1776.66,2452.6,1782.76z"/>
	<path class="st23" d="M1318.53,2569.62c4.98-0.35,10.38-2.17,13.58,3.83c-4.52,0-9.04,0-13.56,0
		C1318.55,2572.18,1318.54,2570.9,1318.53,2569.62z"/>
	<path class="st24" d="M2494.28,1438.65c-10.01,25.25-8.94,52.47-13.54,78.68c-17.88,101.84-49.22,198.74-94.48,291.97
		c-35.68,73.49-78.67,141.47-129.83,204.81c-58.36,72.26-124.3,136.71-199,191.76c-91.34,67.32-191.25,119.13-298.86,154.84
		c-82.64,27.42-167.63,43.43-254.87,50.92c-178.22,15.31-348.54-14.73-511.99-83.96c-99.96-42.34-191.07-99.99-274.02-171.06
		c-112.96-96.78-202.87-211.55-268.57-343.98c-46.07-92.85-77.53-191.7-93.89-294.84c-3.45-21.77-2.02-44.82-13.06-65.17
		c-0.66-1.26-1-2.59-1.01-4.01c0.13-3.23,0.26-6.47,0.39-9.7c0.26-11.9,0.51-23.8,0.77-35.7c1.09-1.49,2.19-2.97,3.28-4.46
		c-6.54-19.54-6.73-40.09-6.32-60.05c1.9-91.87,10.08-182.82,34.12-272.27c43.11-160.43,118.07-303.46,226-429.53
		c109.55-127.97,242.16-224.52,396.59-291.35c69.43-30.05,141.65-52.63,215.7-66.29c50.3-9.28,101.95-13.01,153.42-16.77
		c49.07-3.59,97.2,1.18,145.49,2.79c50.21,1.67,100.18,11.82,149.47,23.04c78.13,17.79,153.79,42.79,225.78,78.27
		c93.34,46.01,180.17,101.67,256.04,173.47c-0.16,2.59,0.98,3.83,3.63,3.5c22.95,22.94,45.9,45.89,68.85,68.83
		c-0.31,2.63,0.99,3.74,3.5,3.71c85.91,94.95,152.79,201.34,199.9,320.86c25.73,65.26,44.09,132.29,59.2,200.26
		c10.65,47.9,13.34,97.25,17.22,146.22C2498.29,1335.18,2492.19,1386.91,2494.28,1438.65z M2232.46,1502.5
		c4.38-1.42,13.98,3.07,9.49-8.39c1.3-15.33,2.6-30.67,3.9-46c1.24-1.51,2.49-3.02,3.73-4.54c-3.38-32.52,8.76-63.69,8.27-96.01
		c-1.02-67.1-12.73-132.79-24.48-198.58c-6.96-38.97-21.2-75.48-33.58-112.69c-0.96-1.17-1.91-2.34-2.87-3.52
		c-48.69-137.36-134.67-247.81-245.6-340.27c-0.46-5.77-3.92-7.97-9.33-7.87c-36.34-30.07-74.72-57.06-117.21-77.87
		c0.08-7.26-3.73-6.18-8.15-3.81c-84.33-49.38-175.17-79.28-272.09-91.05c-0.99-5.11-1.96-10.24-8.63-4.53
		c-9.18,0.02-18.35,0.04-27.53,0.06c-1-5.24-2.06-10.34-8.71-4.4c-7.48,0.22-15.26,1.89-22.41,0.44
		c-60.84-12.33-120.89,1.08-181.22,4.85c-1.49,1.24-2.98,2.48-4.47,3.72c-21.17,0.98-41.75,4.82-62.61,8.98
		c-56.71,11.33-111.76,28.99-162.92,54.09c-115.48,56.64-218.54,130.31-299.2,233.09c-133.34,169.92-200.77,360.46-185.02,577.46
		c1.53,21.04,4.68,43.8,5.69,63.86c1.55,30.9,9.4,60.18,15.74,88.77c28.34,127.64,90.25,239.62,173.12,339.96
		c32.19,38.98,66.25,76.62,108.68,105.31c0.63,0.94,1.45,1.66,2.47,2.15c35.96,33.54,77.51,59.07,119.79,83.52
		c96.88,56.03,201.78,87.1,312.19,102.36c54.73,7.56,109.43,2.67,164.13,4.04c27.63,0.69,54.1-8.52,81.51-11.41
		c33.22-3.5,65.7-15.31,98.14-24.78c75.69-22.11,145.65-56.69,211.77-99.34c1.24-1.03,2.48-2.06,3.72-3.09
		c2.97-1.92,5.93-3.85,8.9-5.77c1.55-1.11,3.1-2.21,4.64-3.32c18.77-10.11,35.45-23.04,50.93-37.61c1.22-1.23,2.44-2.45,3.67-3.68
		c1.27-1.81,2.17-4.15,3.88-5.35c64.18-45.47,112.46-106.08,158.21-168.61c48.83-66.74,82.17-141.68,106.45-220.34
		C2224.38,1563.39,2237.6,1534.46,2232.46,1502.5z"/>
	<path class="st23" d="M2452.6,1782.76c-4.62-6.11,1.34-7.04,4.56-9.31C2464.62,1780.95,2458.31,1781.71,2452.6,1782.76z"/>
	<path class="st23" d="M378.8,1773.46c4.43,1.86,4.02,5.48,3.34,9.19C375.93,1781.44,371.64,1779.53,378.8,1773.46z"/>
	<path class="st25" d="M341.56,1438.92c-0.13,3.23-0.26,6.47-0.39,9.7C337.79,1445.24,338.03,1442.01,341.56,1438.92z"/>
	<path class="st23" d="M345.61,1398.76c-1.09,1.49-2.19,2.97-3.28,4.46C343.42,1401.73,344.52,1400.25,345.61,1398.76z"/>
	<path class="st23" d="M2472.08,1678.6c-0.3-2.57,0.65-3.8,3.36-3.13C2474.32,1676.51,2473.2,1677.55,2472.08,1678.6z"/>
	<path class="st23" d="M2217.87,616.1c-2.51,0.03-3.81-1.08-3.5-3.71C2215.54,613.64,2216.71,614.87,2217.87,616.1z"/>
	<path class="st23" d="M2145.52,543.57c-2.65,0.33-3.79-0.92-3.63-3.5C2143.1,541.23,2144.31,542.4,2145.52,543.57z"/>
	<path class="st26" d="M2232.46,1502.5c0.97-5.27,4.65-7.49,9.48-8.39C2246.44,1505.57,2236.84,1501.09,2232.46,1502.5z"/>
	<path class="st26" d="M1508.38,507.45c-3.93,0.56-7.47,0.36-8.71-4.4C1506.32,497.11,1507.38,502.22,1508.38,507.45z"/>
	<path class="st26" d="M1544.54,511.92c-3.95,0.55-7.44,0.21-8.63-4.53C1542.58,501.68,1543.56,506.81,1544.54,511.92z"/>
	<path class="st26" d="M1951.32,692.52c-6.48,1.37-8.78-2.21-9.33-7.87C1947.4,684.55,1950.86,686.75,1951.32,692.52z"/>
	<path class="st26" d="M1824.78,606.78c-3.47,0.34-7.2,1.25-8.15-3.8C1821.05,600.59,1824.86,599.52,1824.78,606.78z"/>
	<path class="st26" d="M2245.85,1448.11c1.24-1.51,2.49-3.02,3.73-4.54C2248.34,1445.09,2247.09,1446.6,2245.85,1448.11z"/>
	<path class="st26" d="M2199.78,1036.3c-2.32-0.06-3.74-0.85-2.87-3.52C2197.87,1033.96,2198.83,1035.13,2199.78,1036.3z"/>
	<path class="st26" d="M885.05,1983.59c2.38-1.07,2.94-0.04,2.47,2.15C886.5,1985.25,885.68,1984.53,885.05,1983.59z"/>
	<path class="st26" d="M1943.24,1990.34c-0.27-2.71,1.18-3.71,3.67-3.68C1945.68,1987.89,1944.46,1989.11,1943.24,1990.34z"/>
	<path class="st26" d="M1887.66,2031.27c0.8-2.16,1.75-4.1,4.65-3.32C1890.76,2029.05,1889.21,2030.16,1887.66,2031.27z"/>
	<path class="st26" d="M1875.04,2040.13c0.06-2.45,0.92-3.94,3.72-3.09C1877.52,2038.07,1876.28,2039.1,1875.04,2040.13z"/>
	<path class="st26" d="M1296.04,508.34c-1.49,1.24-2.98,2.48-4.47,3.73C1293.06,510.82,1294.55,509.58,1296.04,508.34z"/>
	<path class="st25" d="M1414.29,2111.24c-80.71,9.78-158.57-8.35-234.05-33.14c-109.42-35.93-207.13-93.7-292.37-172.24
		c-65.94-60.76-117.77-132.33-160.56-210.04c-24.46-44.43-44.76-92.05-59.66-140.47c-7.51-24.41-8.86-52.64-14.66-78.24
		c-12.11-53.45-13.9-107.18-11.82-160.97c5.98-154.31,51.1-295.78,140.16-423.29c68.93-98.68,156.29-176.54,260.21-235.13
		c76.53-43.15,159.62-69.56,246.25-87.2c54.51-11.1,108.4-5.22,162.51-7.99c20.12-1.03,40.82,11.06,60.38-2.78
		c39.73,14.24,81.6,20.11,122.01,32.37c104.76,31.79,200.55,80.28,283.44,151c96.47,82.31,173.03,180.32,220.76,299.7
		c34.56,86.42,54.16,174.71,54.9,268.18c0.37,46.9-2.05,93.73-2.13,140.58c-0.04,24.57-11.54,49.09-17.69,73.68
		c-29.77,119.06-85.44,224.22-165.07,317.83c-85.82,100.89-191.07,173.6-313.51,221.13
		C1604.16,2098.86,1511.86,2121.46,1414.29,2111.24z M1309.45,1927.1c-0.11,18.07-0.6,36.14-0.25,54.2
		c0.46,24.02,18.1,43.92,41.51,44.43c42.15,0.91,84.37,1.14,126.5-0.17c28.29-0.88,38.69-12.89,45.74-39.58
		c5.55-21.01,2.54-41.74,2.89-62.61c3.54-17.84-4.75-36.9,5.61-54.03c35.48-1.83,69.14-11.77,102.19-23.75
		c109.17-39.6,169.92-128.75,163.08-238.62c0.26-10.36,0.35-20.74,0.83-31.09c1.08-23.44-0.63-46.48-8.74-68.74
		c-16.25-44.6-50.16-68.48-94.26-80.43c12.56-1.77,25.36-2.53,37.63-5.51c38.55-9.37,67.48-29.1,79.73-69.93
		c13.48-44.93,19.51-90.28,16.49-136.96c3.88-61.04-1.46-121.54-13.3-181.3c-17.35-87.53-57.97-160.44-136.7-208.06
		c-38.32-23.18-79.85-38.32-123.78-44.96c-23.85-3.6-30.32-13.72-28.69-36.73c2.18-30.72,0.94-61.73,0.4-92.6
		c-0.5-28.26-18.48-46.73-46.56-47.16c-41.42-0.63-82.87-0.71-124.29,0.02c-29.45,0.52-45.86,17.81-46.13,46.89
		c-0.33,34.64-1.72,69.37,0.18,103.9c1.21,22-7.61,29.25-27.63,34.67c-95.85,25.92-172.31,77.32-214,171.22
		c-27.58,62.14-34.21,129.28-37.44,195.43c-4.39,90.14-0.64,180.67-0.39,271.03c-0.45,52.4-0.9,104.5,7.33,156.82
		c14.68,93.35,53.73,170.71,133.53,224.58c40.91,27.61,86.85,43.26,134.09,55.71C1306.54,1884.88,1302.35,1906.38,1309.45,1927.1z"
		/>
	<path class="st24" d="M1030.07,1426.66c-0.26-90.36-4.01-180.89,0.39-271.03c3.22-66.15,9.85-133.3,37.44-195.43
		c41.69-93.91,118.15-145.3,214-171.22c20.02-5.41,28.84-12.67,27.63-34.67c-1.9-34.53-0.51-69.26-0.18-103.9
		c0.28-29.08,16.68-46.38,46.13-46.89c41.42-0.73,82.87-0.65,124.29-0.02c28.07,0.43,46.06,18.9,46.56,47.16
		c0.54,30.87,1.78,61.87-0.4,92.6c-1.63,23.01,4.84,33.13,28.69,36.73c43.94,6.64,85.46,21.78,123.78,44.96
		c78.72,47.62,119.35,120.52,136.7,208.06c11.84,59.75,17.18,120.25,13.3,181.29c-2.71,14.5-5.39,29.01-8.16,43.51
		c-9.05,47.46-33.67,81.77-82.59,93.33c-17.3,4.09-35.09,6.98-53.3,6.92c-103.78-0.36-207.58,0.42-311.35-0.62
		c-21.08-0.21-30.5,4.39-27.81,26.94c1.77,14.84,0.46,30.04,0.53,45.08c-2.25,29.33,5.53,57.72,7.89,86.51
		c3.93,47.89,31.41,81.89,75.77,85.76c56.27,4.9,87.41-17.37,97.53-69.91c4.7-24.41,10.32-48,27.57-67.72
		c13.9-15.89,33.9-21.74,49.68-34.21l1.52-0.21l1.53,0.14c5.05,0.25,10.34,1.38,13.97-3.72c24.46,0.21,48.92,0.42,73.37,0.62
		c44.1,11.95,78.01,35.82,94.26,80.43c8.11,22.26,9.82,45.3,8.74,68.74c-0.48,10.35-0.56,20.73-0.82,31.09
		c-6.26,2.93-6.68,8.83-8.57,14.65c-22.04,67.83-66.41,115.09-131.54,144.14c-34.41,15.35-69.67,26.16-106.92,31.72
		c-7.57,1.13-21.64-0.75-22.11,10.58c-0.84,20.36-6.31,41.48,3.86,61.29c-10.36,17.13-2.08,36.19-5.61,54.02
		c-12.32,24.01-32.03,32.6-58.7,31.44c-33.62-1.46-67.43-1.84-100.99,0.13c-25.34,1.49-43.31-7.33-56.71-27.83
		c-7.1-20.72-2.91-42.22-4.42-63.33c6.99-11.85,2.68-25.03,4.52-37.44c3.65-24.69-6.03-34.34-30.96-40.55
		c-137.79-34.3-223.75-136.19-241.42-277.24C1033.74,1481.19,1039,1453.31,1030.07,1426.66z M1349.83,1154.3
		c44.97,0.02,89.94,0.04,134.9,0.06c37.63,0.01,37.63,0,33.03-36.09c9.38-31.39,4.72-61.46-7.32-91.32
		c-12.9-31.98-39.67-42.02-70.09-43.57c-31.53-1.61-61.35,7.57-75.9,37.88C1344.31,1063.23,1340.13,1108.34,1349.83,1154.3z"/>
	<path class="st22" d="M1694.55,1426.7c-24.46-0.21-48.92-0.42-73.37-0.63c-5.09-0.37-10.19-0.82-13.97,3.72l-1.53-0.14
		c0,0-1.52,0.21-1.53,0.21c-86.15-0.14-172.29-0.29-258.42-0.43c-0.07-15.04,1.24-30.24-0.53-45.08
		c-2.69-22.55,6.73-27.15,27.81-26.94c103.78,1.05,207.57,0.26,311.35,0.62c18.21,0.06,36-2.83,53.3-6.92
		c48.92-11.56,73.54-45.87,82.59-93.33c2.77-14.5,5.44-29.01,8.16-43.51c3.01,46.69-3.02,92.04-16.5,136.97
		c-12.25,40.83-41.18,60.57-79.73,69.93C1719.91,1424.17,1707.11,1424.93,1694.55,1426.7z"/>
	<path class="st22" d="M1030.07,1426.66c8.93,26.64,3.67,54.53,7.09,81.88c17.67,141.05,103.63,242.93,241.42,277.24
		c24.93,6.21,34.61,15.86,30.96,40.55c-1.84,12.41,2.47,25.6-4.52,37.44c-47.24-12.45-93.18-28.09-134.09-55.71
		c-79.81-53.87-118.85-131.23-133.53-224.58C1029.18,1531.17,1029.62,1479.06,1030.07,1426.66z"/>
	<path class="st22" d="M1531.46,1869.34c-10.17-19.8-4.7-40.93-3.86-61.29c0.47-11.33,14.55-9.45,22.11-10.58
		c37.24-5.57,72.5-16.38,106.92-31.72c65.13-29.05,109.5-76.31,131.54-144.14c1.89-5.82,2.3-11.72,8.57-14.65
		c6.83,109.87-53.92,199.03-163.09,238.62C1600.6,1857.57,1566.93,1867.51,1531.46,1869.34z"/>
	<path class="st22" d="M1309.45,1927.1c13.4,20.5,31.37,29.32,56.71,27.83c33.56-1.97,67.38-1.59,100.99-0.13
		c26.67,1.16,46.37-7.43,58.7-31.44c-0.35,20.88,2.65,41.61-2.89,62.62c-7.05,26.69-17.45,38.7-45.74,39.58
		c-42.13,1.31-84.35,1.08-126.5,0.17c-23.41-0.51-41.05-20.41-41.51-44.43C1308.85,1963.24,1309.33,1945.17,1309.45,1927.1z"/>
	<path class="st25" d="M1345.72,1429.44c86.14,0.14,172.28,0.29,258.42,0.43c-15.77,12.47-35.77,18.32-49.67,34.2
		c-17.25,19.71-22.87,43.31-27.57,67.72c-10.11,52.54-41.25,74.82-97.53,69.91c-44.36-3.86-71.83-37.87-75.77-85.76
		C1351.25,1487.16,1343.47,1458.77,1345.72,1429.44z"/>
	<path class="st25" d="M1517.76,1118.26c4.6,36.09,4.6,36.1-33.03,36.09c-44.97-0.01-89.94-0.04-134.9-0.05
		c1.19-22.2,0.38-45.22,13.58-64.44c23.98-34.92,60.05-39.9,97.73-33.63C1494.67,1061.81,1511.13,1086.38,1517.76,1118.26z"/>
	<path class="st22" d="M1517.76,1118.26c-6.64-31.88-23.09-56.46-56.63-62.04c-37.68-6.27-73.75-1.29-97.73,33.63
		c-13.19,19.21-12.38,42.24-13.58,64.44c-9.71-45.96-5.53-91.07,14.61-133.04c14.54-30.31,44.37-39.49,75.9-37.88
		c30.42,1.55,57.19,11.59,70.09,43.57C1522.49,1056.81,1527.14,1086.87,1517.76,1118.26z"/>
	<path class="st26" d="M1607.21,1429.8c3.78-4.54,8.89-4.09,13.97-3.72C1617.54,1431.18,1612.26,1430.05,1607.21,1429.8z"/>
</g>
</svg>
